%TF.GenerationSoftware,KiCad,Pcbnew,10.0.2*%
%TF.CreationDate,2026-05-26T19:34:44+07:00*%
%TF.ProjectId,caligula,63616c69-6775-46c6-912e-6b696361645f,0.01*%
%TF.SameCoordinates,Original*%
%TF.FileFunction,Paste,Bot*%
%TF.FilePolarity,Positive*%
%FSLAX46Y46*%
G04 Gerber Fmt 4.6, Leading zero omitted, Abs format (unit mm)*
G04 Created by KiCad (PCBNEW 10.0.2) date 2026-05-26 19:34:44*
%MOMM*%
%LPD*%
G01*
G04 APERTURE LIST*
G04 Aperture macros list*
%AMRoundRect*
0 Rectangle with rounded corners*
0 $1 Rounding radius*
0 $2 $3 $4 $5 $6 $7 $8 $9 X,Y pos of 4 corners*
0 Add a 4 corners polygon primitive as box body*
4,1,4,$2,$3,$4,$5,$6,$7,$8,$9,$2,$3,0*
0 Add four circle primitives for the rounded corners*
1,1,$1+$1,$2,$3*
1,1,$1+$1,$4,$5*
1,1,$1+$1,$6,$7*
1,1,$1+$1,$8,$9*
0 Add four rect primitives between the rounded corners*
20,1,$1+$1,$2,$3,$4,$5,0*
20,1,$1+$1,$4,$5,$6,$7,0*
20,1,$1+$1,$6,$7,$8,$9,0*
20,1,$1+$1,$8,$9,$2,$3,0*%
G04 Aperture macros list end*
%ADD10R,2.550000X2.500000*%
%ADD11RoundRect,0.250000X-0.350000X-0.450000X0.350000X-0.450000X0.350000X0.450000X-0.350000X0.450000X0*%
%ADD12RoundRect,0.250000X0.337500X0.475000X-0.337500X0.475000X-0.337500X-0.475000X0.337500X-0.475000X0*%
%ADD13RoundRect,0.250000X-0.337500X-0.475000X0.337500X-0.475000X0.337500X0.475000X-0.337500X0.475000X0*%
%ADD14RoundRect,0.250000X-0.450000X0.350000X-0.450000X-0.350000X0.450000X-0.350000X0.450000X0.350000X0*%
%ADD15RoundRect,0.250000X0.350000X0.450000X-0.350000X0.450000X-0.350000X-0.450000X0.350000X-0.450000X0*%
%ADD16R,0.700000X1.600000*%
%ADD17R,1.200000X1.500000*%
%ADD18R,1.200000X2.200000*%
%ADD19R,1.600000X1.500000*%
G04 APERTURE END LIST*
D10*
%TO.C,SW2*%
X98990000Y-90670000D03*
X85140000Y-93210000D03*
%TD*%
D11*
%TO.C,R9*%
X59550000Y-95010000D03*
X61550000Y-95010000D03*
%TD*%
D12*
%TO.C,C6*%
X61580650Y-92948303D03*
X59505650Y-92948303D03*
%TD*%
D13*
%TO.C,C3*%
X121012500Y-94040000D03*
X123087500Y-94040000D03*
%TD*%
D14*
%TO.C,R27*%
X118300000Y-118750000D03*
X118300000Y-120750000D03*
%TD*%
D15*
%TO.C,R3*%
X123050000Y-96040000D03*
X121050000Y-96040000D03*
%TD*%
D14*
%TO.C,R26*%
X116050000Y-118750000D03*
X116050000Y-120750000D03*
%TD*%
D13*
%TO.C,C5*%
X102466886Y-109892188D03*
X104541886Y-109892188D03*
%TD*%
D11*
%TO.C,R7*%
X102500000Y-112020000D03*
X104500000Y-112020000D03*
%TD*%
%TO.C,R1*%
X101750000Y-104250000D03*
X103750000Y-104250000D03*
%TD*%
D14*
%TO.C,R10*%
X113800000Y-118750000D03*
X113800000Y-120750000D03*
%TD*%
D10*
%TO.C,SW4*%
X118800000Y-90630000D03*
X104950000Y-93170000D03*
%TD*%
%TO.C,SW6*%
X79090000Y-90530000D03*
X65240000Y-93070000D03*
%TD*%
D16*
%TO.C,Card1*%
X110095000Y-126130000D03*
X111195000Y-126130000D03*
X112295000Y-126130000D03*
X113395000Y-126130000D03*
X114495000Y-126130000D03*
X115595000Y-126130000D03*
X116695000Y-126130000D03*
X117795000Y-126130000D03*
D17*
X120095000Y-127130000D03*
D18*
X120095000Y-136730000D03*
X104595000Y-136730000D03*
D19*
X105495000Y-127130000D03*
D16*
X118895000Y-126130000D03*
%TD*%
D12*
%TO.C,C1*%
X103787500Y-102250000D03*
X101712500Y-102250000D03*
%TD*%
D14*
%TO.C,R28*%
X111550000Y-118750000D03*
X111550000Y-120750000D03*
%TD*%
D10*
%TO.C,SW5*%
X99250000Y-110860000D03*
X85400000Y-113400000D03*
%TD*%
M02*
