%TF.GenerationSoftware,KiCad,Pcbnew,10.0.2*%
%TF.CreationDate,2026-05-26T19:34:44+07:00*%
%TF.ProjectId,caligula,63616c69-6775-46c6-912e-6b696361645f,0.01*%
%TF.SameCoordinates,Original*%
%TF.FileFunction,Paste,Top*%
%TF.FilePolarity,Positive*%
%FSLAX46Y46*%
G04 Gerber Fmt 4.6, Leading zero omitted, Abs format (unit mm)*
G04 Created by KiCad (PCBNEW 10.0.2) date 2026-05-26 19:34:44*
%MOMM*%
%LPD*%
G01*
G04 APERTURE LIST*
G04 Aperture macros list*
%AMRoundRect*
0 Rectangle with rounded corners*
0 $1 Rounding radius*
0 $2 $3 $4 $5 $6 $7 $8 $9 X,Y pos of 4 corners*
0 Add a 4 corners polygon primitive as box body*
4,1,4,$2,$3,$4,$5,$6,$7,$8,$9,$2,$3,0*
0 Add four circle primitives for the rounded corners*
1,1,$1+$1,$2,$3*
1,1,$1+$1,$4,$5*
1,1,$1+$1,$6,$7*
1,1,$1+$1,$8,$9*
0 Add four rect primitives between the rounded corners*
20,1,$1+$1,$2,$3,$4,$5,0*
20,1,$1+$1,$4,$5,$6,$7,0*
20,1,$1+$1,$6,$7,$8,$9,0*
20,1,$1+$1,$8,$9,$2,$3,0*%
G04 Aperture macros list end*
%ADD10RoundRect,0.250000X0.450000X-0.350000X0.450000X0.350000X-0.450000X0.350000X-0.450000X-0.350000X0*%
%ADD11RoundRect,0.250000X0.350000X0.450000X-0.350000X0.450000X-0.350000X-0.450000X0.350000X-0.450000X0*%
%ADD12RoundRect,0.250000X0.337500X0.475000X-0.337500X0.475000X-0.337500X-0.475000X0.337500X-0.475000X0*%
%ADD13RoundRect,0.250000X-0.450000X0.350000X-0.450000X-0.350000X0.450000X-0.350000X0.450000X0.350000X0*%
%ADD14RoundRect,0.150000X-0.825000X-0.150000X0.825000X-0.150000X0.825000X0.150000X-0.825000X0.150000X0*%
%ADD15RoundRect,0.250000X-0.405000X-0.405000X0.405000X-0.405000X0.405000X0.405000X-0.405000X0.405000X0*%
%ADD16RoundRect,0.075000X-0.337500X-0.075000X0.337500X-0.075000X0.337500X0.075000X-0.337500X0.075000X0*%
%ADD17RoundRect,0.075000X-0.075000X-0.337500X0.075000X-0.337500X0.075000X0.337500X-0.075000X0.337500X0*%
%ADD18RoundRect,0.250000X-0.275000X0.450000X-0.275000X-0.450000X0.275000X-0.450000X0.275000X0.450000X0*%
%ADD19RoundRect,0.250000X0.475000X-0.337500X0.475000X0.337500X-0.475000X0.337500X-0.475000X-0.337500X0*%
%ADD20R,1.200000X2.000000*%
%ADD21RoundRect,0.250000X-0.350000X-0.450000X0.350000X-0.450000X0.350000X0.450000X-0.350000X0.450000X0*%
%ADD22RoundRect,0.250000X-0.450000X0.325000X-0.450000X-0.325000X0.450000X-0.325000X0.450000X0.325000X0*%
%ADD23RoundRect,0.160000X-0.160000X-0.160000X0.160000X-0.160000X0.160000X0.160000X-0.160000X0.160000X0*%
%ADD24RoundRect,0.062500X-0.375000X-0.062500X0.375000X-0.062500X0.375000X0.062500X-0.375000X0.062500X0*%
%ADD25RoundRect,0.062500X-0.062500X-0.375000X0.062500X-0.375000X0.062500X0.375000X-0.062500X0.375000X0*%
%ADD26RoundRect,0.075000X-0.650000X-0.075000X0.650000X-0.075000X0.650000X0.075000X-0.650000X0.075000X0*%
%ADD27RoundRect,0.250000X-0.337500X-0.475000X0.337500X-0.475000X0.337500X0.475000X-0.337500X0.475000X0*%
%ADD28RoundRect,0.250001X-0.624999X0.462499X-0.624999X-0.462499X0.624999X-0.462499X0.624999X0.462499X0*%
%ADD29R,0.900000X0.900000*%
%ADD30R,1.500000X0.900000*%
%ADD31R,0.900000X1.500000*%
%ADD32RoundRect,0.250001X0.462499X0.624999X-0.462499X0.624999X-0.462499X-0.624999X0.462499X-0.624999X0*%
%ADD33RoundRect,0.025000X0.100000X0.145000X-0.100000X0.145000X-0.100000X-0.145000X0.100000X-0.145000X0*%
%ADD34RoundRect,0.106000X0.644000X0.424000X-0.644000X0.424000X-0.644000X-0.424000X0.644000X-0.424000X0*%
%ADD35RoundRect,0.060000X0.240000X0.060000X-0.240000X0.060000X-0.240000X-0.060000X0.240000X-0.060000X0*%
%ADD36RoundRect,0.200000X-0.200000X0.750000X-0.200000X-0.750000X0.200000X-0.750000X0.200000X0.750000X0*%
%ADD37R,2.950000X3.500000*%
%ADD38RoundRect,0.200000X0.750000X0.200000X-0.750000X0.200000X-0.750000X-0.200000X0.750000X-0.200000X0*%
%ADD39RoundRect,0.250000X-0.475000X0.337500X-0.475000X-0.337500X0.475000X-0.337500X0.475000X0.337500X0*%
%ADD40RoundRect,0.150000X-0.150000X0.825000X-0.150000X-0.825000X0.150000X-0.825000X0.150000X0.825000X0*%
%ADD41RoundRect,0.150000X0.150000X0.425000X-0.150000X0.425000X-0.150000X-0.425000X0.150000X-0.425000X0*%
%ADD42RoundRect,0.075000X0.075000X0.500000X-0.075000X0.500000X-0.075000X-0.500000X0.075000X-0.500000X0*%
%ADD43RoundRect,0.250000X0.840000X0.750000X-0.840000X0.750000X-0.840000X-0.750000X0.840000X-0.750000X0*%
%ADD44RoundRect,0.200000X0.200000X-0.750000X0.200000X0.750000X-0.200000X0.750000X-0.200000X-0.750000X0*%
%ADD45R,2.550000X2.500000*%
G04 APERTURE END LIST*
D10*
%TO.C,R29*%
X49000000Y-92000000D03*
X49000000Y-94000000D03*
%TD*%
D11*
%TO.C,R31*%
X47841205Y-96043993D03*
X49841205Y-96043993D03*
%TD*%
D12*
%TO.C,C9*%
X54912500Y-89520000D03*
X56987500Y-89520000D03*
%TD*%
D13*
%TO.C,R30*%
X62047731Y-92374442D03*
X62047731Y-90374442D03*
%TD*%
%TO.C,R32*%
X51000000Y-94000000D03*
X51000000Y-92000000D03*
%TD*%
%TO.C,R33*%
X64250000Y-92400000D03*
X64250000Y-90400000D03*
%TD*%
D14*
%TO.C,U8*%
X58950000Y-92000000D03*
X58950000Y-93270000D03*
X58950000Y-94540000D03*
X58950000Y-95810000D03*
X54000000Y-95810000D03*
X54000000Y-94540000D03*
X54000000Y-93270000D03*
X54000000Y-92000000D03*
%TD*%
D13*
%TO.C,R19*%
X59065553Y-100064696D03*
X59065553Y-102064696D03*
%TD*%
D15*
%TO.C,U7*%
X99330000Y-74810000D03*
X99330000Y-76430000D03*
X100950000Y-74810000D03*
X100950000Y-76430000D03*
D16*
X97702500Y-74320000D03*
X97702500Y-74970000D03*
X97702500Y-75620000D03*
X97702500Y-76270000D03*
X97702500Y-76920000D03*
D17*
X98840000Y-78057500D03*
X99490000Y-78057500D03*
X100140000Y-78057500D03*
X100790000Y-78057500D03*
X101440000Y-78057500D03*
D16*
X102577500Y-76920000D03*
X102577500Y-76270000D03*
X102577500Y-75620000D03*
X102577500Y-74970000D03*
X102577500Y-74320000D03*
D17*
X101440000Y-73182500D03*
X100790000Y-73182500D03*
X100140000Y-73182500D03*
X99490000Y-73182500D03*
X98840000Y-73182500D03*
%TD*%
D18*
%TO.C,SW3*%
X113710000Y-131171337D03*
X113710000Y-134771337D03*
X112270000Y-131171337D03*
X112270000Y-134771337D03*
%TD*%
D14*
%TO.C,U4*%
X51940000Y-124575000D03*
X51940000Y-125845000D03*
X51940000Y-127115000D03*
X51940000Y-128385000D03*
X56890000Y-128385000D03*
X56890000Y-127115000D03*
X56890000Y-125845000D03*
X56890000Y-124575000D03*
%TD*%
D19*
%TO.C,C10*%
X71545000Y-143057500D03*
X71545000Y-140982500D03*
%TD*%
D20*
%TO.C,SW7*%
X51250000Y-138400000D03*
X53750000Y-138400000D03*
X56250000Y-138400000D03*
X51250000Y-144100000D03*
X53750000Y-144100000D03*
X56250000Y-144100000D03*
%TD*%
D21*
%TO.C,R6*%
X104540000Y-63970000D03*
X106540000Y-63970000D03*
%TD*%
D22*
%TO.C,D3*%
X62710000Y-119122500D03*
X62710000Y-121172500D03*
%TD*%
D23*
%TO.C,U5*%
X60027500Y-112495000D03*
X60027500Y-113295000D03*
X60827500Y-112495000D03*
X60827500Y-113295000D03*
D24*
X58990000Y-112145000D03*
X58990000Y-112645000D03*
X58990000Y-113145000D03*
X58990000Y-113645000D03*
D25*
X59677500Y-114332500D03*
X60177500Y-114332500D03*
X60677500Y-114332500D03*
X61177500Y-114332500D03*
D24*
X61865000Y-113645000D03*
X61865000Y-113145000D03*
X61865000Y-112645000D03*
X61865000Y-112145000D03*
D25*
X61177500Y-111457500D03*
X60677500Y-111457500D03*
X60177500Y-111457500D03*
X59677500Y-111457500D03*
%TD*%
D26*
%TO.C,U6*%
X50915553Y-102564696D03*
X50915553Y-103064696D03*
X50915553Y-103564696D03*
X50915553Y-104064696D03*
X50915553Y-104564696D03*
X55215553Y-104564696D03*
X55215553Y-104064696D03*
X55215553Y-103564696D03*
X55215553Y-103064696D03*
X55215553Y-102564696D03*
%TD*%
D13*
%TO.C,R25*%
X113795000Y-123240000D03*
X113795000Y-125240000D03*
%TD*%
D27*
%TO.C,C22*%
X58402500Y-119295000D03*
X60477500Y-119295000D03*
%TD*%
D19*
%TO.C,C16*%
X72290000Y-125282500D03*
X72290000Y-123207500D03*
%TD*%
D13*
%TO.C,R40*%
X93890000Y-74620000D03*
X93890000Y-76620000D03*
%TD*%
D19*
%TO.C,C2*%
X107419089Y-141646682D03*
X107419089Y-139571682D03*
%TD*%
%TO.C,C11*%
X73545000Y-143057500D03*
X73545000Y-140982500D03*
%TD*%
D28*
%TO.C,D1*%
X105150000Y-133262500D03*
X105150000Y-136237500D03*
%TD*%
D10*
%TO.C,R16*%
X63140000Y-108495000D03*
X63140000Y-106495000D03*
%TD*%
D29*
%TO.C,U2*%
X89445000Y-136810000D03*
X89445000Y-135410000D03*
X89445000Y-134010000D03*
X88045000Y-136810000D03*
X88045000Y-135410000D03*
X88045000Y-134010000D03*
X86645000Y-136810000D03*
X86645000Y-135410000D03*
X86645000Y-134010000D03*
D30*
X95295000Y-143130000D03*
X95295000Y-141860000D03*
X95295000Y-140590000D03*
X95295000Y-139320000D03*
X95295000Y-138050000D03*
X95295000Y-136780000D03*
X95295000Y-135510000D03*
X95295000Y-134240000D03*
X95295000Y-132970000D03*
X95295000Y-131700000D03*
X95295000Y-130430000D03*
X95295000Y-129160000D03*
X95295000Y-127890000D03*
X95295000Y-126620000D03*
D31*
X93530000Y-125370000D03*
X92260000Y-125370000D03*
X90990000Y-125370000D03*
X89720000Y-125370000D03*
X88450000Y-125370000D03*
X87180000Y-125370000D03*
X85910000Y-125370000D03*
X84640000Y-125370000D03*
X83370000Y-125370000D03*
X82100000Y-125370000D03*
X80830000Y-125370000D03*
X79560000Y-125370000D03*
D30*
X77795000Y-126620000D03*
X77795000Y-127890000D03*
X77795000Y-129160000D03*
X77795000Y-130430000D03*
X77795000Y-131700000D03*
X77795000Y-132970000D03*
X77795000Y-134240000D03*
X77795000Y-135510000D03*
X77795000Y-136780000D03*
X77795000Y-138050000D03*
X77795000Y-139320000D03*
X77795000Y-140590000D03*
X77795000Y-141860000D03*
X77795000Y-143130000D03*
%TD*%
D13*
%TO.C,R8*%
X105350000Y-138300000D03*
X105350000Y-140300000D03*
%TD*%
D32*
%TO.C,D2*%
X70487500Y-103950000D03*
X67512500Y-103950000D03*
%TD*%
D21*
%TO.C,R37*%
X114900000Y-60150000D03*
X116900000Y-60150000D03*
%TD*%
D12*
%TO.C,C29*%
X54103053Y-98814696D03*
X52028053Y-98814696D03*
%TD*%
D33*
%TO.C,U3*%
X72940000Y-120475000D03*
X72940000Y-117415000D03*
D34*
X72690000Y-119575000D03*
X72690000Y-118315000D03*
D33*
X72440000Y-120475000D03*
X72440000Y-117415000D03*
D35*
X74090000Y-119945000D03*
X74090000Y-119445000D03*
X74090000Y-118945000D03*
X74090000Y-118445000D03*
X74090000Y-117945000D03*
X71290000Y-117945000D03*
X71290000Y-118445000D03*
X71290000Y-118945000D03*
X71290000Y-119445000D03*
X71290000Y-119945000D03*
%TD*%
D27*
%TO.C,C19*%
X98852500Y-69370000D03*
X100927500Y-69370000D03*
%TD*%
D21*
%TO.C,R39*%
X114900000Y-62350000D03*
X116900000Y-62350000D03*
%TD*%
D12*
%TO.C,C27*%
X51837500Y-121400000D03*
X49762500Y-121400000D03*
%TD*%
D18*
%TO.C,SW1*%
X113710000Y-137721337D03*
X113710000Y-141321337D03*
X112270000Y-137721337D03*
X112270000Y-141321337D03*
%TD*%
D19*
%TO.C,C8*%
X69545000Y-143057500D03*
X69545000Y-140982500D03*
%TD*%
D13*
%TO.C,R15*%
X69340000Y-121445000D03*
X69340000Y-123445000D03*
%TD*%
D27*
%TO.C,C18*%
X98852500Y-67120000D03*
X100927500Y-67120000D03*
%TD*%
D36*
%TO.C,Q2*%
X111290000Y-83370000D03*
X109390000Y-83370000D03*
X110340000Y-86370000D03*
%TD*%
D19*
%TO.C,C14*%
X67040000Y-123482500D03*
X67040000Y-121407500D03*
%TD*%
D11*
%TO.C,R14*%
X109298093Y-127883837D03*
X107298093Y-127883837D03*
%TD*%
D19*
%TO.C,C15*%
X65240000Y-108532500D03*
X65240000Y-106457500D03*
%TD*%
D37*
%TO.C,L1*%
X77975000Y-108700000D03*
X72525000Y-108700000D03*
%TD*%
D38*
%TO.C,Q3*%
X108798093Y-125433837D03*
X108798093Y-123533837D03*
X105798093Y-124483837D03*
%TD*%
D13*
%TO.C,R23*%
X67811147Y-112811147D03*
X67811147Y-114811147D03*
%TD*%
D39*
%TO.C,C12*%
X111398093Y-123246337D03*
X111398093Y-125321337D03*
%TD*%
D11*
%TO.C,R24*%
X108850000Y-121450000D03*
X106850000Y-121450000D03*
%TD*%
D40*
%TO.C,U1*%
X112985000Y-67195000D03*
X111715000Y-67195000D03*
X110445000Y-67195000D03*
X109175000Y-67195000D03*
X107905000Y-67195000D03*
X106635000Y-67195000D03*
X105365000Y-67195000D03*
X104095000Y-67195000D03*
X104095000Y-72145000D03*
X105365000Y-72145000D03*
X106635000Y-72145000D03*
X107905000Y-72145000D03*
X109175000Y-72145000D03*
X110445000Y-72145000D03*
X111715000Y-72145000D03*
X112985000Y-72145000D03*
%TD*%
D41*
%TO.C,J1*%
X104810000Y-50180000D03*
X104010000Y-50180000D03*
D42*
X102860000Y-50180000D03*
X101860000Y-50180000D03*
X101360000Y-50180000D03*
X100360000Y-50180000D03*
D41*
X99210000Y-50180000D03*
X98410000Y-50180000D03*
X98410000Y-50180000D03*
X99210000Y-50180000D03*
D42*
X99860000Y-50180000D03*
X100860000Y-50180000D03*
X102360000Y-50180000D03*
X103360000Y-50180000D03*
D41*
X104010000Y-50180000D03*
X104810000Y-50180000D03*
D43*
X106720000Y-49605000D03*
X106720000Y-45675000D03*
X96500000Y-49605000D03*
X96500000Y-45675000D03*
%TD*%
D11*
%TO.C,R35*%
X122400000Y-60150000D03*
X120400000Y-60150000D03*
%TD*%
%TO.C,R38*%
X122400000Y-62400000D03*
X120400000Y-62400000D03*
%TD*%
D13*
%TO.C,R11*%
X107090569Y-80416918D03*
X107090569Y-82416918D03*
%TD*%
D11*
%TO.C,R5*%
X112640000Y-63970000D03*
X110640000Y-63970000D03*
%TD*%
D12*
%TO.C,C25*%
X56137500Y-121550000D03*
X54062500Y-121550000D03*
%TD*%
D13*
%TO.C,R21*%
X64870000Y-123142500D03*
X64870000Y-125142500D03*
%TD*%
D21*
%TO.C,R18*%
X58940000Y-108495000D03*
X60940000Y-108495000D03*
%TD*%
D27*
%TO.C,C23*%
X58402500Y-121495000D03*
X60477500Y-121495000D03*
%TD*%
%TO.C,C20*%
X99590000Y-81707500D03*
X101665000Y-81707500D03*
%TD*%
%TO.C,C13*%
X67462500Y-108350000D03*
X69537500Y-108350000D03*
%TD*%
D39*
%TO.C,C4*%
X107498093Y-132933837D03*
X107498093Y-135008837D03*
%TD*%
D11*
%TO.C,R13*%
X69500000Y-106250000D03*
X67500000Y-106250000D03*
%TD*%
D13*
%TO.C,R17*%
X65770562Y-112800000D03*
X65770562Y-114800000D03*
%TD*%
%TO.C,R4*%
X109498093Y-132971337D03*
X109498093Y-134971337D03*
%TD*%
%TO.C,R20*%
X62704216Y-123097300D03*
X62704216Y-125097300D03*
%TD*%
D41*
%TO.C,J4*%
X121060000Y-50180000D03*
X120260000Y-50180000D03*
D42*
X119110000Y-50180000D03*
X118110000Y-50180000D03*
X117610000Y-50180000D03*
X116610000Y-50180000D03*
D41*
X115460000Y-50180000D03*
X114660000Y-50180000D03*
X114660000Y-50180000D03*
X115460000Y-50180000D03*
D42*
X116110000Y-50180000D03*
X117110000Y-50180000D03*
X118610000Y-50180000D03*
X119610000Y-50180000D03*
D41*
X120260000Y-50180000D03*
X121060000Y-50180000D03*
D43*
X122970000Y-49605000D03*
X122970000Y-45675000D03*
X112750000Y-49605000D03*
X112750000Y-45675000D03*
%TD*%
D44*
%TO.C,Q1*%
X109408550Y-79276018D03*
X111308550Y-79276018D03*
X110358550Y-76276018D03*
%TD*%
D19*
%TO.C,C7*%
X115365000Y-70232500D03*
X115365000Y-68157500D03*
%TD*%
D12*
%TO.C,C26*%
X51875000Y-119250000D03*
X49800000Y-119250000D03*
%TD*%
D10*
%TO.C,R12*%
X113576103Y-82213336D03*
X113576103Y-80213336D03*
%TD*%
D19*
%TO.C,C17*%
X74540000Y-125292500D03*
X74540000Y-123217500D03*
%TD*%
D39*
%TO.C,C28*%
X46750000Y-91962500D03*
X46750000Y-94037500D03*
%TD*%
D13*
%TO.C,R22*%
X61065553Y-100064696D03*
X61065553Y-102064696D03*
%TD*%
D10*
%TO.C,R2*%
X109523093Y-141596337D03*
X109523093Y-139596337D03*
%TD*%
D22*
%TO.C,D4*%
X64840000Y-119170000D03*
X64840000Y-121220000D03*
%TD*%
D45*
%TO.C,SW2*%
X98990000Y-100830000D03*
X85140000Y-98290000D03*
%TD*%
%TO.C,SW4*%
X118800000Y-100790000D03*
X104950000Y-98250000D03*
%TD*%
%TO.C,SW6*%
X79090000Y-100690000D03*
X65240000Y-98150000D03*
%TD*%
%TO.C,SW5*%
X99250000Y-121020000D03*
X85400000Y-118480000D03*
%TD*%
M02*
