%TF.GenerationSoftware,KiCad,Pcbnew,10.0.2*%
%TF.CreationDate,2026-05-26T19:34:44+07:00*%
%TF.ProjectId,caligula,63616c69-6775-46c6-912e-6b696361645f,0.01*%
%TF.SameCoordinates,Original*%
%TF.FileFunction,Legend,Top*%
%TF.FilePolarity,Positive*%
%FSLAX46Y46*%
G04 Gerber Fmt 4.6, Leading zero omitted, Abs format (unit mm)*
G04 Created by KiCad (PCBNEW 10.0.2) date 2026-05-26 19:34:44*
%MOMM*%
%LPD*%
G01*
G04 APERTURE LIST*
%ADD10C,1.000000*%
%ADD11C,0.150000*%
%ADD12C,0.120000*%
%ADD13C,0.250000*%
%ADD14C,0.060000*%
G04 APERTURE END LIST*
D10*
X127400000Y-43150000D02*
X43600000Y-43000000D01*
X127400000Y-43150000D02*
X127400000Y-151200000D01*
X43200000Y-151250000D02*
X43600000Y-43000000D01*
X72000000Y-151250000D02*
X43200000Y-151250000D01*
X72000000Y-151250000D02*
X76833040Y-145063990D01*
X96250000Y-145000000D02*
X77000000Y-145000000D01*
X96250000Y-145000000D02*
X101106251Y-151249999D01*
X127400000Y-151250000D02*
X101106251Y-151249999D01*
D11*
X47804819Y-93642857D02*
X47328628Y-93976190D01*
X47804819Y-94214285D02*
X46804819Y-94214285D01*
X46804819Y-94214285D02*
X46804819Y-93833333D01*
X46804819Y-93833333D02*
X46852438Y-93738095D01*
X46852438Y-93738095D02*
X46900057Y-93690476D01*
X46900057Y-93690476D02*
X46995295Y-93642857D01*
X46995295Y-93642857D02*
X47138152Y-93642857D01*
X47138152Y-93642857D02*
X47233390Y-93690476D01*
X47233390Y-93690476D02*
X47281009Y-93738095D01*
X47281009Y-93738095D02*
X47328628Y-93833333D01*
X47328628Y-93833333D02*
X47328628Y-94214285D01*
X46900057Y-93261904D02*
X46852438Y-93214285D01*
X46852438Y-93214285D02*
X46804819Y-93119047D01*
X46804819Y-93119047D02*
X46804819Y-92880952D01*
X46804819Y-92880952D02*
X46852438Y-92785714D01*
X46852438Y-92785714D02*
X46900057Y-92738095D01*
X46900057Y-92738095D02*
X46995295Y-92690476D01*
X46995295Y-92690476D02*
X47090533Y-92690476D01*
X47090533Y-92690476D02*
X47233390Y-92738095D01*
X47233390Y-92738095D02*
X47804819Y-93309523D01*
X47804819Y-93309523D02*
X47804819Y-92690476D01*
X47804819Y-92214285D02*
X47804819Y-92023809D01*
X47804819Y-92023809D02*
X47757200Y-91928571D01*
X47757200Y-91928571D02*
X47709580Y-91880952D01*
X47709580Y-91880952D02*
X47566723Y-91785714D01*
X47566723Y-91785714D02*
X47376247Y-91738095D01*
X47376247Y-91738095D02*
X46995295Y-91738095D01*
X46995295Y-91738095D02*
X46900057Y-91785714D01*
X46900057Y-91785714D02*
X46852438Y-91833333D01*
X46852438Y-91833333D02*
X46804819Y-91928571D01*
X46804819Y-91928571D02*
X46804819Y-92119047D01*
X46804819Y-92119047D02*
X46852438Y-92214285D01*
X46852438Y-92214285D02*
X46900057Y-92261904D01*
X46900057Y-92261904D02*
X46995295Y-92309523D01*
X46995295Y-92309523D02*
X47233390Y-92309523D01*
X47233390Y-92309523D02*
X47328628Y-92261904D01*
X47328628Y-92261904D02*
X47376247Y-92214285D01*
X47376247Y-92214285D02*
X47423866Y-92119047D01*
X47423866Y-92119047D02*
X47423866Y-91928571D01*
X47423866Y-91928571D02*
X47376247Y-91833333D01*
X47376247Y-91833333D02*
X47328628Y-91785714D01*
X47328628Y-91785714D02*
X47233390Y-91738095D01*
X48198347Y-98148812D02*
X47865014Y-97672621D01*
X47626919Y-98148812D02*
X47626919Y-97148812D01*
X47626919Y-97148812D02*
X48007871Y-97148812D01*
X48007871Y-97148812D02*
X48103109Y-97196431D01*
X48103109Y-97196431D02*
X48150728Y-97244050D01*
X48150728Y-97244050D02*
X48198347Y-97339288D01*
X48198347Y-97339288D02*
X48198347Y-97482145D01*
X48198347Y-97482145D02*
X48150728Y-97577383D01*
X48150728Y-97577383D02*
X48103109Y-97625002D01*
X48103109Y-97625002D02*
X48007871Y-97672621D01*
X48007871Y-97672621D02*
X47626919Y-97672621D01*
X48531681Y-97148812D02*
X49150728Y-97148812D01*
X49150728Y-97148812D02*
X48817395Y-97529764D01*
X48817395Y-97529764D02*
X48960252Y-97529764D01*
X48960252Y-97529764D02*
X49055490Y-97577383D01*
X49055490Y-97577383D02*
X49103109Y-97625002D01*
X49103109Y-97625002D02*
X49150728Y-97720240D01*
X49150728Y-97720240D02*
X49150728Y-97958335D01*
X49150728Y-97958335D02*
X49103109Y-98053573D01*
X49103109Y-98053573D02*
X49055490Y-98101193D01*
X49055490Y-98101193D02*
X48960252Y-98148812D01*
X48960252Y-98148812D02*
X48674538Y-98148812D01*
X48674538Y-98148812D02*
X48579300Y-98101193D01*
X48579300Y-98101193D02*
X48531681Y-98053573D01*
X50103109Y-98148812D02*
X49531681Y-98148812D01*
X49817395Y-98148812D02*
X49817395Y-97148812D01*
X49817395Y-97148812D02*
X49722157Y-97291669D01*
X49722157Y-97291669D02*
X49626919Y-97386907D01*
X49626919Y-97386907D02*
X49531681Y-97434526D01*
X55783333Y-91559580D02*
X55735714Y-91607200D01*
X55735714Y-91607200D02*
X55592857Y-91654819D01*
X55592857Y-91654819D02*
X55497619Y-91654819D01*
X55497619Y-91654819D02*
X55354762Y-91607200D01*
X55354762Y-91607200D02*
X55259524Y-91511961D01*
X55259524Y-91511961D02*
X55211905Y-91416723D01*
X55211905Y-91416723D02*
X55164286Y-91226247D01*
X55164286Y-91226247D02*
X55164286Y-91083390D01*
X55164286Y-91083390D02*
X55211905Y-90892914D01*
X55211905Y-90892914D02*
X55259524Y-90797676D01*
X55259524Y-90797676D02*
X55354762Y-90702438D01*
X55354762Y-90702438D02*
X55497619Y-90654819D01*
X55497619Y-90654819D02*
X55592857Y-90654819D01*
X55592857Y-90654819D02*
X55735714Y-90702438D01*
X55735714Y-90702438D02*
X55783333Y-90750057D01*
X56259524Y-91654819D02*
X56450000Y-91654819D01*
X56450000Y-91654819D02*
X56545238Y-91607200D01*
X56545238Y-91607200D02*
X56592857Y-91559580D01*
X56592857Y-91559580D02*
X56688095Y-91416723D01*
X56688095Y-91416723D02*
X56735714Y-91226247D01*
X56735714Y-91226247D02*
X56735714Y-90845295D01*
X56735714Y-90845295D02*
X56688095Y-90750057D01*
X56688095Y-90750057D02*
X56640476Y-90702438D01*
X56640476Y-90702438D02*
X56545238Y-90654819D01*
X56545238Y-90654819D02*
X56354762Y-90654819D01*
X56354762Y-90654819D02*
X56259524Y-90702438D01*
X56259524Y-90702438D02*
X56211905Y-90750057D01*
X56211905Y-90750057D02*
X56164286Y-90845295D01*
X56164286Y-90845295D02*
X56164286Y-91083390D01*
X56164286Y-91083390D02*
X56211905Y-91178628D01*
X56211905Y-91178628D02*
X56259524Y-91226247D01*
X56259524Y-91226247D02*
X56354762Y-91273866D01*
X56354762Y-91273866D02*
X56545238Y-91273866D01*
X56545238Y-91273866D02*
X56640476Y-91226247D01*
X56640476Y-91226247D02*
X56688095Y-91178628D01*
X56688095Y-91178628D02*
X56735714Y-91083390D01*
X64152550Y-92017299D02*
X63676359Y-92350632D01*
X64152550Y-92588727D02*
X63152550Y-92588727D01*
X63152550Y-92588727D02*
X63152550Y-92207775D01*
X63152550Y-92207775D02*
X63200169Y-92112537D01*
X63200169Y-92112537D02*
X63247788Y-92064918D01*
X63247788Y-92064918D02*
X63343026Y-92017299D01*
X63343026Y-92017299D02*
X63485883Y-92017299D01*
X63485883Y-92017299D02*
X63581121Y-92064918D01*
X63581121Y-92064918D02*
X63628740Y-92112537D01*
X63628740Y-92112537D02*
X63676359Y-92207775D01*
X63676359Y-92207775D02*
X63676359Y-92588727D01*
X63152550Y-91683965D02*
X63152550Y-91064918D01*
X63152550Y-91064918D02*
X63533502Y-91398251D01*
X63533502Y-91398251D02*
X63533502Y-91255394D01*
X63533502Y-91255394D02*
X63581121Y-91160156D01*
X63581121Y-91160156D02*
X63628740Y-91112537D01*
X63628740Y-91112537D02*
X63723978Y-91064918D01*
X63723978Y-91064918D02*
X63962073Y-91064918D01*
X63962073Y-91064918D02*
X64057311Y-91112537D01*
X64057311Y-91112537D02*
X64104931Y-91160156D01*
X64104931Y-91160156D02*
X64152550Y-91255394D01*
X64152550Y-91255394D02*
X64152550Y-91541108D01*
X64152550Y-91541108D02*
X64104931Y-91636346D01*
X64104931Y-91636346D02*
X64057311Y-91683965D01*
X63152550Y-90445870D02*
X63152550Y-90350632D01*
X63152550Y-90350632D02*
X63200169Y-90255394D01*
X63200169Y-90255394D02*
X63247788Y-90207775D01*
X63247788Y-90207775D02*
X63343026Y-90160156D01*
X63343026Y-90160156D02*
X63533502Y-90112537D01*
X63533502Y-90112537D02*
X63771597Y-90112537D01*
X63771597Y-90112537D02*
X63962073Y-90160156D01*
X63962073Y-90160156D02*
X64057311Y-90207775D01*
X64057311Y-90207775D02*
X64104931Y-90255394D01*
X64104931Y-90255394D02*
X64152550Y-90350632D01*
X64152550Y-90350632D02*
X64152550Y-90445870D01*
X64152550Y-90445870D02*
X64104931Y-90541108D01*
X64104931Y-90541108D02*
X64057311Y-90588727D01*
X64057311Y-90588727D02*
X63962073Y-90636346D01*
X63962073Y-90636346D02*
X63771597Y-90683965D01*
X63771597Y-90683965D02*
X63533502Y-90683965D01*
X63533502Y-90683965D02*
X63343026Y-90636346D01*
X63343026Y-90636346D02*
X63247788Y-90588727D01*
X63247788Y-90588727D02*
X63200169Y-90541108D01*
X63200169Y-90541108D02*
X63152550Y-90445870D01*
X53104819Y-93642857D02*
X52628628Y-93976190D01*
X53104819Y-94214285D02*
X52104819Y-94214285D01*
X52104819Y-94214285D02*
X52104819Y-93833333D01*
X52104819Y-93833333D02*
X52152438Y-93738095D01*
X52152438Y-93738095D02*
X52200057Y-93690476D01*
X52200057Y-93690476D02*
X52295295Y-93642857D01*
X52295295Y-93642857D02*
X52438152Y-93642857D01*
X52438152Y-93642857D02*
X52533390Y-93690476D01*
X52533390Y-93690476D02*
X52581009Y-93738095D01*
X52581009Y-93738095D02*
X52628628Y-93833333D01*
X52628628Y-93833333D02*
X52628628Y-94214285D01*
X52104819Y-93309523D02*
X52104819Y-92690476D01*
X52104819Y-92690476D02*
X52485771Y-93023809D01*
X52485771Y-93023809D02*
X52485771Y-92880952D01*
X52485771Y-92880952D02*
X52533390Y-92785714D01*
X52533390Y-92785714D02*
X52581009Y-92738095D01*
X52581009Y-92738095D02*
X52676247Y-92690476D01*
X52676247Y-92690476D02*
X52914342Y-92690476D01*
X52914342Y-92690476D02*
X53009580Y-92738095D01*
X53009580Y-92738095D02*
X53057200Y-92785714D01*
X53057200Y-92785714D02*
X53104819Y-92880952D01*
X53104819Y-92880952D02*
X53104819Y-93166666D01*
X53104819Y-93166666D02*
X53057200Y-93261904D01*
X53057200Y-93261904D02*
X53009580Y-93309523D01*
X52200057Y-92309523D02*
X52152438Y-92261904D01*
X52152438Y-92261904D02*
X52104819Y-92166666D01*
X52104819Y-92166666D02*
X52104819Y-91928571D01*
X52104819Y-91928571D02*
X52152438Y-91833333D01*
X52152438Y-91833333D02*
X52200057Y-91785714D01*
X52200057Y-91785714D02*
X52295295Y-91738095D01*
X52295295Y-91738095D02*
X52390533Y-91738095D01*
X52390533Y-91738095D02*
X52533390Y-91785714D01*
X52533390Y-91785714D02*
X53104819Y-92357142D01*
X53104819Y-92357142D02*
X53104819Y-91738095D01*
X66354819Y-92042857D02*
X65878628Y-92376190D01*
X66354819Y-92614285D02*
X65354819Y-92614285D01*
X65354819Y-92614285D02*
X65354819Y-92233333D01*
X65354819Y-92233333D02*
X65402438Y-92138095D01*
X65402438Y-92138095D02*
X65450057Y-92090476D01*
X65450057Y-92090476D02*
X65545295Y-92042857D01*
X65545295Y-92042857D02*
X65688152Y-92042857D01*
X65688152Y-92042857D02*
X65783390Y-92090476D01*
X65783390Y-92090476D02*
X65831009Y-92138095D01*
X65831009Y-92138095D02*
X65878628Y-92233333D01*
X65878628Y-92233333D02*
X65878628Y-92614285D01*
X65354819Y-91709523D02*
X65354819Y-91090476D01*
X65354819Y-91090476D02*
X65735771Y-91423809D01*
X65735771Y-91423809D02*
X65735771Y-91280952D01*
X65735771Y-91280952D02*
X65783390Y-91185714D01*
X65783390Y-91185714D02*
X65831009Y-91138095D01*
X65831009Y-91138095D02*
X65926247Y-91090476D01*
X65926247Y-91090476D02*
X66164342Y-91090476D01*
X66164342Y-91090476D02*
X66259580Y-91138095D01*
X66259580Y-91138095D02*
X66307200Y-91185714D01*
X66307200Y-91185714D02*
X66354819Y-91280952D01*
X66354819Y-91280952D02*
X66354819Y-91566666D01*
X66354819Y-91566666D02*
X66307200Y-91661904D01*
X66307200Y-91661904D02*
X66259580Y-91709523D01*
X65354819Y-90757142D02*
X65354819Y-90138095D01*
X65354819Y-90138095D02*
X65735771Y-90471428D01*
X65735771Y-90471428D02*
X65735771Y-90328571D01*
X65735771Y-90328571D02*
X65783390Y-90233333D01*
X65783390Y-90233333D02*
X65831009Y-90185714D01*
X65831009Y-90185714D02*
X65926247Y-90138095D01*
X65926247Y-90138095D02*
X66164342Y-90138095D01*
X66164342Y-90138095D02*
X66259580Y-90185714D01*
X66259580Y-90185714D02*
X66307200Y-90233333D01*
X66307200Y-90233333D02*
X66354819Y-90328571D01*
X66354819Y-90328571D02*
X66354819Y-90614285D01*
X66354819Y-90614285D02*
X66307200Y-90709523D01*
X66307200Y-90709523D02*
X66259580Y-90757142D01*
X55713095Y-89959819D02*
X55713095Y-90769342D01*
X55713095Y-90769342D02*
X55760714Y-90864580D01*
X55760714Y-90864580D02*
X55808333Y-90912200D01*
X55808333Y-90912200D02*
X55903571Y-90959819D01*
X55903571Y-90959819D02*
X56094047Y-90959819D01*
X56094047Y-90959819D02*
X56189285Y-90912200D01*
X56189285Y-90912200D02*
X56236904Y-90864580D01*
X56236904Y-90864580D02*
X56284523Y-90769342D01*
X56284523Y-90769342D02*
X56284523Y-89959819D01*
X56903571Y-90388390D02*
X56808333Y-90340771D01*
X56808333Y-90340771D02*
X56760714Y-90293152D01*
X56760714Y-90293152D02*
X56713095Y-90197914D01*
X56713095Y-90197914D02*
X56713095Y-90150295D01*
X56713095Y-90150295D02*
X56760714Y-90055057D01*
X56760714Y-90055057D02*
X56808333Y-90007438D01*
X56808333Y-90007438D02*
X56903571Y-89959819D01*
X56903571Y-89959819D02*
X57094047Y-89959819D01*
X57094047Y-89959819D02*
X57189285Y-90007438D01*
X57189285Y-90007438D02*
X57236904Y-90055057D01*
X57236904Y-90055057D02*
X57284523Y-90150295D01*
X57284523Y-90150295D02*
X57284523Y-90197914D01*
X57284523Y-90197914D02*
X57236904Y-90293152D01*
X57236904Y-90293152D02*
X57189285Y-90340771D01*
X57189285Y-90340771D02*
X57094047Y-90388390D01*
X57094047Y-90388390D02*
X56903571Y-90388390D01*
X56903571Y-90388390D02*
X56808333Y-90436009D01*
X56808333Y-90436009D02*
X56760714Y-90483628D01*
X56760714Y-90483628D02*
X56713095Y-90578866D01*
X56713095Y-90578866D02*
X56713095Y-90769342D01*
X56713095Y-90769342D02*
X56760714Y-90864580D01*
X56760714Y-90864580D02*
X56808333Y-90912200D01*
X56808333Y-90912200D02*
X56903571Y-90959819D01*
X56903571Y-90959819D02*
X57094047Y-90959819D01*
X57094047Y-90959819D02*
X57189285Y-90912200D01*
X57189285Y-90912200D02*
X57236904Y-90864580D01*
X57236904Y-90864580D02*
X57284523Y-90769342D01*
X57284523Y-90769342D02*
X57284523Y-90578866D01*
X57284523Y-90578866D02*
X57236904Y-90483628D01*
X57236904Y-90483628D02*
X57189285Y-90436009D01*
X57189285Y-90436009D02*
X57094047Y-90388390D01*
X61170372Y-101707553D02*
X60694181Y-102040886D01*
X61170372Y-102278981D02*
X60170372Y-102278981D01*
X60170372Y-102278981D02*
X60170372Y-101898029D01*
X60170372Y-101898029D02*
X60217991Y-101802791D01*
X60217991Y-101802791D02*
X60265610Y-101755172D01*
X60265610Y-101755172D02*
X60360848Y-101707553D01*
X60360848Y-101707553D02*
X60503705Y-101707553D01*
X60503705Y-101707553D02*
X60598943Y-101755172D01*
X60598943Y-101755172D02*
X60646562Y-101802791D01*
X60646562Y-101802791D02*
X60694181Y-101898029D01*
X60694181Y-101898029D02*
X60694181Y-102278981D01*
X61170372Y-100755172D02*
X61170372Y-101326600D01*
X61170372Y-101040886D02*
X60170372Y-101040886D01*
X60170372Y-101040886D02*
X60313229Y-101136124D01*
X60313229Y-101136124D02*
X60408467Y-101231362D01*
X60408467Y-101231362D02*
X60456086Y-101326600D01*
X61170372Y-100278981D02*
X61170372Y-100088505D01*
X61170372Y-100088505D02*
X61122753Y-99993267D01*
X61122753Y-99993267D02*
X61075133Y-99945648D01*
X61075133Y-99945648D02*
X60932276Y-99850410D01*
X60932276Y-99850410D02*
X60741800Y-99802791D01*
X60741800Y-99802791D02*
X60360848Y-99802791D01*
X60360848Y-99802791D02*
X60265610Y-99850410D01*
X60265610Y-99850410D02*
X60217991Y-99898029D01*
X60217991Y-99898029D02*
X60170372Y-99993267D01*
X60170372Y-99993267D02*
X60170372Y-100183743D01*
X60170372Y-100183743D02*
X60217991Y-100278981D01*
X60217991Y-100278981D02*
X60265610Y-100326600D01*
X60265610Y-100326600D02*
X60360848Y-100374219D01*
X60360848Y-100374219D02*
X60598943Y-100374219D01*
X60598943Y-100374219D02*
X60694181Y-100326600D01*
X60694181Y-100326600D02*
X60741800Y-100278981D01*
X60741800Y-100278981D02*
X60789419Y-100183743D01*
X60789419Y-100183743D02*
X60789419Y-99993267D01*
X60789419Y-99993267D02*
X60741800Y-99898029D01*
X60741800Y-99898029D02*
X60694181Y-99850410D01*
X60694181Y-99850410D02*
X60598943Y-99802791D01*
X99378095Y-71274819D02*
X99378095Y-72084342D01*
X99378095Y-72084342D02*
X99425714Y-72179580D01*
X99425714Y-72179580D02*
X99473333Y-72227200D01*
X99473333Y-72227200D02*
X99568571Y-72274819D01*
X99568571Y-72274819D02*
X99759047Y-72274819D01*
X99759047Y-72274819D02*
X99854285Y-72227200D01*
X99854285Y-72227200D02*
X99901904Y-72179580D01*
X99901904Y-72179580D02*
X99949523Y-72084342D01*
X99949523Y-72084342D02*
X99949523Y-71274819D01*
X100330476Y-71274819D02*
X100997142Y-71274819D01*
X100997142Y-71274819D02*
X100568571Y-72274819D01*
X115897200Y-134304669D02*
X115944819Y-134161812D01*
X115944819Y-134161812D02*
X115944819Y-133923717D01*
X115944819Y-133923717D02*
X115897200Y-133828479D01*
X115897200Y-133828479D02*
X115849580Y-133780860D01*
X115849580Y-133780860D02*
X115754342Y-133733241D01*
X115754342Y-133733241D02*
X115659104Y-133733241D01*
X115659104Y-133733241D02*
X115563866Y-133780860D01*
X115563866Y-133780860D02*
X115516247Y-133828479D01*
X115516247Y-133828479D02*
X115468628Y-133923717D01*
X115468628Y-133923717D02*
X115421009Y-134114193D01*
X115421009Y-134114193D02*
X115373390Y-134209431D01*
X115373390Y-134209431D02*
X115325771Y-134257050D01*
X115325771Y-134257050D02*
X115230533Y-134304669D01*
X115230533Y-134304669D02*
X115135295Y-134304669D01*
X115135295Y-134304669D02*
X115040057Y-134257050D01*
X115040057Y-134257050D02*
X114992438Y-134209431D01*
X114992438Y-134209431D02*
X114944819Y-134114193D01*
X114944819Y-134114193D02*
X114944819Y-133876098D01*
X114944819Y-133876098D02*
X114992438Y-133733241D01*
X114944819Y-133399907D02*
X115944819Y-133161812D01*
X115944819Y-133161812D02*
X115230533Y-132971336D01*
X115230533Y-132971336D02*
X115944819Y-132780860D01*
X115944819Y-132780860D02*
X114944819Y-132542765D01*
X114944819Y-132257050D02*
X114944819Y-131638003D01*
X114944819Y-131638003D02*
X115325771Y-131971336D01*
X115325771Y-131971336D02*
X115325771Y-131828479D01*
X115325771Y-131828479D02*
X115373390Y-131733241D01*
X115373390Y-131733241D02*
X115421009Y-131685622D01*
X115421009Y-131685622D02*
X115516247Y-131638003D01*
X115516247Y-131638003D02*
X115754342Y-131638003D01*
X115754342Y-131638003D02*
X115849580Y-131685622D01*
X115849580Y-131685622D02*
X115897200Y-131733241D01*
X115897200Y-131733241D02*
X115944819Y-131828479D01*
X115944819Y-131828479D02*
X115944819Y-132114193D01*
X115944819Y-132114193D02*
X115897200Y-132209431D01*
X115897200Y-132209431D02*
X115849580Y-132257050D01*
X53653095Y-122534819D02*
X53653095Y-123344342D01*
X53653095Y-123344342D02*
X53700714Y-123439580D01*
X53700714Y-123439580D02*
X53748333Y-123487200D01*
X53748333Y-123487200D02*
X53843571Y-123534819D01*
X53843571Y-123534819D02*
X54034047Y-123534819D01*
X54034047Y-123534819D02*
X54129285Y-123487200D01*
X54129285Y-123487200D02*
X54176904Y-123439580D01*
X54176904Y-123439580D02*
X54224523Y-123344342D01*
X54224523Y-123344342D02*
X54224523Y-122534819D01*
X55129285Y-122868152D02*
X55129285Y-123534819D01*
X54891190Y-122487200D02*
X54653095Y-123201485D01*
X54653095Y-123201485D02*
X55272142Y-123201485D01*
X70224580Y-142662857D02*
X70272200Y-142710476D01*
X70272200Y-142710476D02*
X70319819Y-142853333D01*
X70319819Y-142853333D02*
X70319819Y-142948571D01*
X70319819Y-142948571D02*
X70272200Y-143091428D01*
X70272200Y-143091428D02*
X70176961Y-143186666D01*
X70176961Y-143186666D02*
X70081723Y-143234285D01*
X70081723Y-143234285D02*
X69891247Y-143281904D01*
X69891247Y-143281904D02*
X69748390Y-143281904D01*
X69748390Y-143281904D02*
X69557914Y-143234285D01*
X69557914Y-143234285D02*
X69462676Y-143186666D01*
X69462676Y-143186666D02*
X69367438Y-143091428D01*
X69367438Y-143091428D02*
X69319819Y-142948571D01*
X69319819Y-142948571D02*
X69319819Y-142853333D01*
X69319819Y-142853333D02*
X69367438Y-142710476D01*
X69367438Y-142710476D02*
X69415057Y-142662857D01*
X70319819Y-141710476D02*
X70319819Y-142281904D01*
X70319819Y-141996190D02*
X69319819Y-141996190D01*
X69319819Y-141996190D02*
X69462676Y-142091428D01*
X69462676Y-142091428D02*
X69557914Y-142186666D01*
X69557914Y-142186666D02*
X69605533Y-142281904D01*
X69319819Y-141091428D02*
X69319819Y-140996190D01*
X69319819Y-140996190D02*
X69367438Y-140900952D01*
X69367438Y-140900952D02*
X69415057Y-140853333D01*
X69415057Y-140853333D02*
X69510295Y-140805714D01*
X69510295Y-140805714D02*
X69700771Y-140758095D01*
X69700771Y-140758095D02*
X69938866Y-140758095D01*
X69938866Y-140758095D02*
X70129342Y-140805714D01*
X70129342Y-140805714D02*
X70224580Y-140853333D01*
X70224580Y-140853333D02*
X70272200Y-140900952D01*
X70272200Y-140900952D02*
X70319819Y-140996190D01*
X70319819Y-140996190D02*
X70319819Y-141091428D01*
X70319819Y-141091428D02*
X70272200Y-141186666D01*
X70272200Y-141186666D02*
X70224580Y-141234285D01*
X70224580Y-141234285D02*
X70129342Y-141281904D01*
X70129342Y-141281904D02*
X69938866Y-141329523D01*
X69938866Y-141329523D02*
X69700771Y-141329523D01*
X69700771Y-141329523D02*
X69510295Y-141281904D01*
X69510295Y-141281904D02*
X69415057Y-141234285D01*
X69415057Y-141234285D02*
X69367438Y-141186666D01*
X69367438Y-141186666D02*
X69319819Y-141091428D01*
X52416667Y-134807200D02*
X52559524Y-134854819D01*
X52559524Y-134854819D02*
X52797619Y-134854819D01*
X52797619Y-134854819D02*
X52892857Y-134807200D01*
X52892857Y-134807200D02*
X52940476Y-134759580D01*
X52940476Y-134759580D02*
X52988095Y-134664342D01*
X52988095Y-134664342D02*
X52988095Y-134569104D01*
X52988095Y-134569104D02*
X52940476Y-134473866D01*
X52940476Y-134473866D02*
X52892857Y-134426247D01*
X52892857Y-134426247D02*
X52797619Y-134378628D01*
X52797619Y-134378628D02*
X52607143Y-134331009D01*
X52607143Y-134331009D02*
X52511905Y-134283390D01*
X52511905Y-134283390D02*
X52464286Y-134235771D01*
X52464286Y-134235771D02*
X52416667Y-134140533D01*
X52416667Y-134140533D02*
X52416667Y-134045295D01*
X52416667Y-134045295D02*
X52464286Y-133950057D01*
X52464286Y-133950057D02*
X52511905Y-133902438D01*
X52511905Y-133902438D02*
X52607143Y-133854819D01*
X52607143Y-133854819D02*
X52845238Y-133854819D01*
X52845238Y-133854819D02*
X52988095Y-133902438D01*
X53321429Y-133854819D02*
X53559524Y-134854819D01*
X53559524Y-134854819D02*
X53750000Y-134140533D01*
X53750000Y-134140533D02*
X53940476Y-134854819D01*
X53940476Y-134854819D02*
X54178572Y-133854819D01*
X54464286Y-133854819D02*
X55130952Y-133854819D01*
X55130952Y-133854819D02*
X54702381Y-134854819D01*
X105373333Y-62774819D02*
X105040000Y-62298628D01*
X104801905Y-62774819D02*
X104801905Y-61774819D01*
X104801905Y-61774819D02*
X105182857Y-61774819D01*
X105182857Y-61774819D02*
X105278095Y-61822438D01*
X105278095Y-61822438D02*
X105325714Y-61870057D01*
X105325714Y-61870057D02*
X105373333Y-61965295D01*
X105373333Y-61965295D02*
X105373333Y-62108152D01*
X105373333Y-62108152D02*
X105325714Y-62203390D01*
X105325714Y-62203390D02*
X105278095Y-62251009D01*
X105278095Y-62251009D02*
X105182857Y-62298628D01*
X105182857Y-62298628D02*
X104801905Y-62298628D01*
X106230476Y-61774819D02*
X106040000Y-61774819D01*
X106040000Y-61774819D02*
X105944762Y-61822438D01*
X105944762Y-61822438D02*
X105897143Y-61870057D01*
X105897143Y-61870057D02*
X105801905Y-62012914D01*
X105801905Y-62012914D02*
X105754286Y-62203390D01*
X105754286Y-62203390D02*
X105754286Y-62584342D01*
X105754286Y-62584342D02*
X105801905Y-62679580D01*
X105801905Y-62679580D02*
X105849524Y-62727200D01*
X105849524Y-62727200D02*
X105944762Y-62774819D01*
X105944762Y-62774819D02*
X106135238Y-62774819D01*
X106135238Y-62774819D02*
X106230476Y-62727200D01*
X106230476Y-62727200D02*
X106278095Y-62679580D01*
X106278095Y-62679580D02*
X106325714Y-62584342D01*
X106325714Y-62584342D02*
X106325714Y-62346247D01*
X106325714Y-62346247D02*
X106278095Y-62251009D01*
X106278095Y-62251009D02*
X106230476Y-62203390D01*
X106230476Y-62203390D02*
X106135238Y-62155771D01*
X106135238Y-62155771D02*
X105944762Y-62155771D01*
X105944762Y-62155771D02*
X105849524Y-62203390D01*
X105849524Y-62203390D02*
X105801905Y-62251009D01*
X105801905Y-62251009D02*
X105754286Y-62346247D01*
X64814819Y-120885594D02*
X63814819Y-120885594D01*
X63814819Y-120885594D02*
X63814819Y-120647499D01*
X63814819Y-120647499D02*
X63862438Y-120504642D01*
X63862438Y-120504642D02*
X63957676Y-120409404D01*
X63957676Y-120409404D02*
X64052914Y-120361785D01*
X64052914Y-120361785D02*
X64243390Y-120314166D01*
X64243390Y-120314166D02*
X64386247Y-120314166D01*
X64386247Y-120314166D02*
X64576723Y-120361785D01*
X64576723Y-120361785D02*
X64671961Y-120409404D01*
X64671961Y-120409404D02*
X64767200Y-120504642D01*
X64767200Y-120504642D02*
X64814819Y-120647499D01*
X64814819Y-120647499D02*
X64814819Y-120885594D01*
X63814819Y-119980832D02*
X63814819Y-119361785D01*
X63814819Y-119361785D02*
X64195771Y-119695118D01*
X64195771Y-119695118D02*
X64195771Y-119552261D01*
X64195771Y-119552261D02*
X64243390Y-119457023D01*
X64243390Y-119457023D02*
X64291009Y-119409404D01*
X64291009Y-119409404D02*
X64386247Y-119361785D01*
X64386247Y-119361785D02*
X64624342Y-119361785D01*
X64624342Y-119361785D02*
X64719580Y-119409404D01*
X64719580Y-119409404D02*
X64767200Y-119457023D01*
X64767200Y-119457023D02*
X64814819Y-119552261D01*
X64814819Y-119552261D02*
X64814819Y-119837975D01*
X64814819Y-119837975D02*
X64767200Y-119933213D01*
X64767200Y-119933213D02*
X64719580Y-119980832D01*
X59665595Y-109519819D02*
X59665595Y-110329342D01*
X59665595Y-110329342D02*
X59713214Y-110424580D01*
X59713214Y-110424580D02*
X59760833Y-110472200D01*
X59760833Y-110472200D02*
X59856071Y-110519819D01*
X59856071Y-110519819D02*
X60046547Y-110519819D01*
X60046547Y-110519819D02*
X60141785Y-110472200D01*
X60141785Y-110472200D02*
X60189404Y-110424580D01*
X60189404Y-110424580D02*
X60237023Y-110329342D01*
X60237023Y-110329342D02*
X60237023Y-109519819D01*
X61189404Y-109519819D02*
X60713214Y-109519819D01*
X60713214Y-109519819D02*
X60665595Y-109996009D01*
X60665595Y-109996009D02*
X60713214Y-109948390D01*
X60713214Y-109948390D02*
X60808452Y-109900771D01*
X60808452Y-109900771D02*
X61046547Y-109900771D01*
X61046547Y-109900771D02*
X61141785Y-109948390D01*
X61141785Y-109948390D02*
X61189404Y-109996009D01*
X61189404Y-109996009D02*
X61237023Y-110091247D01*
X61237023Y-110091247D02*
X61237023Y-110329342D01*
X61237023Y-110329342D02*
X61189404Y-110424580D01*
X61189404Y-110424580D02*
X61141785Y-110472200D01*
X61141785Y-110472200D02*
X61046547Y-110519819D01*
X61046547Y-110519819D02*
X60808452Y-110519819D01*
X60808452Y-110519819D02*
X60713214Y-110472200D01*
X60713214Y-110472200D02*
X60665595Y-110424580D01*
X52303648Y-100569515D02*
X52303648Y-101379038D01*
X52303648Y-101379038D02*
X52351267Y-101474276D01*
X52351267Y-101474276D02*
X52398886Y-101521896D01*
X52398886Y-101521896D02*
X52494124Y-101569515D01*
X52494124Y-101569515D02*
X52684600Y-101569515D01*
X52684600Y-101569515D02*
X52779838Y-101521896D01*
X52779838Y-101521896D02*
X52827457Y-101474276D01*
X52827457Y-101474276D02*
X52875076Y-101379038D01*
X52875076Y-101379038D02*
X52875076Y-100569515D01*
X53779838Y-100569515D02*
X53589362Y-100569515D01*
X53589362Y-100569515D02*
X53494124Y-100617134D01*
X53494124Y-100617134D02*
X53446505Y-100664753D01*
X53446505Y-100664753D02*
X53351267Y-100807610D01*
X53351267Y-100807610D02*
X53303648Y-100998086D01*
X53303648Y-100998086D02*
X53303648Y-101379038D01*
X53303648Y-101379038D02*
X53351267Y-101474276D01*
X53351267Y-101474276D02*
X53398886Y-101521896D01*
X53398886Y-101521896D02*
X53494124Y-101569515D01*
X53494124Y-101569515D02*
X53684600Y-101569515D01*
X53684600Y-101569515D02*
X53779838Y-101521896D01*
X53779838Y-101521896D02*
X53827457Y-101474276D01*
X53827457Y-101474276D02*
X53875076Y-101379038D01*
X53875076Y-101379038D02*
X53875076Y-101140943D01*
X53875076Y-101140943D02*
X53827457Y-101045705D01*
X53827457Y-101045705D02*
X53779838Y-100998086D01*
X53779838Y-100998086D02*
X53684600Y-100950467D01*
X53684600Y-100950467D02*
X53494124Y-100950467D01*
X53494124Y-100950467D02*
X53398886Y-100998086D01*
X53398886Y-100998086D02*
X53351267Y-101045705D01*
X53351267Y-101045705D02*
X53303648Y-101140943D01*
X115899819Y-124882857D02*
X115423628Y-125216190D01*
X115899819Y-125454285D02*
X114899819Y-125454285D01*
X114899819Y-125454285D02*
X114899819Y-125073333D01*
X114899819Y-125073333D02*
X114947438Y-124978095D01*
X114947438Y-124978095D02*
X114995057Y-124930476D01*
X114995057Y-124930476D02*
X115090295Y-124882857D01*
X115090295Y-124882857D02*
X115233152Y-124882857D01*
X115233152Y-124882857D02*
X115328390Y-124930476D01*
X115328390Y-124930476D02*
X115376009Y-124978095D01*
X115376009Y-124978095D02*
X115423628Y-125073333D01*
X115423628Y-125073333D02*
X115423628Y-125454285D01*
X114995057Y-124501904D02*
X114947438Y-124454285D01*
X114947438Y-124454285D02*
X114899819Y-124359047D01*
X114899819Y-124359047D02*
X114899819Y-124120952D01*
X114899819Y-124120952D02*
X114947438Y-124025714D01*
X114947438Y-124025714D02*
X114995057Y-123978095D01*
X114995057Y-123978095D02*
X115090295Y-123930476D01*
X115090295Y-123930476D02*
X115185533Y-123930476D01*
X115185533Y-123930476D02*
X115328390Y-123978095D01*
X115328390Y-123978095D02*
X115899819Y-124549523D01*
X115899819Y-124549523D02*
X115899819Y-123930476D01*
X114899819Y-123025714D02*
X114899819Y-123501904D01*
X114899819Y-123501904D02*
X115376009Y-123549523D01*
X115376009Y-123549523D02*
X115328390Y-123501904D01*
X115328390Y-123501904D02*
X115280771Y-123406666D01*
X115280771Y-123406666D02*
X115280771Y-123168571D01*
X115280771Y-123168571D02*
X115328390Y-123073333D01*
X115328390Y-123073333D02*
X115376009Y-123025714D01*
X115376009Y-123025714D02*
X115471247Y-122978095D01*
X115471247Y-122978095D02*
X115709342Y-122978095D01*
X115709342Y-122978095D02*
X115804580Y-123025714D01*
X115804580Y-123025714D02*
X115852200Y-123073333D01*
X115852200Y-123073333D02*
X115899819Y-123168571D01*
X115899819Y-123168571D02*
X115899819Y-123406666D01*
X115899819Y-123406666D02*
X115852200Y-123501904D01*
X115852200Y-123501904D02*
X115804580Y-123549523D01*
X71394819Y-114203333D02*
X72109104Y-114203333D01*
X72109104Y-114203333D02*
X72251961Y-114250952D01*
X72251961Y-114250952D02*
X72347200Y-114346190D01*
X72347200Y-114346190D02*
X72394819Y-114489047D01*
X72394819Y-114489047D02*
X72394819Y-114584285D01*
X72394819Y-113727142D02*
X71394819Y-113727142D01*
X71394819Y-113727142D02*
X71394819Y-113346190D01*
X71394819Y-113346190D02*
X71442438Y-113250952D01*
X71442438Y-113250952D02*
X71490057Y-113203333D01*
X71490057Y-113203333D02*
X71585295Y-113155714D01*
X71585295Y-113155714D02*
X71728152Y-113155714D01*
X71728152Y-113155714D02*
X71823390Y-113203333D01*
X71823390Y-113203333D02*
X71871009Y-113250952D01*
X71871009Y-113250952D02*
X71918628Y-113346190D01*
X71918628Y-113346190D02*
X71918628Y-113727142D01*
X72394819Y-112203333D02*
X72394819Y-112774761D01*
X72394819Y-112489047D02*
X71394819Y-112489047D01*
X71394819Y-112489047D02*
X71537676Y-112584285D01*
X71537676Y-112584285D02*
X71632914Y-112679523D01*
X71632914Y-112679523D02*
X71680533Y-112774761D01*
X58797142Y-117974580D02*
X58749523Y-118022200D01*
X58749523Y-118022200D02*
X58606666Y-118069819D01*
X58606666Y-118069819D02*
X58511428Y-118069819D01*
X58511428Y-118069819D02*
X58368571Y-118022200D01*
X58368571Y-118022200D02*
X58273333Y-117926961D01*
X58273333Y-117926961D02*
X58225714Y-117831723D01*
X58225714Y-117831723D02*
X58178095Y-117641247D01*
X58178095Y-117641247D02*
X58178095Y-117498390D01*
X58178095Y-117498390D02*
X58225714Y-117307914D01*
X58225714Y-117307914D02*
X58273333Y-117212676D01*
X58273333Y-117212676D02*
X58368571Y-117117438D01*
X58368571Y-117117438D02*
X58511428Y-117069819D01*
X58511428Y-117069819D02*
X58606666Y-117069819D01*
X58606666Y-117069819D02*
X58749523Y-117117438D01*
X58749523Y-117117438D02*
X58797142Y-117165057D01*
X59178095Y-117165057D02*
X59225714Y-117117438D01*
X59225714Y-117117438D02*
X59320952Y-117069819D01*
X59320952Y-117069819D02*
X59559047Y-117069819D01*
X59559047Y-117069819D02*
X59654285Y-117117438D01*
X59654285Y-117117438D02*
X59701904Y-117165057D01*
X59701904Y-117165057D02*
X59749523Y-117260295D01*
X59749523Y-117260295D02*
X59749523Y-117355533D01*
X59749523Y-117355533D02*
X59701904Y-117498390D01*
X59701904Y-117498390D02*
X59130476Y-118069819D01*
X59130476Y-118069819D02*
X59749523Y-118069819D01*
X60130476Y-117165057D02*
X60178095Y-117117438D01*
X60178095Y-117117438D02*
X60273333Y-117069819D01*
X60273333Y-117069819D02*
X60511428Y-117069819D01*
X60511428Y-117069819D02*
X60606666Y-117117438D01*
X60606666Y-117117438D02*
X60654285Y-117165057D01*
X60654285Y-117165057D02*
X60701904Y-117260295D01*
X60701904Y-117260295D02*
X60701904Y-117355533D01*
X60701904Y-117355533D02*
X60654285Y-117498390D01*
X60654285Y-117498390D02*
X60082857Y-118069819D01*
X60082857Y-118069819D02*
X60701904Y-118069819D01*
X70969580Y-124887857D02*
X71017200Y-124935476D01*
X71017200Y-124935476D02*
X71064819Y-125078333D01*
X71064819Y-125078333D02*
X71064819Y-125173571D01*
X71064819Y-125173571D02*
X71017200Y-125316428D01*
X71017200Y-125316428D02*
X70921961Y-125411666D01*
X70921961Y-125411666D02*
X70826723Y-125459285D01*
X70826723Y-125459285D02*
X70636247Y-125506904D01*
X70636247Y-125506904D02*
X70493390Y-125506904D01*
X70493390Y-125506904D02*
X70302914Y-125459285D01*
X70302914Y-125459285D02*
X70207676Y-125411666D01*
X70207676Y-125411666D02*
X70112438Y-125316428D01*
X70112438Y-125316428D02*
X70064819Y-125173571D01*
X70064819Y-125173571D02*
X70064819Y-125078333D01*
X70064819Y-125078333D02*
X70112438Y-124935476D01*
X70112438Y-124935476D02*
X70160057Y-124887857D01*
X71064819Y-123935476D02*
X71064819Y-124506904D01*
X71064819Y-124221190D02*
X70064819Y-124221190D01*
X70064819Y-124221190D02*
X70207676Y-124316428D01*
X70207676Y-124316428D02*
X70302914Y-124411666D01*
X70302914Y-124411666D02*
X70350533Y-124506904D01*
X70064819Y-123078333D02*
X70064819Y-123268809D01*
X70064819Y-123268809D02*
X70112438Y-123364047D01*
X70112438Y-123364047D02*
X70160057Y-123411666D01*
X70160057Y-123411666D02*
X70302914Y-123506904D01*
X70302914Y-123506904D02*
X70493390Y-123554523D01*
X70493390Y-123554523D02*
X70874342Y-123554523D01*
X70874342Y-123554523D02*
X70969580Y-123506904D01*
X70969580Y-123506904D02*
X71017200Y-123459285D01*
X71017200Y-123459285D02*
X71064819Y-123364047D01*
X71064819Y-123364047D02*
X71064819Y-123173571D01*
X71064819Y-123173571D02*
X71017200Y-123078333D01*
X71017200Y-123078333D02*
X70969580Y-123030714D01*
X70969580Y-123030714D02*
X70874342Y-122983095D01*
X70874342Y-122983095D02*
X70636247Y-122983095D01*
X70636247Y-122983095D02*
X70541009Y-123030714D01*
X70541009Y-123030714D02*
X70493390Y-123078333D01*
X70493390Y-123078333D02*
X70445771Y-123173571D01*
X70445771Y-123173571D02*
X70445771Y-123364047D01*
X70445771Y-123364047D02*
X70493390Y-123459285D01*
X70493390Y-123459285D02*
X70541009Y-123506904D01*
X70541009Y-123506904D02*
X70636247Y-123554523D01*
X95994819Y-76262857D02*
X95518628Y-76596190D01*
X95994819Y-76834285D02*
X94994819Y-76834285D01*
X94994819Y-76834285D02*
X94994819Y-76453333D01*
X94994819Y-76453333D02*
X95042438Y-76358095D01*
X95042438Y-76358095D02*
X95090057Y-76310476D01*
X95090057Y-76310476D02*
X95185295Y-76262857D01*
X95185295Y-76262857D02*
X95328152Y-76262857D01*
X95328152Y-76262857D02*
X95423390Y-76310476D01*
X95423390Y-76310476D02*
X95471009Y-76358095D01*
X95471009Y-76358095D02*
X95518628Y-76453333D01*
X95518628Y-76453333D02*
X95518628Y-76834285D01*
X95328152Y-75405714D02*
X95994819Y-75405714D01*
X94947200Y-75643809D02*
X95661485Y-75881904D01*
X95661485Y-75881904D02*
X95661485Y-75262857D01*
X94994819Y-74691428D02*
X94994819Y-74596190D01*
X94994819Y-74596190D02*
X95042438Y-74500952D01*
X95042438Y-74500952D02*
X95090057Y-74453333D01*
X95090057Y-74453333D02*
X95185295Y-74405714D01*
X95185295Y-74405714D02*
X95375771Y-74358095D01*
X95375771Y-74358095D02*
X95613866Y-74358095D01*
X95613866Y-74358095D02*
X95804342Y-74405714D01*
X95804342Y-74405714D02*
X95899580Y-74453333D01*
X95899580Y-74453333D02*
X95947200Y-74500952D01*
X95947200Y-74500952D02*
X95994819Y-74596190D01*
X95994819Y-74596190D02*
X95994819Y-74691428D01*
X95994819Y-74691428D02*
X95947200Y-74786666D01*
X95947200Y-74786666D02*
X95899580Y-74834285D01*
X95899580Y-74834285D02*
X95804342Y-74881904D01*
X95804342Y-74881904D02*
X95613866Y-74929523D01*
X95613866Y-74929523D02*
X95375771Y-74929523D01*
X95375771Y-74929523D02*
X95185295Y-74881904D01*
X95185295Y-74881904D02*
X95090057Y-74834285D01*
X95090057Y-74834285D02*
X95042438Y-74786666D01*
X95042438Y-74786666D02*
X94994819Y-74691428D01*
X97519166Y-81862319D02*
X97519166Y-82576604D01*
X97519166Y-82576604D02*
X97471547Y-82719461D01*
X97471547Y-82719461D02*
X97376309Y-82814700D01*
X97376309Y-82814700D02*
X97233452Y-82862319D01*
X97233452Y-82862319D02*
X97138214Y-82862319D01*
X97995357Y-82862319D02*
X97995357Y-81862319D01*
X97995357Y-81862319D02*
X98376309Y-81862319D01*
X98376309Y-81862319D02*
X98471547Y-81909938D01*
X98471547Y-81909938D02*
X98519166Y-81957557D01*
X98519166Y-81957557D02*
X98566785Y-82052795D01*
X98566785Y-82052795D02*
X98566785Y-82195652D01*
X98566785Y-82195652D02*
X98519166Y-82290890D01*
X98519166Y-82290890D02*
X98471547Y-82338509D01*
X98471547Y-82338509D02*
X98376309Y-82386128D01*
X98376309Y-82386128D02*
X97995357Y-82386128D01*
X98947738Y-81957557D02*
X98995357Y-81909938D01*
X98995357Y-81909938D02*
X99090595Y-81862319D01*
X99090595Y-81862319D02*
X99328690Y-81862319D01*
X99328690Y-81862319D02*
X99423928Y-81909938D01*
X99423928Y-81909938D02*
X99471547Y-81957557D01*
X99471547Y-81957557D02*
X99519166Y-82052795D01*
X99519166Y-82052795D02*
X99519166Y-82148033D01*
X99519166Y-82148033D02*
X99471547Y-82290890D01*
X99471547Y-82290890D02*
X98900119Y-82862319D01*
X98900119Y-82862319D02*
X99519166Y-82862319D01*
X106098669Y-140775848D02*
X106146289Y-140823467D01*
X106146289Y-140823467D02*
X106193908Y-140966324D01*
X106193908Y-140966324D02*
X106193908Y-141061562D01*
X106193908Y-141061562D02*
X106146289Y-141204419D01*
X106146289Y-141204419D02*
X106051050Y-141299657D01*
X106051050Y-141299657D02*
X105955812Y-141347276D01*
X105955812Y-141347276D02*
X105765336Y-141394895D01*
X105765336Y-141394895D02*
X105622479Y-141394895D01*
X105622479Y-141394895D02*
X105432003Y-141347276D01*
X105432003Y-141347276D02*
X105336765Y-141299657D01*
X105336765Y-141299657D02*
X105241527Y-141204419D01*
X105241527Y-141204419D02*
X105193908Y-141061562D01*
X105193908Y-141061562D02*
X105193908Y-140966324D01*
X105193908Y-140966324D02*
X105241527Y-140823467D01*
X105241527Y-140823467D02*
X105289146Y-140775848D01*
X105289146Y-140394895D02*
X105241527Y-140347276D01*
X105241527Y-140347276D02*
X105193908Y-140252038D01*
X105193908Y-140252038D02*
X105193908Y-140013943D01*
X105193908Y-140013943D02*
X105241527Y-139918705D01*
X105241527Y-139918705D02*
X105289146Y-139871086D01*
X105289146Y-139871086D02*
X105384384Y-139823467D01*
X105384384Y-139823467D02*
X105479622Y-139823467D01*
X105479622Y-139823467D02*
X105622479Y-139871086D01*
X105622479Y-139871086D02*
X106193908Y-140442514D01*
X106193908Y-140442514D02*
X106193908Y-139823467D01*
X72224580Y-142662857D02*
X72272200Y-142710476D01*
X72272200Y-142710476D02*
X72319819Y-142853333D01*
X72319819Y-142853333D02*
X72319819Y-142948571D01*
X72319819Y-142948571D02*
X72272200Y-143091428D01*
X72272200Y-143091428D02*
X72176961Y-143186666D01*
X72176961Y-143186666D02*
X72081723Y-143234285D01*
X72081723Y-143234285D02*
X71891247Y-143281904D01*
X71891247Y-143281904D02*
X71748390Y-143281904D01*
X71748390Y-143281904D02*
X71557914Y-143234285D01*
X71557914Y-143234285D02*
X71462676Y-143186666D01*
X71462676Y-143186666D02*
X71367438Y-143091428D01*
X71367438Y-143091428D02*
X71319819Y-142948571D01*
X71319819Y-142948571D02*
X71319819Y-142853333D01*
X71319819Y-142853333D02*
X71367438Y-142710476D01*
X71367438Y-142710476D02*
X71415057Y-142662857D01*
X72319819Y-141710476D02*
X72319819Y-142281904D01*
X72319819Y-141996190D02*
X71319819Y-141996190D01*
X71319819Y-141996190D02*
X71462676Y-142091428D01*
X71462676Y-142091428D02*
X71557914Y-142186666D01*
X71557914Y-142186666D02*
X71605533Y-142281904D01*
X72319819Y-140758095D02*
X72319819Y-141329523D01*
X72319819Y-141043809D02*
X71319819Y-141043809D01*
X71319819Y-141043809D02*
X71462676Y-141139047D01*
X71462676Y-141139047D02*
X71557914Y-141234285D01*
X71557914Y-141234285D02*
X71605533Y-141329523D01*
X107434819Y-135488094D02*
X106434819Y-135488094D01*
X106434819Y-135488094D02*
X106434819Y-135249999D01*
X106434819Y-135249999D02*
X106482438Y-135107142D01*
X106482438Y-135107142D02*
X106577676Y-135011904D01*
X106577676Y-135011904D02*
X106672914Y-134964285D01*
X106672914Y-134964285D02*
X106863390Y-134916666D01*
X106863390Y-134916666D02*
X107006247Y-134916666D01*
X107006247Y-134916666D02*
X107196723Y-134964285D01*
X107196723Y-134964285D02*
X107291961Y-135011904D01*
X107291961Y-135011904D02*
X107387200Y-135107142D01*
X107387200Y-135107142D02*
X107434819Y-135249999D01*
X107434819Y-135249999D02*
X107434819Y-135488094D01*
X107434819Y-133964285D02*
X107434819Y-134535713D01*
X107434819Y-134249999D02*
X106434819Y-134249999D01*
X106434819Y-134249999D02*
X106577676Y-134345237D01*
X106577676Y-134345237D02*
X106672914Y-134440475D01*
X106672914Y-134440475D02*
X106720533Y-134535713D01*
X61944819Y-108137857D02*
X61468628Y-108471190D01*
X61944819Y-108709285D02*
X60944819Y-108709285D01*
X60944819Y-108709285D02*
X60944819Y-108328333D01*
X60944819Y-108328333D02*
X60992438Y-108233095D01*
X60992438Y-108233095D02*
X61040057Y-108185476D01*
X61040057Y-108185476D02*
X61135295Y-108137857D01*
X61135295Y-108137857D02*
X61278152Y-108137857D01*
X61278152Y-108137857D02*
X61373390Y-108185476D01*
X61373390Y-108185476D02*
X61421009Y-108233095D01*
X61421009Y-108233095D02*
X61468628Y-108328333D01*
X61468628Y-108328333D02*
X61468628Y-108709285D01*
X61944819Y-107185476D02*
X61944819Y-107756904D01*
X61944819Y-107471190D02*
X60944819Y-107471190D01*
X60944819Y-107471190D02*
X61087676Y-107566428D01*
X61087676Y-107566428D02*
X61182914Y-107661666D01*
X61182914Y-107661666D02*
X61230533Y-107756904D01*
X60944819Y-106328333D02*
X60944819Y-106518809D01*
X60944819Y-106518809D02*
X60992438Y-106614047D01*
X60992438Y-106614047D02*
X61040057Y-106661666D01*
X61040057Y-106661666D02*
X61182914Y-106756904D01*
X61182914Y-106756904D02*
X61373390Y-106804523D01*
X61373390Y-106804523D02*
X61754342Y-106804523D01*
X61754342Y-106804523D02*
X61849580Y-106756904D01*
X61849580Y-106756904D02*
X61897200Y-106709285D01*
X61897200Y-106709285D02*
X61944819Y-106614047D01*
X61944819Y-106614047D02*
X61944819Y-106423571D01*
X61944819Y-106423571D02*
X61897200Y-106328333D01*
X61897200Y-106328333D02*
X61849580Y-106280714D01*
X61849580Y-106280714D02*
X61754342Y-106233095D01*
X61754342Y-106233095D02*
X61516247Y-106233095D01*
X61516247Y-106233095D02*
X61421009Y-106280714D01*
X61421009Y-106280714D02*
X61373390Y-106328333D01*
X61373390Y-106328333D02*
X61325771Y-106423571D01*
X61325771Y-106423571D02*
X61325771Y-106614047D01*
X61325771Y-106614047D02*
X61373390Y-106709285D01*
X61373390Y-106709285D02*
X61421009Y-106756904D01*
X61421009Y-106756904D02*
X61516247Y-106804523D01*
X97294166Y-88712319D02*
X97294166Y-89426604D01*
X97294166Y-89426604D02*
X97246547Y-89569461D01*
X97246547Y-89569461D02*
X97151309Y-89664700D01*
X97151309Y-89664700D02*
X97008452Y-89712319D01*
X97008452Y-89712319D02*
X96913214Y-89712319D01*
X97770357Y-89712319D02*
X97770357Y-88712319D01*
X97770357Y-88712319D02*
X98151309Y-88712319D01*
X98151309Y-88712319D02*
X98246547Y-88759938D01*
X98246547Y-88759938D02*
X98294166Y-88807557D01*
X98294166Y-88807557D02*
X98341785Y-88902795D01*
X98341785Y-88902795D02*
X98341785Y-89045652D01*
X98341785Y-89045652D02*
X98294166Y-89140890D01*
X98294166Y-89140890D02*
X98246547Y-89188509D01*
X98246547Y-89188509D02*
X98151309Y-89236128D01*
X98151309Y-89236128D02*
X97770357Y-89236128D01*
X98675119Y-88712319D02*
X99294166Y-88712319D01*
X99294166Y-88712319D02*
X98960833Y-89093271D01*
X98960833Y-89093271D02*
X99103690Y-89093271D01*
X99103690Y-89093271D02*
X99198928Y-89140890D01*
X99198928Y-89140890D02*
X99246547Y-89188509D01*
X99246547Y-89188509D02*
X99294166Y-89283747D01*
X99294166Y-89283747D02*
X99294166Y-89521842D01*
X99294166Y-89521842D02*
X99246547Y-89617080D01*
X99246547Y-89617080D02*
X99198928Y-89664700D01*
X99198928Y-89664700D02*
X99103690Y-89712319D01*
X99103690Y-89712319D02*
X98817976Y-89712319D01*
X98817976Y-89712319D02*
X98722738Y-89664700D01*
X98722738Y-89664700D02*
X98675119Y-89617080D01*
X97590180Y-125708095D02*
X96780657Y-125708095D01*
X96780657Y-125708095D02*
X96685419Y-125755714D01*
X96685419Y-125755714D02*
X96637800Y-125803333D01*
X96637800Y-125803333D02*
X96590180Y-125898571D01*
X96590180Y-125898571D02*
X96590180Y-126089047D01*
X96590180Y-126089047D02*
X96637800Y-126184285D01*
X96637800Y-126184285D02*
X96685419Y-126231904D01*
X96685419Y-126231904D02*
X96780657Y-126279523D01*
X96780657Y-126279523D02*
X97590180Y-126279523D01*
X97494942Y-126708095D02*
X97542561Y-126755714D01*
X97542561Y-126755714D02*
X97590180Y-126850952D01*
X97590180Y-126850952D02*
X97590180Y-127089047D01*
X97590180Y-127089047D02*
X97542561Y-127184285D01*
X97542561Y-127184285D02*
X97494942Y-127231904D01*
X97494942Y-127231904D02*
X97399704Y-127279523D01*
X97399704Y-127279523D02*
X97304466Y-127279523D01*
X97304466Y-127279523D02*
X97161609Y-127231904D01*
X97161609Y-127231904D02*
X96590180Y-126660476D01*
X96590180Y-126660476D02*
X96590180Y-127279523D01*
X66638095Y-44204819D02*
X66638095Y-43204819D01*
X66638095Y-43681009D02*
X67209523Y-43681009D01*
X67209523Y-44204819D02*
X67209523Y-43204819D01*
X67638095Y-43300057D02*
X67685714Y-43252438D01*
X67685714Y-43252438D02*
X67780952Y-43204819D01*
X67780952Y-43204819D02*
X68019047Y-43204819D01*
X68019047Y-43204819D02*
X68114285Y-43252438D01*
X68114285Y-43252438D02*
X68161904Y-43300057D01*
X68161904Y-43300057D02*
X68209523Y-43395295D01*
X68209523Y-43395295D02*
X68209523Y-43490533D01*
X68209523Y-43490533D02*
X68161904Y-43633390D01*
X68161904Y-43633390D02*
X67590476Y-44204819D01*
X67590476Y-44204819D02*
X68209523Y-44204819D01*
X107454819Y-139466666D02*
X106978628Y-139799999D01*
X107454819Y-140038094D02*
X106454819Y-140038094D01*
X106454819Y-140038094D02*
X106454819Y-139657142D01*
X106454819Y-139657142D02*
X106502438Y-139561904D01*
X106502438Y-139561904D02*
X106550057Y-139514285D01*
X106550057Y-139514285D02*
X106645295Y-139466666D01*
X106645295Y-139466666D02*
X106788152Y-139466666D01*
X106788152Y-139466666D02*
X106883390Y-139514285D01*
X106883390Y-139514285D02*
X106931009Y-139561904D01*
X106931009Y-139561904D02*
X106978628Y-139657142D01*
X106978628Y-139657142D02*
X106978628Y-140038094D01*
X106883390Y-138895237D02*
X106835771Y-138990475D01*
X106835771Y-138990475D02*
X106788152Y-139038094D01*
X106788152Y-139038094D02*
X106692914Y-139085713D01*
X106692914Y-139085713D02*
X106645295Y-139085713D01*
X106645295Y-139085713D02*
X106550057Y-139038094D01*
X106550057Y-139038094D02*
X106502438Y-138990475D01*
X106502438Y-138990475D02*
X106454819Y-138895237D01*
X106454819Y-138895237D02*
X106454819Y-138704761D01*
X106454819Y-138704761D02*
X106502438Y-138609523D01*
X106502438Y-138609523D02*
X106550057Y-138561904D01*
X106550057Y-138561904D02*
X106645295Y-138514285D01*
X106645295Y-138514285D02*
X106692914Y-138514285D01*
X106692914Y-138514285D02*
X106788152Y-138561904D01*
X106788152Y-138561904D02*
X106835771Y-138609523D01*
X106835771Y-138609523D02*
X106883390Y-138704761D01*
X106883390Y-138704761D02*
X106883390Y-138895237D01*
X106883390Y-138895237D02*
X106931009Y-138990475D01*
X106931009Y-138990475D02*
X106978628Y-139038094D01*
X106978628Y-139038094D02*
X107073866Y-139085713D01*
X107073866Y-139085713D02*
X107264342Y-139085713D01*
X107264342Y-139085713D02*
X107359580Y-139038094D01*
X107359580Y-139038094D02*
X107407200Y-138990475D01*
X107407200Y-138990475D02*
X107454819Y-138895237D01*
X107454819Y-138895237D02*
X107454819Y-138704761D01*
X107454819Y-138704761D02*
X107407200Y-138609523D01*
X107407200Y-138609523D02*
X107359580Y-138561904D01*
X107359580Y-138561904D02*
X107264342Y-138514285D01*
X107264342Y-138514285D02*
X107073866Y-138514285D01*
X107073866Y-138514285D02*
X106978628Y-138561904D01*
X106978628Y-138561904D02*
X106931009Y-138609523D01*
X106931009Y-138609523D02*
X106883390Y-138704761D01*
X68261905Y-106234819D02*
X68261905Y-105234819D01*
X68261905Y-105234819D02*
X68500000Y-105234819D01*
X68500000Y-105234819D02*
X68642857Y-105282438D01*
X68642857Y-105282438D02*
X68738095Y-105377676D01*
X68738095Y-105377676D02*
X68785714Y-105472914D01*
X68785714Y-105472914D02*
X68833333Y-105663390D01*
X68833333Y-105663390D02*
X68833333Y-105806247D01*
X68833333Y-105806247D02*
X68785714Y-105996723D01*
X68785714Y-105996723D02*
X68738095Y-106091961D01*
X68738095Y-106091961D02*
X68642857Y-106187200D01*
X68642857Y-106187200D02*
X68500000Y-106234819D01*
X68500000Y-106234819D02*
X68261905Y-106234819D01*
X69214286Y-105330057D02*
X69261905Y-105282438D01*
X69261905Y-105282438D02*
X69357143Y-105234819D01*
X69357143Y-105234819D02*
X69595238Y-105234819D01*
X69595238Y-105234819D02*
X69690476Y-105282438D01*
X69690476Y-105282438D02*
X69738095Y-105330057D01*
X69738095Y-105330057D02*
X69785714Y-105425295D01*
X69785714Y-105425295D02*
X69785714Y-105520533D01*
X69785714Y-105520533D02*
X69738095Y-105663390D01*
X69738095Y-105663390D02*
X69166667Y-106234819D01*
X69166667Y-106234819D02*
X69785714Y-106234819D01*
X115257142Y-58954819D02*
X114923809Y-58478628D01*
X114685714Y-58954819D02*
X114685714Y-57954819D01*
X114685714Y-57954819D02*
X115066666Y-57954819D01*
X115066666Y-57954819D02*
X115161904Y-58002438D01*
X115161904Y-58002438D02*
X115209523Y-58050057D01*
X115209523Y-58050057D02*
X115257142Y-58145295D01*
X115257142Y-58145295D02*
X115257142Y-58288152D01*
X115257142Y-58288152D02*
X115209523Y-58383390D01*
X115209523Y-58383390D02*
X115161904Y-58431009D01*
X115161904Y-58431009D02*
X115066666Y-58478628D01*
X115066666Y-58478628D02*
X114685714Y-58478628D01*
X115590476Y-57954819D02*
X116209523Y-57954819D01*
X116209523Y-57954819D02*
X115876190Y-58335771D01*
X115876190Y-58335771D02*
X116019047Y-58335771D01*
X116019047Y-58335771D02*
X116114285Y-58383390D01*
X116114285Y-58383390D02*
X116161904Y-58431009D01*
X116161904Y-58431009D02*
X116209523Y-58526247D01*
X116209523Y-58526247D02*
X116209523Y-58764342D01*
X116209523Y-58764342D02*
X116161904Y-58859580D01*
X116161904Y-58859580D02*
X116114285Y-58907200D01*
X116114285Y-58907200D02*
X116019047Y-58954819D01*
X116019047Y-58954819D02*
X115733333Y-58954819D01*
X115733333Y-58954819D02*
X115638095Y-58907200D01*
X115638095Y-58907200D02*
X115590476Y-58859580D01*
X116542857Y-57954819D02*
X117209523Y-57954819D01*
X117209523Y-57954819D02*
X116780952Y-58954819D01*
X52422695Y-100854276D02*
X52375076Y-100901896D01*
X52375076Y-100901896D02*
X52232219Y-100949515D01*
X52232219Y-100949515D02*
X52136981Y-100949515D01*
X52136981Y-100949515D02*
X51994124Y-100901896D01*
X51994124Y-100901896D02*
X51898886Y-100806657D01*
X51898886Y-100806657D02*
X51851267Y-100711419D01*
X51851267Y-100711419D02*
X51803648Y-100520943D01*
X51803648Y-100520943D02*
X51803648Y-100378086D01*
X51803648Y-100378086D02*
X51851267Y-100187610D01*
X51851267Y-100187610D02*
X51898886Y-100092372D01*
X51898886Y-100092372D02*
X51994124Y-99997134D01*
X51994124Y-99997134D02*
X52136981Y-99949515D01*
X52136981Y-99949515D02*
X52232219Y-99949515D01*
X52232219Y-99949515D02*
X52375076Y-99997134D01*
X52375076Y-99997134D02*
X52422695Y-100044753D01*
X52803648Y-100044753D02*
X52851267Y-99997134D01*
X52851267Y-99997134D02*
X52946505Y-99949515D01*
X52946505Y-99949515D02*
X53184600Y-99949515D01*
X53184600Y-99949515D02*
X53279838Y-99997134D01*
X53279838Y-99997134D02*
X53327457Y-100044753D01*
X53327457Y-100044753D02*
X53375076Y-100139991D01*
X53375076Y-100139991D02*
X53375076Y-100235229D01*
X53375076Y-100235229D02*
X53327457Y-100378086D01*
X53327457Y-100378086D02*
X52756029Y-100949515D01*
X52756029Y-100949515D02*
X53375076Y-100949515D01*
X53851267Y-100949515D02*
X54041743Y-100949515D01*
X54041743Y-100949515D02*
X54136981Y-100901896D01*
X54136981Y-100901896D02*
X54184600Y-100854276D01*
X54184600Y-100854276D02*
X54279838Y-100711419D01*
X54279838Y-100711419D02*
X54327457Y-100520943D01*
X54327457Y-100520943D02*
X54327457Y-100139991D01*
X54327457Y-100139991D02*
X54279838Y-100044753D01*
X54279838Y-100044753D02*
X54232219Y-99997134D01*
X54232219Y-99997134D02*
X54136981Y-99949515D01*
X54136981Y-99949515D02*
X53946505Y-99949515D01*
X53946505Y-99949515D02*
X53851267Y-99997134D01*
X53851267Y-99997134D02*
X53803648Y-100044753D01*
X53803648Y-100044753D02*
X53756029Y-100139991D01*
X53756029Y-100139991D02*
X53756029Y-100378086D01*
X53756029Y-100378086D02*
X53803648Y-100473324D01*
X53803648Y-100473324D02*
X53851267Y-100520943D01*
X53851267Y-100520943D02*
X53946505Y-100568562D01*
X53946505Y-100568562D02*
X54136981Y-100568562D01*
X54136981Y-100568562D02*
X54232219Y-100520943D01*
X54232219Y-100520943D02*
X54279838Y-100473324D01*
X54279838Y-100473324D02*
X54327457Y-100378086D01*
X43304819Y-130561904D02*
X42304819Y-130561904D01*
X42781009Y-130561904D02*
X42781009Y-129990476D01*
X43304819Y-129990476D02*
X42304819Y-129990476D01*
X42304819Y-129085714D02*
X42304819Y-129276190D01*
X42304819Y-129276190D02*
X42352438Y-129371428D01*
X42352438Y-129371428D02*
X42400057Y-129419047D01*
X42400057Y-129419047D02*
X42542914Y-129514285D01*
X42542914Y-129514285D02*
X42733390Y-129561904D01*
X42733390Y-129561904D02*
X43114342Y-129561904D01*
X43114342Y-129561904D02*
X43209580Y-129514285D01*
X43209580Y-129514285D02*
X43257200Y-129466666D01*
X43257200Y-129466666D02*
X43304819Y-129371428D01*
X43304819Y-129371428D02*
X43304819Y-129180952D01*
X43304819Y-129180952D02*
X43257200Y-129085714D01*
X43257200Y-129085714D02*
X43209580Y-129038095D01*
X43209580Y-129038095D02*
X43114342Y-128990476D01*
X43114342Y-128990476D02*
X42876247Y-128990476D01*
X42876247Y-128990476D02*
X42781009Y-129038095D01*
X42781009Y-129038095D02*
X42733390Y-129085714D01*
X42733390Y-129085714D02*
X42685771Y-129180952D01*
X42685771Y-129180952D02*
X42685771Y-129371428D01*
X42685771Y-129371428D02*
X42733390Y-129466666D01*
X42733390Y-129466666D02*
X42781009Y-129514285D01*
X42781009Y-129514285D02*
X42876247Y-129561904D01*
X71907775Y-121099819D02*
X71907775Y-121909342D01*
X71907775Y-121909342D02*
X71955394Y-122004580D01*
X71955394Y-122004580D02*
X72003013Y-122052200D01*
X72003013Y-122052200D02*
X72098251Y-122099819D01*
X72098251Y-122099819D02*
X72288727Y-122099819D01*
X72288727Y-122099819D02*
X72383965Y-122052200D01*
X72383965Y-122052200D02*
X72431584Y-122004580D01*
X72431584Y-122004580D02*
X72479203Y-121909342D01*
X72479203Y-121909342D02*
X72479203Y-121099819D01*
X72860156Y-121099819D02*
X73479203Y-121099819D01*
X73479203Y-121099819D02*
X73145870Y-121480771D01*
X73145870Y-121480771D02*
X73288727Y-121480771D01*
X73288727Y-121480771D02*
X73383965Y-121528390D01*
X73383965Y-121528390D02*
X73431584Y-121576009D01*
X73431584Y-121576009D02*
X73479203Y-121671247D01*
X73479203Y-121671247D02*
X73479203Y-121909342D01*
X73479203Y-121909342D02*
X73431584Y-122004580D01*
X73431584Y-122004580D02*
X73383965Y-122052200D01*
X73383965Y-122052200D02*
X73288727Y-122099819D01*
X73288727Y-122099819D02*
X73003013Y-122099819D01*
X73003013Y-122099819D02*
X72907775Y-122052200D01*
X72907775Y-122052200D02*
X72860156Y-122004580D01*
X99247142Y-68049580D02*
X99199523Y-68097200D01*
X99199523Y-68097200D02*
X99056666Y-68144819D01*
X99056666Y-68144819D02*
X98961428Y-68144819D01*
X98961428Y-68144819D02*
X98818571Y-68097200D01*
X98818571Y-68097200D02*
X98723333Y-68001961D01*
X98723333Y-68001961D02*
X98675714Y-67906723D01*
X98675714Y-67906723D02*
X98628095Y-67716247D01*
X98628095Y-67716247D02*
X98628095Y-67573390D01*
X98628095Y-67573390D02*
X98675714Y-67382914D01*
X98675714Y-67382914D02*
X98723333Y-67287676D01*
X98723333Y-67287676D02*
X98818571Y-67192438D01*
X98818571Y-67192438D02*
X98961428Y-67144819D01*
X98961428Y-67144819D02*
X99056666Y-67144819D01*
X99056666Y-67144819D02*
X99199523Y-67192438D01*
X99199523Y-67192438D02*
X99247142Y-67240057D01*
X100199523Y-68144819D02*
X99628095Y-68144819D01*
X99913809Y-68144819D02*
X99913809Y-67144819D01*
X99913809Y-67144819D02*
X99818571Y-67287676D01*
X99818571Y-67287676D02*
X99723333Y-67382914D01*
X99723333Y-67382914D02*
X99628095Y-67430533D01*
X100675714Y-68144819D02*
X100866190Y-68144819D01*
X100866190Y-68144819D02*
X100961428Y-68097200D01*
X100961428Y-68097200D02*
X101009047Y-68049580D01*
X101009047Y-68049580D02*
X101104285Y-67906723D01*
X101104285Y-67906723D02*
X101151904Y-67716247D01*
X101151904Y-67716247D02*
X101151904Y-67335295D01*
X101151904Y-67335295D02*
X101104285Y-67240057D01*
X101104285Y-67240057D02*
X101056666Y-67192438D01*
X101056666Y-67192438D02*
X100961428Y-67144819D01*
X100961428Y-67144819D02*
X100770952Y-67144819D01*
X100770952Y-67144819D02*
X100675714Y-67192438D01*
X100675714Y-67192438D02*
X100628095Y-67240057D01*
X100628095Y-67240057D02*
X100580476Y-67335295D01*
X100580476Y-67335295D02*
X100580476Y-67573390D01*
X100580476Y-67573390D02*
X100628095Y-67668628D01*
X100628095Y-67668628D02*
X100675714Y-67716247D01*
X100675714Y-67716247D02*
X100770952Y-67763866D01*
X100770952Y-67763866D02*
X100961428Y-67763866D01*
X100961428Y-67763866D02*
X101056666Y-67716247D01*
X101056666Y-67716247D02*
X101104285Y-67668628D01*
X101104285Y-67668628D02*
X101151904Y-67573390D01*
X115257142Y-61154819D02*
X114923809Y-60678628D01*
X114685714Y-61154819D02*
X114685714Y-60154819D01*
X114685714Y-60154819D02*
X115066666Y-60154819D01*
X115066666Y-60154819D02*
X115161904Y-60202438D01*
X115161904Y-60202438D02*
X115209523Y-60250057D01*
X115209523Y-60250057D02*
X115257142Y-60345295D01*
X115257142Y-60345295D02*
X115257142Y-60488152D01*
X115257142Y-60488152D02*
X115209523Y-60583390D01*
X115209523Y-60583390D02*
X115161904Y-60631009D01*
X115161904Y-60631009D02*
X115066666Y-60678628D01*
X115066666Y-60678628D02*
X114685714Y-60678628D01*
X115590476Y-60154819D02*
X116209523Y-60154819D01*
X116209523Y-60154819D02*
X115876190Y-60535771D01*
X115876190Y-60535771D02*
X116019047Y-60535771D01*
X116019047Y-60535771D02*
X116114285Y-60583390D01*
X116114285Y-60583390D02*
X116161904Y-60631009D01*
X116161904Y-60631009D02*
X116209523Y-60726247D01*
X116209523Y-60726247D02*
X116209523Y-60964342D01*
X116209523Y-60964342D02*
X116161904Y-61059580D01*
X116161904Y-61059580D02*
X116114285Y-61107200D01*
X116114285Y-61107200D02*
X116019047Y-61154819D01*
X116019047Y-61154819D02*
X115733333Y-61154819D01*
X115733333Y-61154819D02*
X115638095Y-61107200D01*
X115638095Y-61107200D02*
X115590476Y-61059580D01*
X116685714Y-61154819D02*
X116876190Y-61154819D01*
X116876190Y-61154819D02*
X116971428Y-61107200D01*
X116971428Y-61107200D02*
X117019047Y-61059580D01*
X117019047Y-61059580D02*
X117114285Y-60916723D01*
X117114285Y-60916723D02*
X117161904Y-60726247D01*
X117161904Y-60726247D02*
X117161904Y-60345295D01*
X117161904Y-60345295D02*
X117114285Y-60250057D01*
X117114285Y-60250057D02*
X117066666Y-60202438D01*
X117066666Y-60202438D02*
X116971428Y-60154819D01*
X116971428Y-60154819D02*
X116780952Y-60154819D01*
X116780952Y-60154819D02*
X116685714Y-60202438D01*
X116685714Y-60202438D02*
X116638095Y-60250057D01*
X116638095Y-60250057D02*
X116590476Y-60345295D01*
X116590476Y-60345295D02*
X116590476Y-60583390D01*
X116590476Y-60583390D02*
X116638095Y-60678628D01*
X116638095Y-60678628D02*
X116685714Y-60726247D01*
X116685714Y-60726247D02*
X116780952Y-60773866D01*
X116780952Y-60773866D02*
X116971428Y-60773866D01*
X116971428Y-60773866D02*
X117066666Y-60726247D01*
X117066666Y-60726247D02*
X117114285Y-60678628D01*
X117114285Y-60678628D02*
X117161904Y-60583390D01*
X50157142Y-123439580D02*
X50109523Y-123487200D01*
X50109523Y-123487200D02*
X49966666Y-123534819D01*
X49966666Y-123534819D02*
X49871428Y-123534819D01*
X49871428Y-123534819D02*
X49728571Y-123487200D01*
X49728571Y-123487200D02*
X49633333Y-123391961D01*
X49633333Y-123391961D02*
X49585714Y-123296723D01*
X49585714Y-123296723D02*
X49538095Y-123106247D01*
X49538095Y-123106247D02*
X49538095Y-122963390D01*
X49538095Y-122963390D02*
X49585714Y-122772914D01*
X49585714Y-122772914D02*
X49633333Y-122677676D01*
X49633333Y-122677676D02*
X49728571Y-122582438D01*
X49728571Y-122582438D02*
X49871428Y-122534819D01*
X49871428Y-122534819D02*
X49966666Y-122534819D01*
X49966666Y-122534819D02*
X50109523Y-122582438D01*
X50109523Y-122582438D02*
X50157142Y-122630057D01*
X50538095Y-122630057D02*
X50585714Y-122582438D01*
X50585714Y-122582438D02*
X50680952Y-122534819D01*
X50680952Y-122534819D02*
X50919047Y-122534819D01*
X50919047Y-122534819D02*
X51014285Y-122582438D01*
X51014285Y-122582438D02*
X51061904Y-122630057D01*
X51061904Y-122630057D02*
X51109523Y-122725295D01*
X51109523Y-122725295D02*
X51109523Y-122820533D01*
X51109523Y-122820533D02*
X51061904Y-122963390D01*
X51061904Y-122963390D02*
X50490476Y-123534819D01*
X50490476Y-123534819D02*
X51109523Y-123534819D01*
X51442857Y-122534819D02*
X52109523Y-122534819D01*
X52109523Y-122534819D02*
X51680952Y-123534819D01*
X115897200Y-140854669D02*
X115944819Y-140711812D01*
X115944819Y-140711812D02*
X115944819Y-140473717D01*
X115944819Y-140473717D02*
X115897200Y-140378479D01*
X115897200Y-140378479D02*
X115849580Y-140330860D01*
X115849580Y-140330860D02*
X115754342Y-140283241D01*
X115754342Y-140283241D02*
X115659104Y-140283241D01*
X115659104Y-140283241D02*
X115563866Y-140330860D01*
X115563866Y-140330860D02*
X115516247Y-140378479D01*
X115516247Y-140378479D02*
X115468628Y-140473717D01*
X115468628Y-140473717D02*
X115421009Y-140664193D01*
X115421009Y-140664193D02*
X115373390Y-140759431D01*
X115373390Y-140759431D02*
X115325771Y-140807050D01*
X115325771Y-140807050D02*
X115230533Y-140854669D01*
X115230533Y-140854669D02*
X115135295Y-140854669D01*
X115135295Y-140854669D02*
X115040057Y-140807050D01*
X115040057Y-140807050D02*
X114992438Y-140759431D01*
X114992438Y-140759431D02*
X114944819Y-140664193D01*
X114944819Y-140664193D02*
X114944819Y-140426098D01*
X114944819Y-140426098D02*
X114992438Y-140283241D01*
X114944819Y-139949907D02*
X115944819Y-139711812D01*
X115944819Y-139711812D02*
X115230533Y-139521336D01*
X115230533Y-139521336D02*
X115944819Y-139330860D01*
X115944819Y-139330860D02*
X114944819Y-139092765D01*
X115944819Y-138188003D02*
X115944819Y-138759431D01*
X115944819Y-138473717D02*
X114944819Y-138473717D01*
X114944819Y-138473717D02*
X115087676Y-138568955D01*
X115087676Y-138568955D02*
X115182914Y-138664193D01*
X115182914Y-138664193D02*
X115230533Y-138759431D01*
X68224580Y-142186666D02*
X68272200Y-142234285D01*
X68272200Y-142234285D02*
X68319819Y-142377142D01*
X68319819Y-142377142D02*
X68319819Y-142472380D01*
X68319819Y-142472380D02*
X68272200Y-142615237D01*
X68272200Y-142615237D02*
X68176961Y-142710475D01*
X68176961Y-142710475D02*
X68081723Y-142758094D01*
X68081723Y-142758094D02*
X67891247Y-142805713D01*
X67891247Y-142805713D02*
X67748390Y-142805713D01*
X67748390Y-142805713D02*
X67557914Y-142758094D01*
X67557914Y-142758094D02*
X67462676Y-142710475D01*
X67462676Y-142710475D02*
X67367438Y-142615237D01*
X67367438Y-142615237D02*
X67319819Y-142472380D01*
X67319819Y-142472380D02*
X67319819Y-142377142D01*
X67319819Y-142377142D02*
X67367438Y-142234285D01*
X67367438Y-142234285D02*
X67415057Y-142186666D01*
X67748390Y-141615237D02*
X67700771Y-141710475D01*
X67700771Y-141710475D02*
X67653152Y-141758094D01*
X67653152Y-141758094D02*
X67557914Y-141805713D01*
X67557914Y-141805713D02*
X67510295Y-141805713D01*
X67510295Y-141805713D02*
X67415057Y-141758094D01*
X67415057Y-141758094D02*
X67367438Y-141710475D01*
X67367438Y-141710475D02*
X67319819Y-141615237D01*
X67319819Y-141615237D02*
X67319819Y-141424761D01*
X67319819Y-141424761D02*
X67367438Y-141329523D01*
X67367438Y-141329523D02*
X67415057Y-141281904D01*
X67415057Y-141281904D02*
X67510295Y-141234285D01*
X67510295Y-141234285D02*
X67557914Y-141234285D01*
X67557914Y-141234285D02*
X67653152Y-141281904D01*
X67653152Y-141281904D02*
X67700771Y-141329523D01*
X67700771Y-141329523D02*
X67748390Y-141424761D01*
X67748390Y-141424761D02*
X67748390Y-141615237D01*
X67748390Y-141615237D02*
X67796009Y-141710475D01*
X67796009Y-141710475D02*
X67843628Y-141758094D01*
X67843628Y-141758094D02*
X67938866Y-141805713D01*
X67938866Y-141805713D02*
X68129342Y-141805713D01*
X68129342Y-141805713D02*
X68224580Y-141758094D01*
X68224580Y-141758094D02*
X68272200Y-141710475D01*
X68272200Y-141710475D02*
X68319819Y-141615237D01*
X68319819Y-141615237D02*
X68319819Y-141424761D01*
X68319819Y-141424761D02*
X68272200Y-141329523D01*
X68272200Y-141329523D02*
X68224580Y-141281904D01*
X68224580Y-141281904D02*
X68129342Y-141234285D01*
X68129342Y-141234285D02*
X67938866Y-141234285D01*
X67938866Y-141234285D02*
X67843628Y-141281904D01*
X67843628Y-141281904D02*
X67796009Y-141329523D01*
X67796009Y-141329523D02*
X67748390Y-141424761D01*
X71444819Y-123087857D02*
X70968628Y-123421190D01*
X71444819Y-123659285D02*
X70444819Y-123659285D01*
X70444819Y-123659285D02*
X70444819Y-123278333D01*
X70444819Y-123278333D02*
X70492438Y-123183095D01*
X70492438Y-123183095D02*
X70540057Y-123135476D01*
X70540057Y-123135476D02*
X70635295Y-123087857D01*
X70635295Y-123087857D02*
X70778152Y-123087857D01*
X70778152Y-123087857D02*
X70873390Y-123135476D01*
X70873390Y-123135476D02*
X70921009Y-123183095D01*
X70921009Y-123183095D02*
X70968628Y-123278333D01*
X70968628Y-123278333D02*
X70968628Y-123659285D01*
X71444819Y-122135476D02*
X71444819Y-122706904D01*
X71444819Y-122421190D02*
X70444819Y-122421190D01*
X70444819Y-122421190D02*
X70587676Y-122516428D01*
X70587676Y-122516428D02*
X70682914Y-122611666D01*
X70682914Y-122611666D02*
X70730533Y-122706904D01*
X70444819Y-121230714D02*
X70444819Y-121706904D01*
X70444819Y-121706904D02*
X70921009Y-121754523D01*
X70921009Y-121754523D02*
X70873390Y-121706904D01*
X70873390Y-121706904D02*
X70825771Y-121611666D01*
X70825771Y-121611666D02*
X70825771Y-121373571D01*
X70825771Y-121373571D02*
X70873390Y-121278333D01*
X70873390Y-121278333D02*
X70921009Y-121230714D01*
X70921009Y-121230714D02*
X71016247Y-121183095D01*
X71016247Y-121183095D02*
X71254342Y-121183095D01*
X71254342Y-121183095D02*
X71349580Y-121230714D01*
X71349580Y-121230714D02*
X71397200Y-121278333D01*
X71397200Y-121278333D02*
X71444819Y-121373571D01*
X71444819Y-121373571D02*
X71444819Y-121611666D01*
X71444819Y-121611666D02*
X71397200Y-121706904D01*
X71397200Y-121706904D02*
X71349580Y-121754523D01*
X99247142Y-65799580D02*
X99199523Y-65847200D01*
X99199523Y-65847200D02*
X99056666Y-65894819D01*
X99056666Y-65894819D02*
X98961428Y-65894819D01*
X98961428Y-65894819D02*
X98818571Y-65847200D01*
X98818571Y-65847200D02*
X98723333Y-65751961D01*
X98723333Y-65751961D02*
X98675714Y-65656723D01*
X98675714Y-65656723D02*
X98628095Y-65466247D01*
X98628095Y-65466247D02*
X98628095Y-65323390D01*
X98628095Y-65323390D02*
X98675714Y-65132914D01*
X98675714Y-65132914D02*
X98723333Y-65037676D01*
X98723333Y-65037676D02*
X98818571Y-64942438D01*
X98818571Y-64942438D02*
X98961428Y-64894819D01*
X98961428Y-64894819D02*
X99056666Y-64894819D01*
X99056666Y-64894819D02*
X99199523Y-64942438D01*
X99199523Y-64942438D02*
X99247142Y-64990057D01*
X100199523Y-65894819D02*
X99628095Y-65894819D01*
X99913809Y-65894819D02*
X99913809Y-64894819D01*
X99913809Y-64894819D02*
X99818571Y-65037676D01*
X99818571Y-65037676D02*
X99723333Y-65132914D01*
X99723333Y-65132914D02*
X99628095Y-65180533D01*
X100770952Y-65323390D02*
X100675714Y-65275771D01*
X100675714Y-65275771D02*
X100628095Y-65228152D01*
X100628095Y-65228152D02*
X100580476Y-65132914D01*
X100580476Y-65132914D02*
X100580476Y-65085295D01*
X100580476Y-65085295D02*
X100628095Y-64990057D01*
X100628095Y-64990057D02*
X100675714Y-64942438D01*
X100675714Y-64942438D02*
X100770952Y-64894819D01*
X100770952Y-64894819D02*
X100961428Y-64894819D01*
X100961428Y-64894819D02*
X101056666Y-64942438D01*
X101056666Y-64942438D02*
X101104285Y-64990057D01*
X101104285Y-64990057D02*
X101151904Y-65085295D01*
X101151904Y-65085295D02*
X101151904Y-65132914D01*
X101151904Y-65132914D02*
X101104285Y-65228152D01*
X101104285Y-65228152D02*
X101056666Y-65275771D01*
X101056666Y-65275771D02*
X100961428Y-65323390D01*
X100961428Y-65323390D02*
X100770952Y-65323390D01*
X100770952Y-65323390D02*
X100675714Y-65371009D01*
X100675714Y-65371009D02*
X100628095Y-65418628D01*
X100628095Y-65418628D02*
X100580476Y-65513866D01*
X100580476Y-65513866D02*
X100580476Y-65704342D01*
X100580476Y-65704342D02*
X100628095Y-65799580D01*
X100628095Y-65799580D02*
X100675714Y-65847200D01*
X100675714Y-65847200D02*
X100770952Y-65894819D01*
X100770952Y-65894819D02*
X100961428Y-65894819D01*
X100961428Y-65894819D02*
X101056666Y-65847200D01*
X101056666Y-65847200D02*
X101104285Y-65799580D01*
X101104285Y-65799580D02*
X101151904Y-65704342D01*
X101151904Y-65704342D02*
X101151904Y-65513866D01*
X101151904Y-65513866D02*
X101104285Y-65418628D01*
X101104285Y-65418628D02*
X101056666Y-65371009D01*
X101056666Y-65371009D02*
X100961428Y-65323390D01*
X46038095Y-145704819D02*
X46038095Y-144704819D01*
X46038095Y-145181009D02*
X46609523Y-145181009D01*
X46609523Y-145704819D02*
X46609523Y-144704819D01*
X46990476Y-144704819D02*
X47609523Y-144704819D01*
X47609523Y-144704819D02*
X47276190Y-145085771D01*
X47276190Y-145085771D02*
X47419047Y-145085771D01*
X47419047Y-145085771D02*
X47514285Y-145133390D01*
X47514285Y-145133390D02*
X47561904Y-145181009D01*
X47561904Y-145181009D02*
X47609523Y-145276247D01*
X47609523Y-145276247D02*
X47609523Y-145514342D01*
X47609523Y-145514342D02*
X47561904Y-145609580D01*
X47561904Y-145609580D02*
X47514285Y-145657200D01*
X47514285Y-145657200D02*
X47419047Y-145704819D01*
X47419047Y-145704819D02*
X47133333Y-145704819D01*
X47133333Y-145704819D02*
X47038095Y-145657200D01*
X47038095Y-145657200D02*
X46990476Y-145609580D01*
X113640057Y-84965238D02*
X113592438Y-85060476D01*
X113592438Y-85060476D02*
X113497200Y-85155714D01*
X113497200Y-85155714D02*
X113354342Y-85298571D01*
X113354342Y-85298571D02*
X113306723Y-85393809D01*
X113306723Y-85393809D02*
X113306723Y-85489047D01*
X113544819Y-85441428D02*
X113497200Y-85536666D01*
X113497200Y-85536666D02*
X113401961Y-85631904D01*
X113401961Y-85631904D02*
X113211485Y-85679523D01*
X113211485Y-85679523D02*
X112878152Y-85679523D01*
X112878152Y-85679523D02*
X112687676Y-85631904D01*
X112687676Y-85631904D02*
X112592438Y-85536666D01*
X112592438Y-85536666D02*
X112544819Y-85441428D01*
X112544819Y-85441428D02*
X112544819Y-85250952D01*
X112544819Y-85250952D02*
X112592438Y-85155714D01*
X112592438Y-85155714D02*
X112687676Y-85060476D01*
X112687676Y-85060476D02*
X112878152Y-85012857D01*
X112878152Y-85012857D02*
X113211485Y-85012857D01*
X113211485Y-85012857D02*
X113401961Y-85060476D01*
X113401961Y-85060476D02*
X113497200Y-85155714D01*
X113497200Y-85155714D02*
X113544819Y-85250952D01*
X113544819Y-85250952D02*
X113544819Y-85441428D01*
X112640057Y-84631904D02*
X112592438Y-84584285D01*
X112592438Y-84584285D02*
X112544819Y-84489047D01*
X112544819Y-84489047D02*
X112544819Y-84250952D01*
X112544819Y-84250952D02*
X112592438Y-84155714D01*
X112592438Y-84155714D02*
X112640057Y-84108095D01*
X112640057Y-84108095D02*
X112735295Y-84060476D01*
X112735295Y-84060476D02*
X112830533Y-84060476D01*
X112830533Y-84060476D02*
X112973390Y-84108095D01*
X112973390Y-84108095D02*
X113544819Y-84679523D01*
X113544819Y-84679523D02*
X113544819Y-84060476D01*
X65719580Y-123087857D02*
X65767200Y-123135476D01*
X65767200Y-123135476D02*
X65814819Y-123278333D01*
X65814819Y-123278333D02*
X65814819Y-123373571D01*
X65814819Y-123373571D02*
X65767200Y-123516428D01*
X65767200Y-123516428D02*
X65671961Y-123611666D01*
X65671961Y-123611666D02*
X65576723Y-123659285D01*
X65576723Y-123659285D02*
X65386247Y-123706904D01*
X65386247Y-123706904D02*
X65243390Y-123706904D01*
X65243390Y-123706904D02*
X65052914Y-123659285D01*
X65052914Y-123659285D02*
X64957676Y-123611666D01*
X64957676Y-123611666D02*
X64862438Y-123516428D01*
X64862438Y-123516428D02*
X64814819Y-123373571D01*
X64814819Y-123373571D02*
X64814819Y-123278333D01*
X64814819Y-123278333D02*
X64862438Y-123135476D01*
X64862438Y-123135476D02*
X64910057Y-123087857D01*
X65814819Y-122135476D02*
X65814819Y-122706904D01*
X65814819Y-122421190D02*
X64814819Y-122421190D01*
X64814819Y-122421190D02*
X64957676Y-122516428D01*
X64957676Y-122516428D02*
X65052914Y-122611666D01*
X65052914Y-122611666D02*
X65100533Y-122706904D01*
X65148152Y-121278333D02*
X65814819Y-121278333D01*
X64767200Y-121516428D02*
X65481485Y-121754523D01*
X65481485Y-121754523D02*
X65481485Y-121135476D01*
X107655235Y-129988656D02*
X107321902Y-129512465D01*
X107083807Y-129988656D02*
X107083807Y-128988656D01*
X107083807Y-128988656D02*
X107464759Y-128988656D01*
X107464759Y-128988656D02*
X107559997Y-129036275D01*
X107559997Y-129036275D02*
X107607616Y-129083894D01*
X107607616Y-129083894D02*
X107655235Y-129179132D01*
X107655235Y-129179132D02*
X107655235Y-129321989D01*
X107655235Y-129321989D02*
X107607616Y-129417227D01*
X107607616Y-129417227D02*
X107559997Y-129464846D01*
X107559997Y-129464846D02*
X107464759Y-129512465D01*
X107464759Y-129512465D02*
X107083807Y-129512465D01*
X108607616Y-129988656D02*
X108036188Y-129988656D01*
X108321902Y-129988656D02*
X108321902Y-128988656D01*
X108321902Y-128988656D02*
X108226664Y-129131513D01*
X108226664Y-129131513D02*
X108131426Y-129226751D01*
X108131426Y-129226751D02*
X108036188Y-129274370D01*
X109464759Y-129321989D02*
X109464759Y-129988656D01*
X109226664Y-128941037D02*
X108988569Y-129655322D01*
X108988569Y-129655322D02*
X109607616Y-129655322D01*
X124038095Y-54504819D02*
X124038095Y-53504819D01*
X124038095Y-53981009D02*
X124609523Y-53981009D01*
X124609523Y-54504819D02*
X124609523Y-53504819D01*
X125609523Y-54504819D02*
X125038095Y-54504819D01*
X125323809Y-54504819D02*
X125323809Y-53504819D01*
X125323809Y-53504819D02*
X125228571Y-53647676D01*
X125228571Y-53647676D02*
X125133333Y-53742914D01*
X125133333Y-53742914D02*
X125038095Y-53790533D01*
X63919580Y-108137857D02*
X63967200Y-108185476D01*
X63967200Y-108185476D02*
X64014819Y-108328333D01*
X64014819Y-108328333D02*
X64014819Y-108423571D01*
X64014819Y-108423571D02*
X63967200Y-108566428D01*
X63967200Y-108566428D02*
X63871961Y-108661666D01*
X63871961Y-108661666D02*
X63776723Y-108709285D01*
X63776723Y-108709285D02*
X63586247Y-108756904D01*
X63586247Y-108756904D02*
X63443390Y-108756904D01*
X63443390Y-108756904D02*
X63252914Y-108709285D01*
X63252914Y-108709285D02*
X63157676Y-108661666D01*
X63157676Y-108661666D02*
X63062438Y-108566428D01*
X63062438Y-108566428D02*
X63014819Y-108423571D01*
X63014819Y-108423571D02*
X63014819Y-108328333D01*
X63014819Y-108328333D02*
X63062438Y-108185476D01*
X63062438Y-108185476D02*
X63110057Y-108137857D01*
X64014819Y-107185476D02*
X64014819Y-107756904D01*
X64014819Y-107471190D02*
X63014819Y-107471190D01*
X63014819Y-107471190D02*
X63157676Y-107566428D01*
X63157676Y-107566428D02*
X63252914Y-107661666D01*
X63252914Y-107661666D02*
X63300533Y-107756904D01*
X63014819Y-106280714D02*
X63014819Y-106756904D01*
X63014819Y-106756904D02*
X63491009Y-106804523D01*
X63491009Y-106804523D02*
X63443390Y-106756904D01*
X63443390Y-106756904D02*
X63395771Y-106661666D01*
X63395771Y-106661666D02*
X63395771Y-106423571D01*
X63395771Y-106423571D02*
X63443390Y-106328333D01*
X63443390Y-106328333D02*
X63491009Y-106280714D01*
X63491009Y-106280714D02*
X63586247Y-106233095D01*
X63586247Y-106233095D02*
X63824342Y-106233095D01*
X63824342Y-106233095D02*
X63919580Y-106280714D01*
X63919580Y-106280714D02*
X63967200Y-106328333D01*
X63967200Y-106328333D02*
X64014819Y-106423571D01*
X64014819Y-106423571D02*
X64014819Y-106661666D01*
X64014819Y-106661666D02*
X63967200Y-106756904D01*
X63967200Y-106756904D02*
X63919580Y-106804523D01*
X75083333Y-113354819D02*
X74607143Y-113354819D01*
X74607143Y-113354819D02*
X74607143Y-112354819D01*
X75940476Y-113354819D02*
X75369048Y-113354819D01*
X75654762Y-113354819D02*
X75654762Y-112354819D01*
X75654762Y-112354819D02*
X75559524Y-112497676D01*
X75559524Y-112497676D02*
X75464286Y-112592914D01*
X75464286Y-112592914D02*
X75369048Y-112640533D01*
X107202854Y-127783894D02*
X107107616Y-127736275D01*
X107107616Y-127736275D02*
X107012378Y-127641037D01*
X107012378Y-127641037D02*
X106869521Y-127498179D01*
X106869521Y-127498179D02*
X106774283Y-127450560D01*
X106774283Y-127450560D02*
X106679045Y-127450560D01*
X106726664Y-127688656D02*
X106631426Y-127641037D01*
X106631426Y-127641037D02*
X106536188Y-127545798D01*
X106536188Y-127545798D02*
X106488569Y-127355322D01*
X106488569Y-127355322D02*
X106488569Y-127021989D01*
X106488569Y-127021989D02*
X106536188Y-126831513D01*
X106536188Y-126831513D02*
X106631426Y-126736275D01*
X106631426Y-126736275D02*
X106726664Y-126688656D01*
X106726664Y-126688656D02*
X106917140Y-126688656D01*
X106917140Y-126688656D02*
X107012378Y-126736275D01*
X107012378Y-126736275D02*
X107107616Y-126831513D01*
X107107616Y-126831513D02*
X107155235Y-127021989D01*
X107155235Y-127021989D02*
X107155235Y-127355322D01*
X107155235Y-127355322D02*
X107107616Y-127545798D01*
X107107616Y-127545798D02*
X107012378Y-127641037D01*
X107012378Y-127641037D02*
X106917140Y-127688656D01*
X106917140Y-127688656D02*
X106726664Y-127688656D01*
X107488569Y-126688656D02*
X108107616Y-126688656D01*
X108107616Y-126688656D02*
X107774283Y-127069608D01*
X107774283Y-127069608D02*
X107917140Y-127069608D01*
X107917140Y-127069608D02*
X108012378Y-127117227D01*
X108012378Y-127117227D02*
X108059997Y-127164846D01*
X108059997Y-127164846D02*
X108107616Y-127260084D01*
X108107616Y-127260084D02*
X108107616Y-127498179D01*
X108107616Y-127498179D02*
X108059997Y-127593417D01*
X108059997Y-127593417D02*
X108012378Y-127641037D01*
X108012378Y-127641037D02*
X107917140Y-127688656D01*
X107917140Y-127688656D02*
X107631426Y-127688656D01*
X107631426Y-127688656D02*
X107536188Y-127641037D01*
X107536188Y-127641037D02*
X107488569Y-127593417D01*
X69915966Y-114454004D02*
X69439775Y-114787337D01*
X69915966Y-115025432D02*
X68915966Y-115025432D01*
X68915966Y-115025432D02*
X68915966Y-114644480D01*
X68915966Y-114644480D02*
X68963585Y-114549242D01*
X68963585Y-114549242D02*
X69011204Y-114501623D01*
X69011204Y-114501623D02*
X69106442Y-114454004D01*
X69106442Y-114454004D02*
X69249299Y-114454004D01*
X69249299Y-114454004D02*
X69344537Y-114501623D01*
X69344537Y-114501623D02*
X69392156Y-114549242D01*
X69392156Y-114549242D02*
X69439775Y-114644480D01*
X69439775Y-114644480D02*
X69439775Y-115025432D01*
X69011204Y-114073051D02*
X68963585Y-114025432D01*
X68963585Y-114025432D02*
X68915966Y-113930194D01*
X68915966Y-113930194D02*
X68915966Y-113692099D01*
X68915966Y-113692099D02*
X68963585Y-113596861D01*
X68963585Y-113596861D02*
X69011204Y-113549242D01*
X69011204Y-113549242D02*
X69106442Y-113501623D01*
X69106442Y-113501623D02*
X69201680Y-113501623D01*
X69201680Y-113501623D02*
X69344537Y-113549242D01*
X69344537Y-113549242D02*
X69915966Y-114120670D01*
X69915966Y-114120670D02*
X69915966Y-113501623D01*
X68915966Y-113168289D02*
X68915966Y-112549242D01*
X68915966Y-112549242D02*
X69296918Y-112882575D01*
X69296918Y-112882575D02*
X69296918Y-112739718D01*
X69296918Y-112739718D02*
X69344537Y-112644480D01*
X69344537Y-112644480D02*
X69392156Y-112596861D01*
X69392156Y-112596861D02*
X69487394Y-112549242D01*
X69487394Y-112549242D02*
X69725489Y-112549242D01*
X69725489Y-112549242D02*
X69820727Y-112596861D01*
X69820727Y-112596861D02*
X69868347Y-112644480D01*
X69868347Y-112644480D02*
X69915966Y-112739718D01*
X69915966Y-112739718D02*
X69915966Y-113025432D01*
X69915966Y-113025432D02*
X69868347Y-113120670D01*
X69868347Y-113120670D02*
X69820727Y-113168289D01*
X113437673Y-124926694D02*
X113485293Y-124974313D01*
X113485293Y-124974313D02*
X113532912Y-125117170D01*
X113532912Y-125117170D02*
X113532912Y-125212408D01*
X113532912Y-125212408D02*
X113485293Y-125355265D01*
X113485293Y-125355265D02*
X113390054Y-125450503D01*
X113390054Y-125450503D02*
X113294816Y-125498122D01*
X113294816Y-125498122D02*
X113104340Y-125545741D01*
X113104340Y-125545741D02*
X112961483Y-125545741D01*
X112961483Y-125545741D02*
X112771007Y-125498122D01*
X112771007Y-125498122D02*
X112675769Y-125450503D01*
X112675769Y-125450503D02*
X112580531Y-125355265D01*
X112580531Y-125355265D02*
X112532912Y-125212408D01*
X112532912Y-125212408D02*
X112532912Y-125117170D01*
X112532912Y-125117170D02*
X112580531Y-124974313D01*
X112580531Y-124974313D02*
X112628150Y-124926694D01*
X113532912Y-123974313D02*
X113532912Y-124545741D01*
X113532912Y-124260027D02*
X112532912Y-124260027D01*
X112532912Y-124260027D02*
X112675769Y-124355265D01*
X112675769Y-124355265D02*
X112771007Y-124450503D01*
X112771007Y-124450503D02*
X112818626Y-124545741D01*
X112628150Y-123593360D02*
X112580531Y-123545741D01*
X112580531Y-123545741D02*
X112532912Y-123450503D01*
X112532912Y-123450503D02*
X112532912Y-123212408D01*
X112532912Y-123212408D02*
X112580531Y-123117170D01*
X112580531Y-123117170D02*
X112628150Y-123069551D01*
X112628150Y-123069551D02*
X112723388Y-123021932D01*
X112723388Y-123021932D02*
X112818626Y-123021932D01*
X112818626Y-123021932D02*
X112961483Y-123069551D01*
X112961483Y-123069551D02*
X113532912Y-123640979D01*
X113532912Y-123640979D02*
X113532912Y-123021932D01*
X107207142Y-123554819D02*
X106873809Y-123078628D01*
X106635714Y-123554819D02*
X106635714Y-122554819D01*
X106635714Y-122554819D02*
X107016666Y-122554819D01*
X107016666Y-122554819D02*
X107111904Y-122602438D01*
X107111904Y-122602438D02*
X107159523Y-122650057D01*
X107159523Y-122650057D02*
X107207142Y-122745295D01*
X107207142Y-122745295D02*
X107207142Y-122888152D01*
X107207142Y-122888152D02*
X107159523Y-122983390D01*
X107159523Y-122983390D02*
X107111904Y-123031009D01*
X107111904Y-123031009D02*
X107016666Y-123078628D01*
X107016666Y-123078628D02*
X106635714Y-123078628D01*
X107588095Y-122650057D02*
X107635714Y-122602438D01*
X107635714Y-122602438D02*
X107730952Y-122554819D01*
X107730952Y-122554819D02*
X107969047Y-122554819D01*
X107969047Y-122554819D02*
X108064285Y-122602438D01*
X108064285Y-122602438D02*
X108111904Y-122650057D01*
X108111904Y-122650057D02*
X108159523Y-122745295D01*
X108159523Y-122745295D02*
X108159523Y-122840533D01*
X108159523Y-122840533D02*
X108111904Y-122983390D01*
X108111904Y-122983390D02*
X107540476Y-123554819D01*
X107540476Y-123554819D02*
X108159523Y-123554819D01*
X109016666Y-122888152D02*
X109016666Y-123554819D01*
X108778571Y-122507200D02*
X108540476Y-123221485D01*
X108540476Y-123221485D02*
X109159523Y-123221485D01*
X113894819Y-70431904D02*
X114704342Y-70431904D01*
X114704342Y-70431904D02*
X114799580Y-70384285D01*
X114799580Y-70384285D02*
X114847200Y-70336666D01*
X114847200Y-70336666D02*
X114894819Y-70241428D01*
X114894819Y-70241428D02*
X114894819Y-70050952D01*
X114894819Y-70050952D02*
X114847200Y-69955714D01*
X114847200Y-69955714D02*
X114799580Y-69908095D01*
X114799580Y-69908095D02*
X114704342Y-69860476D01*
X114704342Y-69860476D02*
X113894819Y-69860476D01*
X114894819Y-68860476D02*
X114894819Y-69431904D01*
X114894819Y-69146190D02*
X113894819Y-69146190D01*
X113894819Y-69146190D02*
X114037676Y-69241428D01*
X114037676Y-69241428D02*
X114132914Y-69336666D01*
X114132914Y-69336666D02*
X114180533Y-69431904D01*
X101943333Y-52060180D02*
X101943333Y-51345895D01*
X101943333Y-51345895D02*
X101990952Y-51203038D01*
X101990952Y-51203038D02*
X102086190Y-51107800D01*
X102086190Y-51107800D02*
X102229047Y-51060180D01*
X102229047Y-51060180D02*
X102324285Y-51060180D01*
X100943333Y-51060180D02*
X101514761Y-51060180D01*
X101229047Y-51060180D02*
X101229047Y-52060180D01*
X101229047Y-52060180D02*
X101324285Y-51917323D01*
X101324285Y-51917323D02*
X101419523Y-51822085D01*
X101419523Y-51822085D02*
X101514761Y-51774466D01*
X120757142Y-62254819D02*
X120423809Y-61778628D01*
X120185714Y-62254819D02*
X120185714Y-61254819D01*
X120185714Y-61254819D02*
X120566666Y-61254819D01*
X120566666Y-61254819D02*
X120661904Y-61302438D01*
X120661904Y-61302438D02*
X120709523Y-61350057D01*
X120709523Y-61350057D02*
X120757142Y-61445295D01*
X120757142Y-61445295D02*
X120757142Y-61588152D01*
X120757142Y-61588152D02*
X120709523Y-61683390D01*
X120709523Y-61683390D02*
X120661904Y-61731009D01*
X120661904Y-61731009D02*
X120566666Y-61778628D01*
X120566666Y-61778628D02*
X120185714Y-61778628D01*
X121090476Y-61254819D02*
X121709523Y-61254819D01*
X121709523Y-61254819D02*
X121376190Y-61635771D01*
X121376190Y-61635771D02*
X121519047Y-61635771D01*
X121519047Y-61635771D02*
X121614285Y-61683390D01*
X121614285Y-61683390D02*
X121661904Y-61731009D01*
X121661904Y-61731009D02*
X121709523Y-61826247D01*
X121709523Y-61826247D02*
X121709523Y-62064342D01*
X121709523Y-62064342D02*
X121661904Y-62159580D01*
X121661904Y-62159580D02*
X121614285Y-62207200D01*
X121614285Y-62207200D02*
X121519047Y-62254819D01*
X121519047Y-62254819D02*
X121233333Y-62254819D01*
X121233333Y-62254819D02*
X121138095Y-62207200D01*
X121138095Y-62207200D02*
X121090476Y-62159580D01*
X122614285Y-61254819D02*
X122138095Y-61254819D01*
X122138095Y-61254819D02*
X122090476Y-61731009D01*
X122090476Y-61731009D02*
X122138095Y-61683390D01*
X122138095Y-61683390D02*
X122233333Y-61635771D01*
X122233333Y-61635771D02*
X122471428Y-61635771D01*
X122471428Y-61635771D02*
X122566666Y-61683390D01*
X122566666Y-61683390D02*
X122614285Y-61731009D01*
X122614285Y-61731009D02*
X122661904Y-61826247D01*
X122661904Y-61826247D02*
X122661904Y-62064342D01*
X122661904Y-62064342D02*
X122614285Y-62159580D01*
X122614285Y-62159580D02*
X122566666Y-62207200D01*
X122566666Y-62207200D02*
X122471428Y-62254819D01*
X122471428Y-62254819D02*
X122233333Y-62254819D01*
X122233333Y-62254819D02*
X122138095Y-62207200D01*
X122138095Y-62207200D02*
X122090476Y-62159580D01*
X120757142Y-64504819D02*
X120423809Y-64028628D01*
X120185714Y-64504819D02*
X120185714Y-63504819D01*
X120185714Y-63504819D02*
X120566666Y-63504819D01*
X120566666Y-63504819D02*
X120661904Y-63552438D01*
X120661904Y-63552438D02*
X120709523Y-63600057D01*
X120709523Y-63600057D02*
X120757142Y-63695295D01*
X120757142Y-63695295D02*
X120757142Y-63838152D01*
X120757142Y-63838152D02*
X120709523Y-63933390D01*
X120709523Y-63933390D02*
X120661904Y-63981009D01*
X120661904Y-63981009D02*
X120566666Y-64028628D01*
X120566666Y-64028628D02*
X120185714Y-64028628D01*
X121090476Y-63504819D02*
X121709523Y-63504819D01*
X121709523Y-63504819D02*
X121376190Y-63885771D01*
X121376190Y-63885771D02*
X121519047Y-63885771D01*
X121519047Y-63885771D02*
X121614285Y-63933390D01*
X121614285Y-63933390D02*
X121661904Y-63981009D01*
X121661904Y-63981009D02*
X121709523Y-64076247D01*
X121709523Y-64076247D02*
X121709523Y-64314342D01*
X121709523Y-64314342D02*
X121661904Y-64409580D01*
X121661904Y-64409580D02*
X121614285Y-64457200D01*
X121614285Y-64457200D02*
X121519047Y-64504819D01*
X121519047Y-64504819D02*
X121233333Y-64504819D01*
X121233333Y-64504819D02*
X121138095Y-64457200D01*
X121138095Y-64457200D02*
X121090476Y-64409580D01*
X122280952Y-63933390D02*
X122185714Y-63885771D01*
X122185714Y-63885771D02*
X122138095Y-63838152D01*
X122138095Y-63838152D02*
X122090476Y-63742914D01*
X122090476Y-63742914D02*
X122090476Y-63695295D01*
X122090476Y-63695295D02*
X122138095Y-63600057D01*
X122138095Y-63600057D02*
X122185714Y-63552438D01*
X122185714Y-63552438D02*
X122280952Y-63504819D01*
X122280952Y-63504819D02*
X122471428Y-63504819D01*
X122471428Y-63504819D02*
X122566666Y-63552438D01*
X122566666Y-63552438D02*
X122614285Y-63600057D01*
X122614285Y-63600057D02*
X122661904Y-63695295D01*
X122661904Y-63695295D02*
X122661904Y-63742914D01*
X122661904Y-63742914D02*
X122614285Y-63838152D01*
X122614285Y-63838152D02*
X122566666Y-63885771D01*
X122566666Y-63885771D02*
X122471428Y-63933390D01*
X122471428Y-63933390D02*
X122280952Y-63933390D01*
X122280952Y-63933390D02*
X122185714Y-63981009D01*
X122185714Y-63981009D02*
X122138095Y-64028628D01*
X122138095Y-64028628D02*
X122090476Y-64123866D01*
X122090476Y-64123866D02*
X122090476Y-64314342D01*
X122090476Y-64314342D02*
X122138095Y-64409580D01*
X122138095Y-64409580D02*
X122185714Y-64457200D01*
X122185714Y-64457200D02*
X122280952Y-64504819D01*
X122280952Y-64504819D02*
X122471428Y-64504819D01*
X122471428Y-64504819D02*
X122566666Y-64457200D01*
X122566666Y-64457200D02*
X122614285Y-64409580D01*
X122614285Y-64409580D02*
X122661904Y-64314342D01*
X122661904Y-64314342D02*
X122661904Y-64123866D01*
X122661904Y-64123866D02*
X122614285Y-64028628D01*
X122614285Y-64028628D02*
X122566666Y-63981009D01*
X122566666Y-63981009D02*
X122471428Y-63933390D01*
X109195388Y-82059775D02*
X108719197Y-82393108D01*
X109195388Y-82631203D02*
X108195388Y-82631203D01*
X108195388Y-82631203D02*
X108195388Y-82250251D01*
X108195388Y-82250251D02*
X108243007Y-82155013D01*
X108243007Y-82155013D02*
X108290626Y-82107394D01*
X108290626Y-82107394D02*
X108385864Y-82059775D01*
X108385864Y-82059775D02*
X108528721Y-82059775D01*
X108528721Y-82059775D02*
X108623959Y-82107394D01*
X108623959Y-82107394D02*
X108671578Y-82155013D01*
X108671578Y-82155013D02*
X108719197Y-82250251D01*
X108719197Y-82250251D02*
X108719197Y-82631203D01*
X109195388Y-81107394D02*
X109195388Y-81678822D01*
X109195388Y-81393108D02*
X108195388Y-81393108D01*
X108195388Y-81393108D02*
X108338245Y-81488346D01*
X108338245Y-81488346D02*
X108433483Y-81583584D01*
X108433483Y-81583584D02*
X108481102Y-81678822D01*
X109195388Y-80155013D02*
X109195388Y-80726441D01*
X109195388Y-80440727D02*
X108195388Y-80440727D01*
X108195388Y-80440727D02*
X108338245Y-80535965D01*
X108338245Y-80535965D02*
X108433483Y-80631203D01*
X108433483Y-80631203D02*
X108481102Y-80726441D01*
X111473333Y-66074819D02*
X111140000Y-65598628D01*
X110901905Y-66074819D02*
X110901905Y-65074819D01*
X110901905Y-65074819D02*
X111282857Y-65074819D01*
X111282857Y-65074819D02*
X111378095Y-65122438D01*
X111378095Y-65122438D02*
X111425714Y-65170057D01*
X111425714Y-65170057D02*
X111473333Y-65265295D01*
X111473333Y-65265295D02*
X111473333Y-65408152D01*
X111473333Y-65408152D02*
X111425714Y-65503390D01*
X111425714Y-65503390D02*
X111378095Y-65551009D01*
X111378095Y-65551009D02*
X111282857Y-65598628D01*
X111282857Y-65598628D02*
X110901905Y-65598628D01*
X112378095Y-65074819D02*
X111901905Y-65074819D01*
X111901905Y-65074819D02*
X111854286Y-65551009D01*
X111854286Y-65551009D02*
X111901905Y-65503390D01*
X111901905Y-65503390D02*
X111997143Y-65455771D01*
X111997143Y-65455771D02*
X112235238Y-65455771D01*
X112235238Y-65455771D02*
X112330476Y-65503390D01*
X112330476Y-65503390D02*
X112378095Y-65551009D01*
X112378095Y-65551009D02*
X112425714Y-65646247D01*
X112425714Y-65646247D02*
X112425714Y-65884342D01*
X112425714Y-65884342D02*
X112378095Y-65979580D01*
X112378095Y-65979580D02*
X112330476Y-66027200D01*
X112330476Y-66027200D02*
X112235238Y-66074819D01*
X112235238Y-66074819D02*
X111997143Y-66074819D01*
X111997143Y-66074819D02*
X111901905Y-66027200D01*
X111901905Y-66027200D02*
X111854286Y-65979580D01*
X54457142Y-123589580D02*
X54409523Y-123637200D01*
X54409523Y-123637200D02*
X54266666Y-123684819D01*
X54266666Y-123684819D02*
X54171428Y-123684819D01*
X54171428Y-123684819D02*
X54028571Y-123637200D01*
X54028571Y-123637200D02*
X53933333Y-123541961D01*
X53933333Y-123541961D02*
X53885714Y-123446723D01*
X53885714Y-123446723D02*
X53838095Y-123256247D01*
X53838095Y-123256247D02*
X53838095Y-123113390D01*
X53838095Y-123113390D02*
X53885714Y-122922914D01*
X53885714Y-122922914D02*
X53933333Y-122827676D01*
X53933333Y-122827676D02*
X54028571Y-122732438D01*
X54028571Y-122732438D02*
X54171428Y-122684819D01*
X54171428Y-122684819D02*
X54266666Y-122684819D01*
X54266666Y-122684819D02*
X54409523Y-122732438D01*
X54409523Y-122732438D02*
X54457142Y-122780057D01*
X54838095Y-122780057D02*
X54885714Y-122732438D01*
X54885714Y-122732438D02*
X54980952Y-122684819D01*
X54980952Y-122684819D02*
X55219047Y-122684819D01*
X55219047Y-122684819D02*
X55314285Y-122732438D01*
X55314285Y-122732438D02*
X55361904Y-122780057D01*
X55361904Y-122780057D02*
X55409523Y-122875295D01*
X55409523Y-122875295D02*
X55409523Y-122970533D01*
X55409523Y-122970533D02*
X55361904Y-123113390D01*
X55361904Y-123113390D02*
X54790476Y-123684819D01*
X54790476Y-123684819D02*
X55409523Y-123684819D01*
X56314285Y-122684819D02*
X55838095Y-122684819D01*
X55838095Y-122684819D02*
X55790476Y-123161009D01*
X55790476Y-123161009D02*
X55838095Y-123113390D01*
X55838095Y-123113390D02*
X55933333Y-123065771D01*
X55933333Y-123065771D02*
X56171428Y-123065771D01*
X56171428Y-123065771D02*
X56266666Y-123113390D01*
X56266666Y-123113390D02*
X56314285Y-123161009D01*
X56314285Y-123161009D02*
X56361904Y-123256247D01*
X56361904Y-123256247D02*
X56361904Y-123494342D01*
X56361904Y-123494342D02*
X56314285Y-123589580D01*
X56314285Y-123589580D02*
X56266666Y-123637200D01*
X56266666Y-123637200D02*
X56171428Y-123684819D01*
X56171428Y-123684819D02*
X55933333Y-123684819D01*
X55933333Y-123684819D02*
X55838095Y-123637200D01*
X55838095Y-123637200D02*
X55790476Y-123589580D01*
X66974819Y-124785357D02*
X66498628Y-125118690D01*
X66974819Y-125356785D02*
X65974819Y-125356785D01*
X65974819Y-125356785D02*
X65974819Y-124975833D01*
X65974819Y-124975833D02*
X66022438Y-124880595D01*
X66022438Y-124880595D02*
X66070057Y-124832976D01*
X66070057Y-124832976D02*
X66165295Y-124785357D01*
X66165295Y-124785357D02*
X66308152Y-124785357D01*
X66308152Y-124785357D02*
X66403390Y-124832976D01*
X66403390Y-124832976D02*
X66451009Y-124880595D01*
X66451009Y-124880595D02*
X66498628Y-124975833D01*
X66498628Y-124975833D02*
X66498628Y-125356785D01*
X66070057Y-124404404D02*
X66022438Y-124356785D01*
X66022438Y-124356785D02*
X65974819Y-124261547D01*
X65974819Y-124261547D02*
X65974819Y-124023452D01*
X65974819Y-124023452D02*
X66022438Y-123928214D01*
X66022438Y-123928214D02*
X66070057Y-123880595D01*
X66070057Y-123880595D02*
X66165295Y-123832976D01*
X66165295Y-123832976D02*
X66260533Y-123832976D01*
X66260533Y-123832976D02*
X66403390Y-123880595D01*
X66403390Y-123880595D02*
X66974819Y-124452023D01*
X66974819Y-124452023D02*
X66974819Y-123832976D01*
X66974819Y-122880595D02*
X66974819Y-123452023D01*
X66974819Y-123166309D02*
X65974819Y-123166309D01*
X65974819Y-123166309D02*
X66117676Y-123261547D01*
X66117676Y-123261547D02*
X66212914Y-123356785D01*
X66212914Y-123356785D02*
X66260533Y-123452023D01*
X59297142Y-107299819D02*
X58963809Y-106823628D01*
X58725714Y-107299819D02*
X58725714Y-106299819D01*
X58725714Y-106299819D02*
X59106666Y-106299819D01*
X59106666Y-106299819D02*
X59201904Y-106347438D01*
X59201904Y-106347438D02*
X59249523Y-106395057D01*
X59249523Y-106395057D02*
X59297142Y-106490295D01*
X59297142Y-106490295D02*
X59297142Y-106633152D01*
X59297142Y-106633152D02*
X59249523Y-106728390D01*
X59249523Y-106728390D02*
X59201904Y-106776009D01*
X59201904Y-106776009D02*
X59106666Y-106823628D01*
X59106666Y-106823628D02*
X58725714Y-106823628D01*
X60249523Y-107299819D02*
X59678095Y-107299819D01*
X59963809Y-107299819D02*
X59963809Y-106299819D01*
X59963809Y-106299819D02*
X59868571Y-106442676D01*
X59868571Y-106442676D02*
X59773333Y-106537914D01*
X59773333Y-106537914D02*
X59678095Y-106585533D01*
X60820952Y-106728390D02*
X60725714Y-106680771D01*
X60725714Y-106680771D02*
X60678095Y-106633152D01*
X60678095Y-106633152D02*
X60630476Y-106537914D01*
X60630476Y-106537914D02*
X60630476Y-106490295D01*
X60630476Y-106490295D02*
X60678095Y-106395057D01*
X60678095Y-106395057D02*
X60725714Y-106347438D01*
X60725714Y-106347438D02*
X60820952Y-106299819D01*
X60820952Y-106299819D02*
X61011428Y-106299819D01*
X61011428Y-106299819D02*
X61106666Y-106347438D01*
X61106666Y-106347438D02*
X61154285Y-106395057D01*
X61154285Y-106395057D02*
X61201904Y-106490295D01*
X61201904Y-106490295D02*
X61201904Y-106537914D01*
X61201904Y-106537914D02*
X61154285Y-106633152D01*
X61154285Y-106633152D02*
X61106666Y-106680771D01*
X61106666Y-106680771D02*
X61011428Y-106728390D01*
X61011428Y-106728390D02*
X60820952Y-106728390D01*
X60820952Y-106728390D02*
X60725714Y-106776009D01*
X60725714Y-106776009D02*
X60678095Y-106823628D01*
X60678095Y-106823628D02*
X60630476Y-106918866D01*
X60630476Y-106918866D02*
X60630476Y-107109342D01*
X60630476Y-107109342D02*
X60678095Y-107204580D01*
X60678095Y-107204580D02*
X60725714Y-107252200D01*
X60725714Y-107252200D02*
X60820952Y-107299819D01*
X60820952Y-107299819D02*
X61011428Y-107299819D01*
X61011428Y-107299819D02*
X61106666Y-107252200D01*
X61106666Y-107252200D02*
X61154285Y-107204580D01*
X61154285Y-107204580D02*
X61201904Y-107109342D01*
X61201904Y-107109342D02*
X61201904Y-106918866D01*
X61201904Y-106918866D02*
X61154285Y-106823628D01*
X61154285Y-106823628D02*
X61106666Y-106776009D01*
X61106666Y-106776009D02*
X61011428Y-106728390D01*
X58797142Y-120174580D02*
X58749523Y-120222200D01*
X58749523Y-120222200D02*
X58606666Y-120269819D01*
X58606666Y-120269819D02*
X58511428Y-120269819D01*
X58511428Y-120269819D02*
X58368571Y-120222200D01*
X58368571Y-120222200D02*
X58273333Y-120126961D01*
X58273333Y-120126961D02*
X58225714Y-120031723D01*
X58225714Y-120031723D02*
X58178095Y-119841247D01*
X58178095Y-119841247D02*
X58178095Y-119698390D01*
X58178095Y-119698390D02*
X58225714Y-119507914D01*
X58225714Y-119507914D02*
X58273333Y-119412676D01*
X58273333Y-119412676D02*
X58368571Y-119317438D01*
X58368571Y-119317438D02*
X58511428Y-119269819D01*
X58511428Y-119269819D02*
X58606666Y-119269819D01*
X58606666Y-119269819D02*
X58749523Y-119317438D01*
X58749523Y-119317438D02*
X58797142Y-119365057D01*
X59178095Y-119365057D02*
X59225714Y-119317438D01*
X59225714Y-119317438D02*
X59320952Y-119269819D01*
X59320952Y-119269819D02*
X59559047Y-119269819D01*
X59559047Y-119269819D02*
X59654285Y-119317438D01*
X59654285Y-119317438D02*
X59701904Y-119365057D01*
X59701904Y-119365057D02*
X59749523Y-119460295D01*
X59749523Y-119460295D02*
X59749523Y-119555533D01*
X59749523Y-119555533D02*
X59701904Y-119698390D01*
X59701904Y-119698390D02*
X59130476Y-120269819D01*
X59130476Y-120269819D02*
X59749523Y-120269819D01*
X60082857Y-119269819D02*
X60701904Y-119269819D01*
X60701904Y-119269819D02*
X60368571Y-119650771D01*
X60368571Y-119650771D02*
X60511428Y-119650771D01*
X60511428Y-119650771D02*
X60606666Y-119698390D01*
X60606666Y-119698390D02*
X60654285Y-119746009D01*
X60654285Y-119746009D02*
X60701904Y-119841247D01*
X60701904Y-119841247D02*
X60701904Y-120079342D01*
X60701904Y-120079342D02*
X60654285Y-120174580D01*
X60654285Y-120174580D02*
X60606666Y-120222200D01*
X60606666Y-120222200D02*
X60511428Y-120269819D01*
X60511428Y-120269819D02*
X60225714Y-120269819D01*
X60225714Y-120269819D02*
X60130476Y-120222200D01*
X60130476Y-120222200D02*
X60082857Y-120174580D01*
X99984642Y-80387080D02*
X99937023Y-80434700D01*
X99937023Y-80434700D02*
X99794166Y-80482319D01*
X99794166Y-80482319D02*
X99698928Y-80482319D01*
X99698928Y-80482319D02*
X99556071Y-80434700D01*
X99556071Y-80434700D02*
X99460833Y-80339461D01*
X99460833Y-80339461D02*
X99413214Y-80244223D01*
X99413214Y-80244223D02*
X99365595Y-80053747D01*
X99365595Y-80053747D02*
X99365595Y-79910890D01*
X99365595Y-79910890D02*
X99413214Y-79720414D01*
X99413214Y-79720414D02*
X99460833Y-79625176D01*
X99460833Y-79625176D02*
X99556071Y-79529938D01*
X99556071Y-79529938D02*
X99698928Y-79482319D01*
X99698928Y-79482319D02*
X99794166Y-79482319D01*
X99794166Y-79482319D02*
X99937023Y-79529938D01*
X99937023Y-79529938D02*
X99984642Y-79577557D01*
X100365595Y-79577557D02*
X100413214Y-79529938D01*
X100413214Y-79529938D02*
X100508452Y-79482319D01*
X100508452Y-79482319D02*
X100746547Y-79482319D01*
X100746547Y-79482319D02*
X100841785Y-79529938D01*
X100841785Y-79529938D02*
X100889404Y-79577557D01*
X100889404Y-79577557D02*
X100937023Y-79672795D01*
X100937023Y-79672795D02*
X100937023Y-79768033D01*
X100937023Y-79768033D02*
X100889404Y-79910890D01*
X100889404Y-79910890D02*
X100317976Y-80482319D01*
X100317976Y-80482319D02*
X100937023Y-80482319D01*
X101556071Y-79482319D02*
X101651309Y-79482319D01*
X101651309Y-79482319D02*
X101746547Y-79529938D01*
X101746547Y-79529938D02*
X101794166Y-79577557D01*
X101794166Y-79577557D02*
X101841785Y-79672795D01*
X101841785Y-79672795D02*
X101889404Y-79863271D01*
X101889404Y-79863271D02*
X101889404Y-80101366D01*
X101889404Y-80101366D02*
X101841785Y-80291842D01*
X101841785Y-80291842D02*
X101794166Y-80387080D01*
X101794166Y-80387080D02*
X101746547Y-80434700D01*
X101746547Y-80434700D02*
X101651309Y-80482319D01*
X101651309Y-80482319D02*
X101556071Y-80482319D01*
X101556071Y-80482319D02*
X101460833Y-80434700D01*
X101460833Y-80434700D02*
X101413214Y-80387080D01*
X101413214Y-80387080D02*
X101365595Y-80291842D01*
X101365595Y-80291842D02*
X101317976Y-80101366D01*
X101317976Y-80101366D02*
X101317976Y-79863271D01*
X101317976Y-79863271D02*
X101365595Y-79672795D01*
X101365595Y-79672795D02*
X101413214Y-79577557D01*
X101413214Y-79577557D02*
X101460833Y-79529938D01*
X101460833Y-79529938D02*
X101556071Y-79482319D01*
X67857142Y-107029580D02*
X67809523Y-107077200D01*
X67809523Y-107077200D02*
X67666666Y-107124819D01*
X67666666Y-107124819D02*
X67571428Y-107124819D01*
X67571428Y-107124819D02*
X67428571Y-107077200D01*
X67428571Y-107077200D02*
X67333333Y-106981961D01*
X67333333Y-106981961D02*
X67285714Y-106886723D01*
X67285714Y-106886723D02*
X67238095Y-106696247D01*
X67238095Y-106696247D02*
X67238095Y-106553390D01*
X67238095Y-106553390D02*
X67285714Y-106362914D01*
X67285714Y-106362914D02*
X67333333Y-106267676D01*
X67333333Y-106267676D02*
X67428571Y-106172438D01*
X67428571Y-106172438D02*
X67571428Y-106124819D01*
X67571428Y-106124819D02*
X67666666Y-106124819D01*
X67666666Y-106124819D02*
X67809523Y-106172438D01*
X67809523Y-106172438D02*
X67857142Y-106220057D01*
X68809523Y-107124819D02*
X68238095Y-107124819D01*
X68523809Y-107124819D02*
X68523809Y-106124819D01*
X68523809Y-106124819D02*
X68428571Y-106267676D01*
X68428571Y-106267676D02*
X68333333Y-106362914D01*
X68333333Y-106362914D02*
X68238095Y-106410533D01*
X69142857Y-106124819D02*
X69761904Y-106124819D01*
X69761904Y-106124819D02*
X69428571Y-106505771D01*
X69428571Y-106505771D02*
X69571428Y-106505771D01*
X69571428Y-106505771D02*
X69666666Y-106553390D01*
X69666666Y-106553390D02*
X69714285Y-106601009D01*
X69714285Y-106601009D02*
X69761904Y-106696247D01*
X69761904Y-106696247D02*
X69761904Y-106934342D01*
X69761904Y-106934342D02*
X69714285Y-107029580D01*
X69714285Y-107029580D02*
X69666666Y-107077200D01*
X69666666Y-107077200D02*
X69571428Y-107124819D01*
X69571428Y-107124819D02*
X69285714Y-107124819D01*
X69285714Y-107124819D02*
X69190476Y-107077200D01*
X69190476Y-107077200D02*
X69142857Y-107029580D01*
X109537673Y-134138003D02*
X109585293Y-134185622D01*
X109585293Y-134185622D02*
X109632912Y-134328479D01*
X109632912Y-134328479D02*
X109632912Y-134423717D01*
X109632912Y-134423717D02*
X109585293Y-134566574D01*
X109585293Y-134566574D02*
X109490054Y-134661812D01*
X109490054Y-134661812D02*
X109394816Y-134709431D01*
X109394816Y-134709431D02*
X109204340Y-134757050D01*
X109204340Y-134757050D02*
X109061483Y-134757050D01*
X109061483Y-134757050D02*
X108871007Y-134709431D01*
X108871007Y-134709431D02*
X108775769Y-134661812D01*
X108775769Y-134661812D02*
X108680531Y-134566574D01*
X108680531Y-134566574D02*
X108632912Y-134423717D01*
X108632912Y-134423717D02*
X108632912Y-134328479D01*
X108632912Y-134328479D02*
X108680531Y-134185622D01*
X108680531Y-134185622D02*
X108728150Y-134138003D01*
X108966245Y-133280860D02*
X109632912Y-133280860D01*
X108585293Y-133518955D02*
X109299578Y-133757050D01*
X109299578Y-133757050D02*
X109299578Y-133138003D01*
X71407142Y-106454819D02*
X71073809Y-105978628D01*
X70835714Y-106454819D02*
X70835714Y-105454819D01*
X70835714Y-105454819D02*
X71216666Y-105454819D01*
X71216666Y-105454819D02*
X71311904Y-105502438D01*
X71311904Y-105502438D02*
X71359523Y-105550057D01*
X71359523Y-105550057D02*
X71407142Y-105645295D01*
X71407142Y-105645295D02*
X71407142Y-105788152D01*
X71407142Y-105788152D02*
X71359523Y-105883390D01*
X71359523Y-105883390D02*
X71311904Y-105931009D01*
X71311904Y-105931009D02*
X71216666Y-105978628D01*
X71216666Y-105978628D02*
X70835714Y-105978628D01*
X72359523Y-106454819D02*
X71788095Y-106454819D01*
X72073809Y-106454819D02*
X72073809Y-105454819D01*
X72073809Y-105454819D02*
X71978571Y-105597676D01*
X71978571Y-105597676D02*
X71883333Y-105692914D01*
X71883333Y-105692914D02*
X71788095Y-105740533D01*
X72692857Y-105454819D02*
X73311904Y-105454819D01*
X73311904Y-105454819D02*
X72978571Y-105835771D01*
X72978571Y-105835771D02*
X73121428Y-105835771D01*
X73121428Y-105835771D02*
X73216666Y-105883390D01*
X73216666Y-105883390D02*
X73264285Y-105931009D01*
X73264285Y-105931009D02*
X73311904Y-106026247D01*
X73311904Y-106026247D02*
X73311904Y-106264342D01*
X73311904Y-106264342D02*
X73264285Y-106359580D01*
X73264285Y-106359580D02*
X73216666Y-106407200D01*
X73216666Y-106407200D02*
X73121428Y-106454819D01*
X73121428Y-106454819D02*
X72835714Y-106454819D01*
X72835714Y-106454819D02*
X72740476Y-106407200D01*
X72740476Y-106407200D02*
X72692857Y-106359580D01*
X67875381Y-114442857D02*
X67399190Y-114776190D01*
X67875381Y-115014285D02*
X66875381Y-115014285D01*
X66875381Y-115014285D02*
X66875381Y-114633333D01*
X66875381Y-114633333D02*
X66923000Y-114538095D01*
X66923000Y-114538095D02*
X66970619Y-114490476D01*
X66970619Y-114490476D02*
X67065857Y-114442857D01*
X67065857Y-114442857D02*
X67208714Y-114442857D01*
X67208714Y-114442857D02*
X67303952Y-114490476D01*
X67303952Y-114490476D02*
X67351571Y-114538095D01*
X67351571Y-114538095D02*
X67399190Y-114633333D01*
X67399190Y-114633333D02*
X67399190Y-115014285D01*
X67875381Y-113490476D02*
X67875381Y-114061904D01*
X67875381Y-113776190D02*
X66875381Y-113776190D01*
X66875381Y-113776190D02*
X67018238Y-113871428D01*
X67018238Y-113871428D02*
X67113476Y-113966666D01*
X67113476Y-113966666D02*
X67161095Y-114061904D01*
X66875381Y-113157142D02*
X66875381Y-112490476D01*
X66875381Y-112490476D02*
X67875381Y-112919047D01*
X111602912Y-134138003D02*
X111126721Y-134471336D01*
X111602912Y-134709431D02*
X110602912Y-134709431D01*
X110602912Y-134709431D02*
X110602912Y-134328479D01*
X110602912Y-134328479D02*
X110650531Y-134233241D01*
X110650531Y-134233241D02*
X110698150Y-134185622D01*
X110698150Y-134185622D02*
X110793388Y-134138003D01*
X110793388Y-134138003D02*
X110936245Y-134138003D01*
X110936245Y-134138003D02*
X111031483Y-134185622D01*
X111031483Y-134185622D02*
X111079102Y-134233241D01*
X111079102Y-134233241D02*
X111126721Y-134328479D01*
X111126721Y-134328479D02*
X111126721Y-134709431D01*
X110936245Y-133280860D02*
X111602912Y-133280860D01*
X110555293Y-133518955D02*
X111269578Y-133757050D01*
X111269578Y-133757050D02*
X111269578Y-133138003D01*
X64809035Y-124740157D02*
X64332844Y-125073490D01*
X64809035Y-125311585D02*
X63809035Y-125311585D01*
X63809035Y-125311585D02*
X63809035Y-124930633D01*
X63809035Y-124930633D02*
X63856654Y-124835395D01*
X63856654Y-124835395D02*
X63904273Y-124787776D01*
X63904273Y-124787776D02*
X63999511Y-124740157D01*
X63999511Y-124740157D02*
X64142368Y-124740157D01*
X64142368Y-124740157D02*
X64237606Y-124787776D01*
X64237606Y-124787776D02*
X64285225Y-124835395D01*
X64285225Y-124835395D02*
X64332844Y-124930633D01*
X64332844Y-124930633D02*
X64332844Y-125311585D01*
X63904273Y-124359204D02*
X63856654Y-124311585D01*
X63856654Y-124311585D02*
X63809035Y-124216347D01*
X63809035Y-124216347D02*
X63809035Y-123978252D01*
X63809035Y-123978252D02*
X63856654Y-123883014D01*
X63856654Y-123883014D02*
X63904273Y-123835395D01*
X63904273Y-123835395D02*
X63999511Y-123787776D01*
X63999511Y-123787776D02*
X64094749Y-123787776D01*
X64094749Y-123787776D02*
X64237606Y-123835395D01*
X64237606Y-123835395D02*
X64809035Y-124406823D01*
X64809035Y-124406823D02*
X64809035Y-123787776D01*
X63809035Y-123168728D02*
X63809035Y-123073490D01*
X63809035Y-123073490D02*
X63856654Y-122978252D01*
X63856654Y-122978252D02*
X63904273Y-122930633D01*
X63904273Y-122930633D02*
X63999511Y-122883014D01*
X63999511Y-122883014D02*
X64189987Y-122835395D01*
X64189987Y-122835395D02*
X64428082Y-122835395D01*
X64428082Y-122835395D02*
X64618558Y-122883014D01*
X64618558Y-122883014D02*
X64713796Y-122930633D01*
X64713796Y-122930633D02*
X64761416Y-122978252D01*
X64761416Y-122978252D02*
X64809035Y-123073490D01*
X64809035Y-123073490D02*
X64809035Y-123168728D01*
X64809035Y-123168728D02*
X64761416Y-123263966D01*
X64761416Y-123263966D02*
X64713796Y-123311585D01*
X64713796Y-123311585D02*
X64618558Y-123359204D01*
X64618558Y-123359204D02*
X64428082Y-123406823D01*
X64428082Y-123406823D02*
X64189987Y-123406823D01*
X64189987Y-123406823D02*
X63999511Y-123359204D01*
X63999511Y-123359204D02*
X63904273Y-123311585D01*
X63904273Y-123311585D02*
X63856654Y-123263966D01*
X63856654Y-123263966D02*
X63809035Y-123168728D01*
X63704819Y-54961904D02*
X62704819Y-54961904D01*
X63181009Y-54961904D02*
X63181009Y-54390476D01*
X63704819Y-54390476D02*
X62704819Y-54390476D01*
X63133390Y-53771428D02*
X63085771Y-53866666D01*
X63085771Y-53866666D02*
X63038152Y-53914285D01*
X63038152Y-53914285D02*
X62942914Y-53961904D01*
X62942914Y-53961904D02*
X62895295Y-53961904D01*
X62895295Y-53961904D02*
X62800057Y-53914285D01*
X62800057Y-53914285D02*
X62752438Y-53866666D01*
X62752438Y-53866666D02*
X62704819Y-53771428D01*
X62704819Y-53771428D02*
X62704819Y-53580952D01*
X62704819Y-53580952D02*
X62752438Y-53485714D01*
X62752438Y-53485714D02*
X62800057Y-53438095D01*
X62800057Y-53438095D02*
X62895295Y-53390476D01*
X62895295Y-53390476D02*
X62942914Y-53390476D01*
X62942914Y-53390476D02*
X63038152Y-53438095D01*
X63038152Y-53438095D02*
X63085771Y-53485714D01*
X63085771Y-53485714D02*
X63133390Y-53580952D01*
X63133390Y-53580952D02*
X63133390Y-53771428D01*
X63133390Y-53771428D02*
X63181009Y-53866666D01*
X63181009Y-53866666D02*
X63228628Y-53914285D01*
X63228628Y-53914285D02*
X63323866Y-53961904D01*
X63323866Y-53961904D02*
X63514342Y-53961904D01*
X63514342Y-53961904D02*
X63609580Y-53914285D01*
X63609580Y-53914285D02*
X63657200Y-53866666D01*
X63657200Y-53866666D02*
X63704819Y-53771428D01*
X63704819Y-53771428D02*
X63704819Y-53580952D01*
X63704819Y-53580952D02*
X63657200Y-53485714D01*
X63657200Y-53485714D02*
X63609580Y-53438095D01*
X63609580Y-53438095D02*
X63514342Y-53390476D01*
X63514342Y-53390476D02*
X63323866Y-53390476D01*
X63323866Y-53390476D02*
X63228628Y-53438095D01*
X63228628Y-53438095D02*
X63181009Y-53485714D01*
X63181009Y-53485714D02*
X63133390Y-53580952D01*
X118193333Y-52060180D02*
X118193333Y-51345895D01*
X118193333Y-51345895D02*
X118240952Y-51203038D01*
X118240952Y-51203038D02*
X118336190Y-51107800D01*
X118336190Y-51107800D02*
X118479047Y-51060180D01*
X118479047Y-51060180D02*
X118574285Y-51060180D01*
X117288571Y-51726847D02*
X117288571Y-51060180D01*
X117526666Y-52107800D02*
X117764761Y-51393514D01*
X117764761Y-51393514D02*
X117145714Y-51393514D01*
X108158607Y-77871256D02*
X108110988Y-77966494D01*
X108110988Y-77966494D02*
X108015750Y-78061732D01*
X108015750Y-78061732D02*
X107872892Y-78204589D01*
X107872892Y-78204589D02*
X107825273Y-78299827D01*
X107825273Y-78299827D02*
X107825273Y-78395065D01*
X108063369Y-78347446D02*
X108015750Y-78442684D01*
X108015750Y-78442684D02*
X107920511Y-78537922D01*
X107920511Y-78537922D02*
X107730035Y-78585541D01*
X107730035Y-78585541D02*
X107396702Y-78585541D01*
X107396702Y-78585541D02*
X107206226Y-78537922D01*
X107206226Y-78537922D02*
X107110988Y-78442684D01*
X107110988Y-78442684D02*
X107063369Y-78347446D01*
X107063369Y-78347446D02*
X107063369Y-78156970D01*
X107063369Y-78156970D02*
X107110988Y-78061732D01*
X107110988Y-78061732D02*
X107206226Y-77966494D01*
X107206226Y-77966494D02*
X107396702Y-77918875D01*
X107396702Y-77918875D02*
X107730035Y-77918875D01*
X107730035Y-77918875D02*
X107920511Y-77966494D01*
X107920511Y-77966494D02*
X108015750Y-78061732D01*
X108015750Y-78061732D02*
X108063369Y-78156970D01*
X108063369Y-78156970D02*
X108063369Y-78347446D01*
X108063369Y-76966494D02*
X108063369Y-77537922D01*
X108063369Y-77252208D02*
X107063369Y-77252208D01*
X107063369Y-77252208D02*
X107206226Y-77347446D01*
X107206226Y-77347446D02*
X107301464Y-77442684D01*
X107301464Y-77442684D02*
X107349083Y-77537922D01*
X114044580Y-69361666D02*
X114092200Y-69409285D01*
X114092200Y-69409285D02*
X114139819Y-69552142D01*
X114139819Y-69552142D02*
X114139819Y-69647380D01*
X114139819Y-69647380D02*
X114092200Y-69790237D01*
X114092200Y-69790237D02*
X113996961Y-69885475D01*
X113996961Y-69885475D02*
X113901723Y-69933094D01*
X113901723Y-69933094D02*
X113711247Y-69980713D01*
X113711247Y-69980713D02*
X113568390Y-69980713D01*
X113568390Y-69980713D02*
X113377914Y-69933094D01*
X113377914Y-69933094D02*
X113282676Y-69885475D01*
X113282676Y-69885475D02*
X113187438Y-69790237D01*
X113187438Y-69790237D02*
X113139819Y-69647380D01*
X113139819Y-69647380D02*
X113139819Y-69552142D01*
X113139819Y-69552142D02*
X113187438Y-69409285D01*
X113187438Y-69409285D02*
X113235057Y-69361666D01*
X113139819Y-69028332D02*
X113139819Y-68361666D01*
X113139819Y-68361666D02*
X114139819Y-68790237D01*
X50194642Y-121289580D02*
X50147023Y-121337200D01*
X50147023Y-121337200D02*
X50004166Y-121384819D01*
X50004166Y-121384819D02*
X49908928Y-121384819D01*
X49908928Y-121384819D02*
X49766071Y-121337200D01*
X49766071Y-121337200D02*
X49670833Y-121241961D01*
X49670833Y-121241961D02*
X49623214Y-121146723D01*
X49623214Y-121146723D02*
X49575595Y-120956247D01*
X49575595Y-120956247D02*
X49575595Y-120813390D01*
X49575595Y-120813390D02*
X49623214Y-120622914D01*
X49623214Y-120622914D02*
X49670833Y-120527676D01*
X49670833Y-120527676D02*
X49766071Y-120432438D01*
X49766071Y-120432438D02*
X49908928Y-120384819D01*
X49908928Y-120384819D02*
X50004166Y-120384819D01*
X50004166Y-120384819D02*
X50147023Y-120432438D01*
X50147023Y-120432438D02*
X50194642Y-120480057D01*
X50575595Y-120480057D02*
X50623214Y-120432438D01*
X50623214Y-120432438D02*
X50718452Y-120384819D01*
X50718452Y-120384819D02*
X50956547Y-120384819D01*
X50956547Y-120384819D02*
X51051785Y-120432438D01*
X51051785Y-120432438D02*
X51099404Y-120480057D01*
X51099404Y-120480057D02*
X51147023Y-120575295D01*
X51147023Y-120575295D02*
X51147023Y-120670533D01*
X51147023Y-120670533D02*
X51099404Y-120813390D01*
X51099404Y-120813390D02*
X50527976Y-121384819D01*
X50527976Y-121384819D02*
X51147023Y-121384819D01*
X52004166Y-120384819D02*
X51813690Y-120384819D01*
X51813690Y-120384819D02*
X51718452Y-120432438D01*
X51718452Y-120432438D02*
X51670833Y-120480057D01*
X51670833Y-120480057D02*
X51575595Y-120622914D01*
X51575595Y-120622914D02*
X51527976Y-120813390D01*
X51527976Y-120813390D02*
X51527976Y-121194342D01*
X51527976Y-121194342D02*
X51575595Y-121289580D01*
X51575595Y-121289580D02*
X51623214Y-121337200D01*
X51623214Y-121337200D02*
X51718452Y-121384819D01*
X51718452Y-121384819D02*
X51908928Y-121384819D01*
X51908928Y-121384819D02*
X52004166Y-121337200D01*
X52004166Y-121337200D02*
X52051785Y-121289580D01*
X52051785Y-121289580D02*
X52099404Y-121194342D01*
X52099404Y-121194342D02*
X52099404Y-120956247D01*
X52099404Y-120956247D02*
X52051785Y-120861009D01*
X52051785Y-120861009D02*
X52004166Y-120813390D01*
X52004166Y-120813390D02*
X51908928Y-120765771D01*
X51908928Y-120765771D02*
X51718452Y-120765771D01*
X51718452Y-120765771D02*
X51623214Y-120813390D01*
X51623214Y-120813390D02*
X51575595Y-120861009D01*
X51575595Y-120861009D02*
X51527976Y-120956247D01*
X112380922Y-81856193D02*
X111904731Y-82189526D01*
X112380922Y-82427621D02*
X111380922Y-82427621D01*
X111380922Y-82427621D02*
X111380922Y-82046669D01*
X111380922Y-82046669D02*
X111428541Y-81951431D01*
X111428541Y-81951431D02*
X111476160Y-81903812D01*
X111476160Y-81903812D02*
X111571398Y-81856193D01*
X111571398Y-81856193D02*
X111714255Y-81856193D01*
X111714255Y-81856193D02*
X111809493Y-81903812D01*
X111809493Y-81903812D02*
X111857112Y-81951431D01*
X111857112Y-81951431D02*
X111904731Y-82046669D01*
X111904731Y-82046669D02*
X111904731Y-82427621D01*
X112380922Y-80903812D02*
X112380922Y-81475240D01*
X112380922Y-81189526D02*
X111380922Y-81189526D01*
X111380922Y-81189526D02*
X111523779Y-81284764D01*
X111523779Y-81284764D02*
X111619017Y-81380002D01*
X111619017Y-81380002D02*
X111666636Y-81475240D01*
X111476160Y-80522859D02*
X111428541Y-80475240D01*
X111428541Y-80475240D02*
X111380922Y-80380002D01*
X111380922Y-80380002D02*
X111380922Y-80141907D01*
X111380922Y-80141907D02*
X111428541Y-80046669D01*
X111428541Y-80046669D02*
X111476160Y-79999050D01*
X111476160Y-79999050D02*
X111571398Y-79951431D01*
X111571398Y-79951431D02*
X111666636Y-79951431D01*
X111666636Y-79951431D02*
X111809493Y-79999050D01*
X111809493Y-79999050D02*
X112380922Y-80570478D01*
X112380922Y-80570478D02*
X112380922Y-79951431D01*
X73219580Y-124897857D02*
X73267200Y-124945476D01*
X73267200Y-124945476D02*
X73314819Y-125088333D01*
X73314819Y-125088333D02*
X73314819Y-125183571D01*
X73314819Y-125183571D02*
X73267200Y-125326428D01*
X73267200Y-125326428D02*
X73171961Y-125421666D01*
X73171961Y-125421666D02*
X73076723Y-125469285D01*
X73076723Y-125469285D02*
X72886247Y-125516904D01*
X72886247Y-125516904D02*
X72743390Y-125516904D01*
X72743390Y-125516904D02*
X72552914Y-125469285D01*
X72552914Y-125469285D02*
X72457676Y-125421666D01*
X72457676Y-125421666D02*
X72362438Y-125326428D01*
X72362438Y-125326428D02*
X72314819Y-125183571D01*
X72314819Y-125183571D02*
X72314819Y-125088333D01*
X72314819Y-125088333D02*
X72362438Y-124945476D01*
X72362438Y-124945476D02*
X72410057Y-124897857D01*
X73314819Y-123945476D02*
X73314819Y-124516904D01*
X73314819Y-124231190D02*
X72314819Y-124231190D01*
X72314819Y-124231190D02*
X72457676Y-124326428D01*
X72457676Y-124326428D02*
X72552914Y-124421666D01*
X72552914Y-124421666D02*
X72600533Y-124516904D01*
X72314819Y-123612142D02*
X72314819Y-122945476D01*
X72314819Y-122945476D02*
X73314819Y-123374047D01*
X113012095Y-148365891D02*
X112012095Y-148365891D01*
X112488285Y-148365891D02*
X112488285Y-147794463D01*
X113012095Y-147794463D02*
X112012095Y-147794463D01*
X112012095Y-146842082D02*
X112012095Y-147318272D01*
X112012095Y-147318272D02*
X112488285Y-147365891D01*
X112488285Y-147365891D02*
X112440666Y-147318272D01*
X112440666Y-147318272D02*
X112393047Y-147223034D01*
X112393047Y-147223034D02*
X112393047Y-146984939D01*
X112393047Y-146984939D02*
X112440666Y-146889701D01*
X112440666Y-146889701D02*
X112488285Y-146842082D01*
X112488285Y-146842082D02*
X112583523Y-146794463D01*
X112583523Y-146794463D02*
X112821618Y-146794463D01*
X112821618Y-146794463D02*
X112916856Y-146842082D01*
X112916856Y-146842082D02*
X112964476Y-146889701D01*
X112964476Y-146889701D02*
X113012095Y-146984939D01*
X113012095Y-146984939D02*
X113012095Y-147223034D01*
X113012095Y-147223034D02*
X112964476Y-147318272D01*
X112964476Y-147318272D02*
X112916856Y-147365891D01*
X46809580Y-97412857D02*
X46857200Y-97460476D01*
X46857200Y-97460476D02*
X46904819Y-97603333D01*
X46904819Y-97603333D02*
X46904819Y-97698571D01*
X46904819Y-97698571D02*
X46857200Y-97841428D01*
X46857200Y-97841428D02*
X46761961Y-97936666D01*
X46761961Y-97936666D02*
X46666723Y-97984285D01*
X46666723Y-97984285D02*
X46476247Y-98031904D01*
X46476247Y-98031904D02*
X46333390Y-98031904D01*
X46333390Y-98031904D02*
X46142914Y-97984285D01*
X46142914Y-97984285D02*
X46047676Y-97936666D01*
X46047676Y-97936666D02*
X45952438Y-97841428D01*
X45952438Y-97841428D02*
X45904819Y-97698571D01*
X45904819Y-97698571D02*
X45904819Y-97603333D01*
X45904819Y-97603333D02*
X45952438Y-97460476D01*
X45952438Y-97460476D02*
X46000057Y-97412857D01*
X46000057Y-97031904D02*
X45952438Y-96984285D01*
X45952438Y-96984285D02*
X45904819Y-96889047D01*
X45904819Y-96889047D02*
X45904819Y-96650952D01*
X45904819Y-96650952D02*
X45952438Y-96555714D01*
X45952438Y-96555714D02*
X46000057Y-96508095D01*
X46000057Y-96508095D02*
X46095295Y-96460476D01*
X46095295Y-96460476D02*
X46190533Y-96460476D01*
X46190533Y-96460476D02*
X46333390Y-96508095D01*
X46333390Y-96508095D02*
X46904819Y-97079523D01*
X46904819Y-97079523D02*
X46904819Y-96460476D01*
X46333390Y-95889047D02*
X46285771Y-95984285D01*
X46285771Y-95984285D02*
X46238152Y-96031904D01*
X46238152Y-96031904D02*
X46142914Y-96079523D01*
X46142914Y-96079523D02*
X46095295Y-96079523D01*
X46095295Y-96079523D02*
X46000057Y-96031904D01*
X46000057Y-96031904D02*
X45952438Y-95984285D01*
X45952438Y-95984285D02*
X45904819Y-95889047D01*
X45904819Y-95889047D02*
X45904819Y-95698571D01*
X45904819Y-95698571D02*
X45952438Y-95603333D01*
X45952438Y-95603333D02*
X46000057Y-95555714D01*
X46000057Y-95555714D02*
X46095295Y-95508095D01*
X46095295Y-95508095D02*
X46142914Y-95508095D01*
X46142914Y-95508095D02*
X46238152Y-95555714D01*
X46238152Y-95555714D02*
X46285771Y-95603333D01*
X46285771Y-95603333D02*
X46333390Y-95698571D01*
X46333390Y-95698571D02*
X46333390Y-95889047D01*
X46333390Y-95889047D02*
X46381009Y-95984285D01*
X46381009Y-95984285D02*
X46428628Y-96031904D01*
X46428628Y-96031904D02*
X46523866Y-96079523D01*
X46523866Y-96079523D02*
X46714342Y-96079523D01*
X46714342Y-96079523D02*
X46809580Y-96031904D01*
X46809580Y-96031904D02*
X46857200Y-95984285D01*
X46857200Y-95984285D02*
X46904819Y-95889047D01*
X46904819Y-95889047D02*
X46904819Y-95698571D01*
X46904819Y-95698571D02*
X46857200Y-95603333D01*
X46857200Y-95603333D02*
X46809580Y-95555714D01*
X46809580Y-95555714D02*
X46714342Y-95508095D01*
X46714342Y-95508095D02*
X46523866Y-95508095D01*
X46523866Y-95508095D02*
X46428628Y-95555714D01*
X46428628Y-95555714D02*
X46381009Y-95603333D01*
X46381009Y-95603333D02*
X46333390Y-95698571D01*
X55304819Y-148961904D02*
X54304819Y-148961904D01*
X54781009Y-148961904D02*
X54781009Y-148390476D01*
X55304819Y-148390476D02*
X54304819Y-148390476D01*
X54304819Y-148009523D02*
X54304819Y-147342857D01*
X54304819Y-147342857D02*
X55304819Y-147771428D01*
X122638095Y-145104819D02*
X122638095Y-144104819D01*
X122638095Y-144581009D02*
X123209523Y-144581009D01*
X123209523Y-145104819D02*
X123209523Y-144104819D01*
X124114285Y-144438152D02*
X124114285Y-145104819D01*
X123876190Y-144057200D02*
X123638095Y-144771485D01*
X123638095Y-144771485D02*
X124257142Y-144771485D01*
X63170372Y-101707553D02*
X62694181Y-102040886D01*
X63170372Y-102278981D02*
X62170372Y-102278981D01*
X62170372Y-102278981D02*
X62170372Y-101898029D01*
X62170372Y-101898029D02*
X62217991Y-101802791D01*
X62217991Y-101802791D02*
X62265610Y-101755172D01*
X62265610Y-101755172D02*
X62360848Y-101707553D01*
X62360848Y-101707553D02*
X62503705Y-101707553D01*
X62503705Y-101707553D02*
X62598943Y-101755172D01*
X62598943Y-101755172D02*
X62646562Y-101802791D01*
X62646562Y-101802791D02*
X62694181Y-101898029D01*
X62694181Y-101898029D02*
X62694181Y-102278981D01*
X62265610Y-101326600D02*
X62217991Y-101278981D01*
X62217991Y-101278981D02*
X62170372Y-101183743D01*
X62170372Y-101183743D02*
X62170372Y-100945648D01*
X62170372Y-100945648D02*
X62217991Y-100850410D01*
X62217991Y-100850410D02*
X62265610Y-100802791D01*
X62265610Y-100802791D02*
X62360848Y-100755172D01*
X62360848Y-100755172D02*
X62456086Y-100755172D01*
X62456086Y-100755172D02*
X62598943Y-100802791D01*
X62598943Y-100802791D02*
X63170372Y-101374219D01*
X63170372Y-101374219D02*
X63170372Y-100755172D01*
X62265610Y-100374219D02*
X62217991Y-100326600D01*
X62217991Y-100326600D02*
X62170372Y-100231362D01*
X62170372Y-100231362D02*
X62170372Y-99993267D01*
X62170372Y-99993267D02*
X62217991Y-99898029D01*
X62217991Y-99898029D02*
X62265610Y-99850410D01*
X62265610Y-99850410D02*
X62360848Y-99802791D01*
X62360848Y-99802791D02*
X62456086Y-99802791D01*
X62456086Y-99802791D02*
X62598943Y-99850410D01*
X62598943Y-99850410D02*
X63170372Y-100421838D01*
X63170372Y-100421838D02*
X63170372Y-99802791D01*
X108327912Y-140763003D02*
X107851721Y-141096336D01*
X108327912Y-141334431D02*
X107327912Y-141334431D01*
X107327912Y-141334431D02*
X107327912Y-140953479D01*
X107327912Y-140953479D02*
X107375531Y-140858241D01*
X107375531Y-140858241D02*
X107423150Y-140810622D01*
X107423150Y-140810622D02*
X107518388Y-140763003D01*
X107518388Y-140763003D02*
X107661245Y-140763003D01*
X107661245Y-140763003D02*
X107756483Y-140810622D01*
X107756483Y-140810622D02*
X107804102Y-140858241D01*
X107804102Y-140858241D02*
X107851721Y-140953479D01*
X107851721Y-140953479D02*
X107851721Y-141334431D01*
X107423150Y-140382050D02*
X107375531Y-140334431D01*
X107375531Y-140334431D02*
X107327912Y-140239193D01*
X107327912Y-140239193D02*
X107327912Y-140001098D01*
X107327912Y-140001098D02*
X107375531Y-139905860D01*
X107375531Y-139905860D02*
X107423150Y-139858241D01*
X107423150Y-139858241D02*
X107518388Y-139810622D01*
X107518388Y-139810622D02*
X107613626Y-139810622D01*
X107613626Y-139810622D02*
X107756483Y-139858241D01*
X107756483Y-139858241D02*
X108327912Y-140429669D01*
X108327912Y-140429669D02*
X108327912Y-139810622D01*
X66944819Y-120933094D02*
X65944819Y-120933094D01*
X65944819Y-120933094D02*
X65944819Y-120694999D01*
X65944819Y-120694999D02*
X65992438Y-120552142D01*
X65992438Y-120552142D02*
X66087676Y-120456904D01*
X66087676Y-120456904D02*
X66182914Y-120409285D01*
X66182914Y-120409285D02*
X66373390Y-120361666D01*
X66373390Y-120361666D02*
X66516247Y-120361666D01*
X66516247Y-120361666D02*
X66706723Y-120409285D01*
X66706723Y-120409285D02*
X66801961Y-120456904D01*
X66801961Y-120456904D02*
X66897200Y-120552142D01*
X66897200Y-120552142D02*
X66944819Y-120694999D01*
X66944819Y-120694999D02*
X66944819Y-120933094D01*
X66278152Y-119504523D02*
X66944819Y-119504523D01*
X65897200Y-119742618D02*
X66611485Y-119980713D01*
X66611485Y-119980713D02*
X66611485Y-119361666D01*
X91366667Y-104412200D02*
X91509524Y-104459819D01*
X91509524Y-104459819D02*
X91747619Y-104459819D01*
X91747619Y-104459819D02*
X91842857Y-104412200D01*
X91842857Y-104412200D02*
X91890476Y-104364580D01*
X91890476Y-104364580D02*
X91938095Y-104269342D01*
X91938095Y-104269342D02*
X91938095Y-104174104D01*
X91938095Y-104174104D02*
X91890476Y-104078866D01*
X91890476Y-104078866D02*
X91842857Y-104031247D01*
X91842857Y-104031247D02*
X91747619Y-103983628D01*
X91747619Y-103983628D02*
X91557143Y-103936009D01*
X91557143Y-103936009D02*
X91461905Y-103888390D01*
X91461905Y-103888390D02*
X91414286Y-103840771D01*
X91414286Y-103840771D02*
X91366667Y-103745533D01*
X91366667Y-103745533D02*
X91366667Y-103650295D01*
X91366667Y-103650295D02*
X91414286Y-103555057D01*
X91414286Y-103555057D02*
X91461905Y-103507438D01*
X91461905Y-103507438D02*
X91557143Y-103459819D01*
X91557143Y-103459819D02*
X91795238Y-103459819D01*
X91795238Y-103459819D02*
X91938095Y-103507438D01*
X92271429Y-103459819D02*
X92509524Y-104459819D01*
X92509524Y-104459819D02*
X92700000Y-103745533D01*
X92700000Y-103745533D02*
X92890476Y-104459819D01*
X92890476Y-104459819D02*
X93128572Y-103459819D01*
X93461905Y-103555057D02*
X93509524Y-103507438D01*
X93509524Y-103507438D02*
X93604762Y-103459819D01*
X93604762Y-103459819D02*
X93842857Y-103459819D01*
X93842857Y-103459819D02*
X93938095Y-103507438D01*
X93938095Y-103507438D02*
X93985714Y-103555057D01*
X93985714Y-103555057D02*
X94033333Y-103650295D01*
X94033333Y-103650295D02*
X94033333Y-103745533D01*
X94033333Y-103745533D02*
X93985714Y-103888390D01*
X93985714Y-103888390D02*
X93414286Y-104459819D01*
X93414286Y-104459819D02*
X94033333Y-104459819D01*
X111176667Y-104372200D02*
X111319524Y-104419819D01*
X111319524Y-104419819D02*
X111557619Y-104419819D01*
X111557619Y-104419819D02*
X111652857Y-104372200D01*
X111652857Y-104372200D02*
X111700476Y-104324580D01*
X111700476Y-104324580D02*
X111748095Y-104229342D01*
X111748095Y-104229342D02*
X111748095Y-104134104D01*
X111748095Y-104134104D02*
X111700476Y-104038866D01*
X111700476Y-104038866D02*
X111652857Y-103991247D01*
X111652857Y-103991247D02*
X111557619Y-103943628D01*
X111557619Y-103943628D02*
X111367143Y-103896009D01*
X111367143Y-103896009D02*
X111271905Y-103848390D01*
X111271905Y-103848390D02*
X111224286Y-103800771D01*
X111224286Y-103800771D02*
X111176667Y-103705533D01*
X111176667Y-103705533D02*
X111176667Y-103610295D01*
X111176667Y-103610295D02*
X111224286Y-103515057D01*
X111224286Y-103515057D02*
X111271905Y-103467438D01*
X111271905Y-103467438D02*
X111367143Y-103419819D01*
X111367143Y-103419819D02*
X111605238Y-103419819D01*
X111605238Y-103419819D02*
X111748095Y-103467438D01*
X112081429Y-103419819D02*
X112319524Y-104419819D01*
X112319524Y-104419819D02*
X112510000Y-103705533D01*
X112510000Y-103705533D02*
X112700476Y-104419819D01*
X112700476Y-104419819D02*
X112938572Y-103419819D01*
X113748095Y-103753152D02*
X113748095Y-104419819D01*
X113510000Y-103372200D02*
X113271905Y-104086485D01*
X113271905Y-104086485D02*
X113890952Y-104086485D01*
X71466667Y-104272200D02*
X71609524Y-104319819D01*
X71609524Y-104319819D02*
X71847619Y-104319819D01*
X71847619Y-104319819D02*
X71942857Y-104272200D01*
X71942857Y-104272200D02*
X71990476Y-104224580D01*
X71990476Y-104224580D02*
X72038095Y-104129342D01*
X72038095Y-104129342D02*
X72038095Y-104034104D01*
X72038095Y-104034104D02*
X71990476Y-103938866D01*
X71990476Y-103938866D02*
X71942857Y-103891247D01*
X71942857Y-103891247D02*
X71847619Y-103843628D01*
X71847619Y-103843628D02*
X71657143Y-103796009D01*
X71657143Y-103796009D02*
X71561905Y-103748390D01*
X71561905Y-103748390D02*
X71514286Y-103700771D01*
X71514286Y-103700771D02*
X71466667Y-103605533D01*
X71466667Y-103605533D02*
X71466667Y-103510295D01*
X71466667Y-103510295D02*
X71514286Y-103415057D01*
X71514286Y-103415057D02*
X71561905Y-103367438D01*
X71561905Y-103367438D02*
X71657143Y-103319819D01*
X71657143Y-103319819D02*
X71895238Y-103319819D01*
X71895238Y-103319819D02*
X72038095Y-103367438D01*
X72371429Y-103319819D02*
X72609524Y-104319819D01*
X72609524Y-104319819D02*
X72800000Y-103605533D01*
X72800000Y-103605533D02*
X72990476Y-104319819D01*
X72990476Y-104319819D02*
X73228572Y-103319819D01*
X74038095Y-103319819D02*
X73847619Y-103319819D01*
X73847619Y-103319819D02*
X73752381Y-103367438D01*
X73752381Y-103367438D02*
X73704762Y-103415057D01*
X73704762Y-103415057D02*
X73609524Y-103557914D01*
X73609524Y-103557914D02*
X73561905Y-103748390D01*
X73561905Y-103748390D02*
X73561905Y-104129342D01*
X73561905Y-104129342D02*
X73609524Y-104224580D01*
X73609524Y-104224580D02*
X73657143Y-104272200D01*
X73657143Y-104272200D02*
X73752381Y-104319819D01*
X73752381Y-104319819D02*
X73942857Y-104319819D01*
X73942857Y-104319819D02*
X74038095Y-104272200D01*
X74038095Y-104272200D02*
X74085714Y-104224580D01*
X74085714Y-104224580D02*
X74133333Y-104129342D01*
X74133333Y-104129342D02*
X74133333Y-103891247D01*
X74133333Y-103891247D02*
X74085714Y-103796009D01*
X74085714Y-103796009D02*
X74038095Y-103748390D01*
X74038095Y-103748390D02*
X73942857Y-103700771D01*
X73942857Y-103700771D02*
X73752381Y-103700771D01*
X73752381Y-103700771D02*
X73657143Y-103748390D01*
X73657143Y-103748390D02*
X73609524Y-103796009D01*
X73609524Y-103796009D02*
X73561905Y-103891247D01*
X91626667Y-124602200D02*
X91769524Y-124649819D01*
X91769524Y-124649819D02*
X92007619Y-124649819D01*
X92007619Y-124649819D02*
X92102857Y-124602200D01*
X92102857Y-124602200D02*
X92150476Y-124554580D01*
X92150476Y-124554580D02*
X92198095Y-124459342D01*
X92198095Y-124459342D02*
X92198095Y-124364104D01*
X92198095Y-124364104D02*
X92150476Y-124268866D01*
X92150476Y-124268866D02*
X92102857Y-124221247D01*
X92102857Y-124221247D02*
X92007619Y-124173628D01*
X92007619Y-124173628D02*
X91817143Y-124126009D01*
X91817143Y-124126009D02*
X91721905Y-124078390D01*
X91721905Y-124078390D02*
X91674286Y-124030771D01*
X91674286Y-124030771D02*
X91626667Y-123935533D01*
X91626667Y-123935533D02*
X91626667Y-123840295D01*
X91626667Y-123840295D02*
X91674286Y-123745057D01*
X91674286Y-123745057D02*
X91721905Y-123697438D01*
X91721905Y-123697438D02*
X91817143Y-123649819D01*
X91817143Y-123649819D02*
X92055238Y-123649819D01*
X92055238Y-123649819D02*
X92198095Y-123697438D01*
X92531429Y-123649819D02*
X92769524Y-124649819D01*
X92769524Y-124649819D02*
X92960000Y-123935533D01*
X92960000Y-123935533D02*
X93150476Y-124649819D01*
X93150476Y-124649819D02*
X93388572Y-123649819D01*
X94245714Y-123649819D02*
X93769524Y-123649819D01*
X93769524Y-123649819D02*
X93721905Y-124126009D01*
X93721905Y-124126009D02*
X93769524Y-124078390D01*
X93769524Y-124078390D02*
X93864762Y-124030771D01*
X93864762Y-124030771D02*
X94102857Y-124030771D01*
X94102857Y-124030771D02*
X94198095Y-124078390D01*
X94198095Y-124078390D02*
X94245714Y-124126009D01*
X94245714Y-124126009D02*
X94293333Y-124221247D01*
X94293333Y-124221247D02*
X94293333Y-124459342D01*
X94293333Y-124459342D02*
X94245714Y-124554580D01*
X94245714Y-124554580D02*
X94198095Y-124602200D01*
X94198095Y-124602200D02*
X94102857Y-124649819D01*
X94102857Y-124649819D02*
X93864762Y-124649819D01*
X93864762Y-124649819D02*
X93769524Y-124602200D01*
X93769524Y-124602200D02*
X93721905Y-124554580D01*
%TO.C,R29*%
D12*
X49735000Y-93227064D02*
X49735000Y-92772936D01*
X48265000Y-93227064D02*
X48265000Y-92772936D01*
%TO.C,R31*%
X49068269Y-96778993D02*
X48614141Y-96778993D01*
X49068269Y-95308993D02*
X48614141Y-95308993D01*
%TO.C,C9*%
X56211252Y-90255000D02*
X55688748Y-90255000D01*
X56211252Y-88785000D02*
X55688748Y-88785000D01*
%TO.C,R30*%
X62782731Y-91147378D02*
X62782731Y-91601506D01*
X61312731Y-91147378D02*
X61312731Y-91601506D01*
%TO.C,R32*%
X51735000Y-92772936D02*
X51735000Y-93227064D01*
X50265000Y-92772936D02*
X50265000Y-93227064D01*
%TO.C,R33*%
X64985000Y-91172936D02*
X64985000Y-91627064D01*
X63515000Y-91172936D02*
X63515000Y-91627064D01*
%TO.C,U8*%
X53875000Y-91435000D02*
X53635000Y-91105000D01*
X54115000Y-91105000D01*
X53875000Y-91435000D01*
G36*
X53875000Y-91435000D02*
G01*
X53635000Y-91105000D01*
X54115000Y-91105000D01*
X53875000Y-91435000D01*
G37*
X58535000Y-96465000D02*
X54415000Y-96465000D01*
X58535000Y-96370000D02*
X58535000Y-96465000D01*
X58535000Y-91345000D02*
X58535000Y-91440000D01*
X54415000Y-96465000D02*
X54415000Y-96370000D01*
X54415000Y-91440000D02*
X54415000Y-91345000D01*
X54415000Y-91345000D02*
X58535000Y-91345000D01*
%TO.C,R19*%
X58330553Y-100837632D02*
X58330553Y-101291760D01*
X59800553Y-100837632D02*
X59800553Y-101291760D01*
%TO.C,U7*%
X97530000Y-73010000D02*
X98430000Y-73010000D01*
X97530000Y-73910000D02*
X97530000Y-73010000D01*
X97530000Y-78230000D02*
X97530000Y-77330000D01*
X98430000Y-78230000D02*
X97530000Y-78230000D01*
X101850000Y-73010000D02*
X102750000Y-73010000D01*
X102750000Y-73010000D02*
X102750000Y-73910000D01*
X102750000Y-77330000D02*
X102750000Y-78230000D01*
X102750000Y-78230000D02*
X101850000Y-78230000D01*
X97030000Y-74320000D02*
X96700000Y-74560000D01*
X96700000Y-74080000D01*
X97030000Y-74320000D01*
G36*
X97030000Y-74320000D02*
G01*
X96700000Y-74560000D01*
X96700000Y-74080000D01*
X97030000Y-74320000D01*
G37*
%TO.C,SW3*%
X114500000Y-130421337D02*
X114500000Y-131221337D01*
X114540000Y-131221337D02*
X114500000Y-131221337D01*
X114540000Y-131221337D02*
X114540000Y-134721337D01*
%TO.C,U4*%
X52355000Y-123920000D02*
X56475000Y-123920000D01*
X52355000Y-124015000D02*
X52355000Y-123920000D01*
X52355000Y-129040000D02*
X52355000Y-128945000D01*
X56475000Y-123920000D02*
X56475000Y-124015000D01*
X56475000Y-128945000D02*
X56475000Y-129040000D01*
X56475000Y-129040000D02*
X52355000Y-129040000D01*
X51815000Y-124010000D02*
X51575000Y-123680000D01*
X52055000Y-123680000D01*
X51815000Y-124010000D01*
G36*
X51815000Y-124010000D02*
G01*
X51575000Y-123680000D01*
X52055000Y-123680000D01*
X51815000Y-124010000D01*
G37*
%TO.C,C10*%
X70810000Y-142281252D02*
X70810000Y-141758748D01*
X72280000Y-142281252D02*
X72280000Y-141758748D01*
%TO.C,SW7*%
D13*
X49150000Y-139450000D02*
X49150000Y-143030000D01*
X49150000Y-139450000D02*
X50420000Y-139450000D01*
X50430000Y-143030000D02*
X49150000Y-143030000D01*
X50700000Y-139980000D02*
X56800000Y-139980000D01*
X50700000Y-142520000D02*
X50700000Y-139980000D01*
X51210000Y-140740000D02*
X52230000Y-140740000D01*
X51210000Y-141760000D02*
X51210000Y-140740000D01*
X52080000Y-139450000D02*
X52920000Y-139450000D01*
X52230000Y-140740000D02*
X52230000Y-141760000D01*
X52230000Y-141760000D02*
X51210000Y-141760000D01*
X52930000Y-143030000D02*
X52070000Y-143030000D01*
X54580000Y-139450000D02*
X55420000Y-139450000D01*
X55430000Y-143030000D02*
X54570000Y-143030000D01*
X56800000Y-139980000D02*
X56800000Y-142520000D01*
X56800000Y-142520000D02*
X50700000Y-142520000D01*
X57080000Y-139450000D02*
X58320000Y-139470000D01*
X58320000Y-143030000D02*
X57070000Y-143030000D01*
X58320000Y-143030000D02*
X58320000Y-139450000D01*
D14*
X49230000Y-137820000D02*
G75*
G02*
X49170000Y-137820000I-30000J0D01*
G01*
X49170000Y-137820000D02*
G75*
G02*
X49230000Y-137820000I30000J0D01*
G01*
%TO.C,R6*%
D12*
X105312936Y-63235000D02*
X105767064Y-63235000D01*
X105312936Y-64705000D02*
X105767064Y-64705000D01*
%TO.C,D3*%
X61750000Y-118287500D02*
X61750000Y-121147500D01*
X63670000Y-118287500D02*
X61750000Y-118287500D01*
X63670000Y-121147500D02*
X63670000Y-118287500D01*
%TO.C,U5*%
X58817500Y-111285000D02*
X59292500Y-111285000D01*
X58817500Y-111760000D02*
X58817500Y-111285000D01*
X58817500Y-114505000D02*
X58817500Y-114030000D01*
X59292500Y-114505000D02*
X58817500Y-114505000D01*
X61562500Y-111285000D02*
X62037500Y-111285000D01*
X62037500Y-111285000D02*
X62037500Y-111760000D01*
X62037500Y-114030000D02*
X62037500Y-114505000D01*
X62037500Y-114505000D02*
X61562500Y-114505000D01*
X58287500Y-112145000D02*
X57957500Y-112385000D01*
X57957500Y-111905000D01*
X58287500Y-112145000D01*
G36*
X58287500Y-112145000D02*
G01*
X57957500Y-112385000D01*
X57957500Y-111905000D01*
X58287500Y-112145000D01*
G37*
%TO.C,U6*%
X51455553Y-101954696D02*
X54675553Y-101954696D01*
X51455553Y-102154696D02*
X51455553Y-101954696D01*
X51455553Y-105174696D02*
X51455553Y-104974696D01*
X54675553Y-101954696D02*
X54675553Y-102154696D01*
X54675553Y-104974696D02*
X54675553Y-105174696D01*
X54675553Y-105174696D02*
X51455553Y-105174696D01*
X50905553Y-102154696D02*
X50665553Y-101824696D01*
X51145553Y-101824696D01*
X50905553Y-102154696D01*
G36*
X50905553Y-102154696D02*
G01*
X50665553Y-101824696D01*
X51145553Y-101824696D01*
X50905553Y-102154696D01*
G37*
%TO.C,R25*%
X113060000Y-124012936D02*
X113060000Y-124467064D01*
X114530000Y-124012936D02*
X114530000Y-124467064D01*
%TO.C,JP1*%
X69140000Y-114070000D02*
X69140000Y-112670000D01*
X69840000Y-111970000D02*
X70440000Y-111970000D01*
X70440000Y-114770000D02*
X69840000Y-114770000D01*
X71140000Y-112670000D02*
X71140000Y-114070000D01*
X69140000Y-112670000D02*
G75*
G02*
X69840000Y-111970000I699999J1D01*
G01*
X69840000Y-114770000D02*
G75*
G02*
X69140000Y-114070000I0J700000D01*
G01*
X70440000Y-111970000D02*
G75*
G02*
X71140000Y-112670000I1J-699999D01*
G01*
X71140000Y-114070000D02*
G75*
G02*
X70440000Y-114770000I-700000J0D01*
G01*
%TO.C,C22*%
X59178748Y-118560000D02*
X59701252Y-118560000D01*
X59178748Y-120030000D02*
X59701252Y-120030000D01*
%TO.C,C16*%
X71555000Y-124506252D02*
X71555000Y-123983748D01*
X73025000Y-124506252D02*
X73025000Y-123983748D01*
%TO.C,R40*%
X93155000Y-75392936D02*
X93155000Y-75847064D01*
X94625000Y-75392936D02*
X94625000Y-75847064D01*
%TO.C,JP2*%
X96302500Y-84507500D02*
X96302500Y-83907500D01*
X96852500Y-85707500D02*
X97452500Y-85707500D01*
X96952500Y-83207500D02*
X99752500Y-83207500D01*
X97152500Y-85407500D02*
X96852500Y-85707500D01*
X97152500Y-85407500D02*
X97452500Y-85707500D01*
X99752500Y-85207500D02*
X96952500Y-85207500D01*
X100402500Y-83907500D02*
X100402500Y-84507500D01*
X96302500Y-83907500D02*
G75*
G02*
X97002500Y-83207500I699999J1D01*
G01*
X97002500Y-85207500D02*
G75*
G02*
X96302500Y-84507500I-1J699999D01*
G01*
X99702500Y-83207500D02*
G75*
G02*
X100402500Y-83907500I0J-700000D01*
G01*
X100402500Y-84507500D02*
G75*
G02*
X99702500Y-85207500I-700000J0D01*
G01*
%TO.C,C2*%
X106684089Y-140870434D02*
X106684089Y-140347930D01*
X108154089Y-140870434D02*
X108154089Y-140347930D01*
%TO.C,C11*%
X72810000Y-142281252D02*
X72810000Y-141758748D01*
X74280000Y-142281252D02*
X74280000Y-141758748D01*
%TO.C,D1*%
X104015000Y-132290000D02*
X104015000Y-136350000D01*
X106285000Y-132290000D02*
X104015000Y-132290000D01*
X106285000Y-136350000D02*
X106285000Y-132290000D01*
%TO.C,R16*%
X62405000Y-107722064D02*
X62405000Y-107267936D01*
X63875000Y-107722064D02*
X63875000Y-107267936D01*
%TO.C,JP3*%
X96727500Y-86457500D02*
X99527500Y-86457500D01*
X96727500Y-88457500D02*
X96727500Y-86457500D01*
X99527500Y-86457500D02*
X99527500Y-88457500D01*
X99527500Y-88457500D02*
X96727500Y-88457500D01*
%TO.C,U2*%
X77345000Y-124920000D02*
X77345000Y-125920000D01*
X77345000Y-124920000D02*
X78845000Y-124920000D01*
X77345000Y-150770000D02*
X77345000Y-144570000D01*
X95745000Y-124920000D02*
X94245000Y-124920000D01*
X95745000Y-125920000D02*
X95745000Y-124920000D01*
X95745000Y-150770000D02*
X77345000Y-150770000D01*
X95745000Y-150770000D02*
X95745000Y-144570000D01*
X95745000Y-143895000D02*
X96245000Y-143895000D01*
X95745000Y-144395000D01*
X95745000Y-143895000D01*
G36*
X95745000Y-144395000D02*
G01*
X95745000Y-143895000D01*
X96245000Y-143895000D01*
X95745000Y-144395000D01*
G37*
%TO.C,R8*%
X104615000Y-139072936D02*
X104615000Y-139527064D01*
X106085000Y-139072936D02*
X106085000Y-139527064D01*
%TO.C,D2*%
X67400000Y-105085000D02*
X71460000Y-105085000D01*
X71460000Y-102815000D02*
X67400000Y-102815000D01*
X71460000Y-105085000D02*
X71460000Y-102815000D01*
%TO.C,R37*%
X115672936Y-59415000D02*
X116127064Y-59415000D01*
X115672936Y-60885000D02*
X116127064Y-60885000D01*
%TO.C,C29*%
X53326805Y-98079696D02*
X52804301Y-98079696D01*
X53326805Y-99549696D02*
X52804301Y-99549696D01*
%TO.C,U3*%
X71080000Y-117565000D02*
X71080000Y-117335000D01*
X71080000Y-120555000D02*
X71080000Y-120325000D01*
X72055000Y-117335000D02*
X71080000Y-117335000D01*
X72055000Y-120555000D02*
X71080000Y-120555000D01*
X74010000Y-120555000D02*
X73325000Y-120555000D01*
X74300000Y-117335000D02*
X73325000Y-117335000D01*
X74300000Y-117565000D02*
X74300000Y-117335000D01*
X74330000Y-120555000D02*
X74610000Y-120555000D01*
X74330000Y-120835000D01*
X74330000Y-120555000D01*
G36*
X74330000Y-120835000D02*
G01*
X74330000Y-120555000D01*
X74610000Y-120555000D01*
X74330000Y-120835000D01*
G37*
%TO.C,C19*%
X99628748Y-68635000D02*
X100151252Y-68635000D01*
X99628748Y-70105000D02*
X100151252Y-70105000D01*
%TO.C,R39*%
X115672936Y-61615000D02*
X116127064Y-61615000D01*
X115672936Y-63085000D02*
X116127064Y-63085000D01*
%TO.C,C27*%
X51061252Y-120665000D02*
X50538748Y-120665000D01*
X51061252Y-122135000D02*
X50538748Y-122135000D01*
%TO.C,SW1*%
X114500000Y-136971337D02*
X114500000Y-137771337D01*
X114540000Y-137771337D02*
X114500000Y-137771337D01*
X114540000Y-137771337D02*
X114540000Y-141271337D01*
%TO.C,C8*%
X68810000Y-142281252D02*
X68810000Y-141758748D01*
X70280000Y-142281252D02*
X70280000Y-141758748D01*
%TO.C,R15*%
X68605000Y-122217936D02*
X68605000Y-122672064D01*
X70075000Y-122217936D02*
X70075000Y-122672064D01*
%TO.C,C18*%
X99628748Y-66385000D02*
X100151252Y-66385000D01*
X99628748Y-67855000D02*
X100151252Y-67855000D01*
%TO.C,Q2*%
X108760000Y-85630000D02*
X108760000Y-84170000D01*
X108760000Y-85630000D02*
X109690000Y-85630000D01*
X111920000Y-84830000D02*
X111920000Y-84030000D01*
X111920000Y-84830000D02*
X111920000Y-85630000D01*
X111920000Y-85630000D02*
X110990000Y-85630000D01*
X111950000Y-83530000D02*
X112280000Y-83290000D01*
X112280000Y-83770000D01*
X111950000Y-83530000D01*
G36*
X112280000Y-83770000D02*
G01*
X111950000Y-83530000D01*
X112280000Y-83290000D01*
X112280000Y-83770000D01*
G37*
%TO.C,C14*%
X66305000Y-122706252D02*
X66305000Y-122183748D01*
X67775000Y-122706252D02*
X67775000Y-122183748D01*
%TO.C,R14*%
X108525157Y-127148837D02*
X108071029Y-127148837D01*
X108525157Y-128618837D02*
X108071029Y-128618837D01*
%TO.C,C15*%
X64505000Y-107756252D02*
X64505000Y-107233748D01*
X65975000Y-107756252D02*
X65975000Y-107233748D01*
%TO.C,L1*%
X71790000Y-106750000D02*
X71790000Y-105900000D01*
X71790000Y-111500000D02*
X71790000Y-110650000D01*
X72400000Y-105290000D02*
X78050000Y-105290000D01*
X78100000Y-112110000D02*
X72400000Y-112110000D01*
X78710000Y-105950000D02*
X78710000Y-106750000D01*
X78710000Y-110650000D02*
X78710000Y-111500000D01*
X71790000Y-105900000D02*
G75*
G02*
X72400000Y-105290000I610000J0D01*
G01*
X72400000Y-112110000D02*
G75*
G02*
X71790000Y-111500000I0J610000D01*
G01*
X78050000Y-105290000D02*
G75*
G02*
X78710000Y-105950000I-2J-660002D01*
G01*
X78710000Y-111500000D02*
G75*
G02*
X78100000Y-112110000I-610000J0D01*
G01*
%TO.C,Q3*%
X106538093Y-122903837D02*
X106538093Y-123833837D01*
X106538093Y-122903837D02*
X107998093Y-122903837D01*
X106538093Y-126063837D02*
X106538093Y-125133837D01*
X107338093Y-126063837D02*
X106538093Y-126063837D01*
X107338093Y-126063837D02*
X108138093Y-126063837D01*
X108638093Y-126093837D02*
X108878093Y-126423837D01*
X108398093Y-126423837D01*
X108638093Y-126093837D01*
G36*
X108878093Y-126423837D02*
G01*
X108398093Y-126423837D01*
X108638093Y-126093837D01*
X108878093Y-126423837D01*
G37*
%TO.C,R23*%
X67076147Y-113584083D02*
X67076147Y-114038211D01*
X68546147Y-113584083D02*
X68546147Y-114038211D01*
%TO.C,C12*%
X110663093Y-124022585D02*
X110663093Y-124545089D01*
X112133093Y-124022585D02*
X112133093Y-124545089D01*
%TO.C,R24*%
X108077064Y-120715000D02*
X107622936Y-120715000D01*
X108077064Y-122185000D02*
X107622936Y-122185000D01*
%TO.C,U1*%
X103480000Y-67610000D02*
X103535000Y-67610000D01*
X103480000Y-71730000D02*
X103480000Y-67610000D01*
X103535000Y-71730000D02*
X103480000Y-71730000D01*
X113545000Y-67610000D02*
X113600000Y-67610000D01*
X113600000Y-67610000D02*
X113600000Y-71730000D01*
X113600000Y-71730000D02*
X113545000Y-71730000D01*
X113550000Y-67070000D02*
X113880000Y-66830000D01*
X113880000Y-67310000D01*
X113550000Y-67070000D01*
G36*
X113880000Y-67310000D02*
G01*
X113550000Y-67070000D01*
X113880000Y-66830000D01*
X113880000Y-67310000D01*
G37*
%TO.C,J1*%
X97030000Y-46935000D02*
X97030000Y-48345000D01*
X104570000Y-51015000D02*
X105370000Y-51015000D01*
X105370000Y-51015000D02*
X105370000Y-50865000D01*
X106190000Y-46935000D02*
X106190000Y-48345000D01*
%TO.C,R35*%
X121627064Y-59415000D02*
X121172936Y-59415000D01*
X121627064Y-60885000D02*
X121172936Y-60885000D01*
%TO.C,R38*%
X121627064Y-61665000D02*
X121172936Y-61665000D01*
X121627064Y-63135000D02*
X121172936Y-63135000D01*
%TO.C,R11*%
X106355569Y-81189854D02*
X106355569Y-81643982D01*
X107825569Y-81189854D02*
X107825569Y-81643982D01*
%TO.C,R5*%
X111867064Y-63235000D02*
X111412936Y-63235000D01*
X111867064Y-64705000D02*
X111412936Y-64705000D01*
%TO.C,C25*%
X55361252Y-120815000D02*
X54838748Y-120815000D01*
X55361252Y-122285000D02*
X54838748Y-122285000D01*
%TO.C,R21*%
X64135000Y-123915436D02*
X64135000Y-124369564D01*
X65605000Y-123915436D02*
X65605000Y-124369564D01*
%TO.C,R18*%
X59712936Y-107760000D02*
X60167064Y-107760000D01*
X59712936Y-109230000D02*
X60167064Y-109230000D01*
%TO.C,C23*%
X59178748Y-120760000D02*
X59701252Y-120760000D01*
X59178748Y-122230000D02*
X59701252Y-122230000D01*
%TO.C,C20*%
X100366248Y-80972500D02*
X100888752Y-80972500D01*
X100366248Y-82442500D02*
X100888752Y-82442500D01*
%TO.C,C13*%
X68238748Y-107615000D02*
X68761252Y-107615000D01*
X68238748Y-109085000D02*
X68761252Y-109085000D01*
%TO.C,C4*%
X106763093Y-133710085D02*
X106763093Y-134232589D01*
X108233093Y-133710085D02*
X108233093Y-134232589D01*
%TO.C,R13*%
X68727064Y-105515000D02*
X68272936Y-105515000D01*
X68727064Y-106985000D02*
X68272936Y-106985000D01*
%TO.C,R17*%
X65035562Y-113572936D02*
X65035562Y-114027064D01*
X66505562Y-113572936D02*
X66505562Y-114027064D01*
%TO.C,R4*%
X108763093Y-133744273D02*
X108763093Y-134198401D01*
X110233093Y-133744273D02*
X110233093Y-134198401D01*
%TO.C,R20*%
X61969216Y-123870236D02*
X61969216Y-124324364D01*
X63439216Y-123870236D02*
X63439216Y-124324364D01*
%TO.C,J4*%
X113280000Y-46935000D02*
X113280000Y-48345000D01*
X120820000Y-51015000D02*
X121620000Y-51015000D01*
X121620000Y-51015000D02*
X121620000Y-50865000D01*
X122440000Y-46935000D02*
X122440000Y-48345000D01*
%TO.C,Q1*%
X108778550Y-77016018D02*
X109708550Y-77016018D01*
X108778550Y-77816018D02*
X108778550Y-77016018D01*
X108778550Y-77816018D02*
X108778550Y-78616018D01*
X111938550Y-77016018D02*
X111008550Y-77016018D01*
X111938550Y-77016018D02*
X111938550Y-78476018D01*
X108748550Y-79116018D02*
X108418550Y-79356018D01*
X108418550Y-78876018D01*
X108748550Y-79116018D01*
G36*
X108748550Y-79116018D02*
G01*
X108418550Y-79356018D01*
X108418550Y-78876018D01*
X108748550Y-79116018D01*
G37*
%TO.C,C7*%
X114630000Y-69456252D02*
X114630000Y-68933748D01*
X116100000Y-69456252D02*
X116100000Y-68933748D01*
%TO.C,C26*%
X51098752Y-118515000D02*
X50576248Y-118515000D01*
X51098752Y-119985000D02*
X50576248Y-119985000D01*
%TO.C,R12*%
X112841103Y-81440400D02*
X112841103Y-80986272D01*
X114311103Y-81440400D02*
X114311103Y-80986272D01*
%TO.C,C17*%
X73805000Y-124516252D02*
X73805000Y-123993748D01*
X75275000Y-124516252D02*
X75275000Y-123993748D01*
%TO.C,C28*%
X46015000Y-92738748D02*
X46015000Y-93261252D01*
X47485000Y-92738748D02*
X47485000Y-93261252D01*
%TO.C,R22*%
X60330553Y-100837632D02*
X60330553Y-101291760D01*
X61800553Y-100837632D02*
X61800553Y-101291760D01*
%TO.C,R2*%
X108788093Y-140823401D02*
X108788093Y-140369273D01*
X110258093Y-140823401D02*
X110258093Y-140369273D01*
%TO.C,D4*%
X63880000Y-118335000D02*
X63880000Y-121195000D01*
X65800000Y-118335000D02*
X63880000Y-118335000D01*
X65800000Y-121195000D02*
X65800000Y-118335000D01*
%TO.C,SW2*%
D11*
X85700000Y-88750000D02*
X85700000Y-89750000D01*
X85700000Y-101750000D02*
X85700000Y-102750000D01*
X85700000Y-102750000D02*
X86700000Y-102750000D01*
X86350000Y-96385000D02*
X86731000Y-96385000D01*
X86350000Y-96385000D02*
X90160000Y-96385000D01*
X86350000Y-96766000D02*
X86350000Y-96385000D01*
X86350000Y-100195000D02*
X86350000Y-99814000D01*
X86700000Y-88750000D02*
X85700000Y-88750000D01*
X92700000Y-98290000D02*
X97780000Y-98290000D01*
X97780000Y-98290000D02*
X97780000Y-99306000D01*
X97780000Y-102354000D02*
X97780000Y-102735000D01*
X97780000Y-102735000D02*
X88890000Y-102735000D01*
X98700000Y-102750000D02*
X99700000Y-102750000D01*
X99700000Y-88750000D02*
X98700000Y-88750000D01*
X99700000Y-89750000D02*
X99700000Y-88750000D01*
X99700000Y-102750000D02*
X99700000Y-102354000D01*
X88890000Y-102735000D02*
G75*
G02*
X86350000Y-100195000I1J2540001D01*
G01*
X92700000Y-98290000D02*
G75*
G02*
X90238732Y-96377503I0J2540000D01*
G01*
%TO.C,SW4*%
X105510000Y-88710000D02*
X105510000Y-89710000D01*
X105510000Y-101710000D02*
X105510000Y-102710000D01*
X105510000Y-102710000D02*
X106510000Y-102710000D01*
X106160000Y-96345000D02*
X106541000Y-96345000D01*
X106160000Y-96345000D02*
X109970000Y-96345000D01*
X106160000Y-96726000D02*
X106160000Y-96345000D01*
X106160000Y-100155000D02*
X106160000Y-99774000D01*
X106510000Y-88710000D02*
X105510000Y-88710000D01*
X112510000Y-98250000D02*
X117590000Y-98250000D01*
X117590000Y-98250000D02*
X117590000Y-99266000D01*
X117590000Y-102314000D02*
X117590000Y-102695000D01*
X117590000Y-102695000D02*
X108700000Y-102695000D01*
X118510000Y-102710000D02*
X119510000Y-102710000D01*
X119510000Y-88710000D02*
X118510000Y-88710000D01*
X119510000Y-89710000D02*
X119510000Y-88710000D01*
X119510000Y-102710000D02*
X119510000Y-102314000D01*
X108700000Y-102695000D02*
G75*
G02*
X106160000Y-100155000I1J2540001D01*
G01*
X112510000Y-98250000D02*
G75*
G02*
X110048732Y-96337503I0J2540000D01*
G01*
%TO.C,SW6*%
X65800000Y-88610000D02*
X65800000Y-89610000D01*
X65800000Y-101610000D02*
X65800000Y-102610000D01*
X65800000Y-102610000D02*
X66800000Y-102610000D01*
X66450000Y-96245000D02*
X66831000Y-96245000D01*
X66450000Y-96245000D02*
X70260000Y-96245000D01*
X66450000Y-96626000D02*
X66450000Y-96245000D01*
X66450000Y-100055000D02*
X66450000Y-99674000D01*
X66800000Y-88610000D02*
X65800000Y-88610000D01*
X72800000Y-98150000D02*
X77880000Y-98150000D01*
X77880000Y-98150000D02*
X77880000Y-99166000D01*
X77880000Y-102214000D02*
X77880000Y-102595000D01*
X77880000Y-102595000D02*
X68990000Y-102595000D01*
X78800000Y-102610000D02*
X79800000Y-102610000D01*
X79800000Y-88610000D02*
X78800000Y-88610000D01*
X79800000Y-89610000D02*
X79800000Y-88610000D01*
X79800000Y-102610000D02*
X79800000Y-102214000D01*
X68990000Y-102595000D02*
G75*
G02*
X66450000Y-100055000I1J2540001D01*
G01*
X72800000Y-98150000D02*
G75*
G02*
X70338732Y-96237503I0J2540000D01*
G01*
%TO.C,SW5*%
X85960000Y-108940000D02*
X85960000Y-109940000D01*
X85960000Y-121940000D02*
X85960000Y-122940000D01*
X85960000Y-122940000D02*
X86960000Y-122940000D01*
X86610000Y-116575000D02*
X86991000Y-116575000D01*
X86610000Y-116575000D02*
X90420000Y-116575000D01*
X86610000Y-116956000D02*
X86610000Y-116575000D01*
X86610000Y-120385000D02*
X86610000Y-120004000D01*
X86960000Y-108940000D02*
X85960000Y-108940000D01*
X92960000Y-118480000D02*
X98040000Y-118480000D01*
X98040000Y-118480000D02*
X98040000Y-119496000D01*
X98040000Y-122544000D02*
X98040000Y-122925000D01*
X98040000Y-122925000D02*
X89150000Y-122925000D01*
X98960000Y-122940000D02*
X99960000Y-122940000D01*
X99960000Y-108940000D02*
X98960000Y-108940000D01*
X99960000Y-109940000D02*
X99960000Y-108940000D01*
X99960000Y-122940000D02*
X99960000Y-122544000D01*
X89150000Y-122925000D02*
G75*
G02*
X86610000Y-120385000I1J2540001D01*
G01*
X92960000Y-118480000D02*
G75*
G02*
X90498732Y-116567503I0J2540000D01*
G01*
%TD*%
M02*
