%TF.GenerationSoftware,KiCad,Pcbnew,10.0.2*%
%TF.CreationDate,2026-05-26T19:34:46+07:00*%
%TF.ProjectId,caligula,63616c69-6775-46c6-912e-6b696361645f,0.01*%
%TF.SameCoordinates,Original*%
%TF.FileFunction,Plated,1,2,PTH,Drill*%
%TF.FilePolarity,Positive*%
%FSLAX46Y46*%
G04 Gerber Fmt 4.6, Leading zero omitted, Abs format (unit mm)*
G04 Created by KiCad (PCBNEW 10.0.2) date 2026-05-26 19:34:46*
%MOMM*%
%LPD*%
G01*
G04 APERTURE LIST*
%TA.AperFunction,ComponentDrill*%
%ADD10C,0.200000*%
%TD*%
%TA.AperFunction,ViaDrill*%
%ADD11C,0.800000*%
%TD*%
%TA.AperFunction,ComponentDrill*%
%ADD12C,0.890000*%
%TD*%
%TA.AperFunction,ComponentDrill*%
%ADD13C,0.950000*%
%TD*%
%TA.AperFunction,ComponentDrill*%
%ADD14C,1.000000*%
%TD*%
%TA.AperFunction,ComponentDrill*%
%ADD15C,1.200000*%
%TD*%
%TA.AperFunction,ComponentDrill*%
%ADD16C,1.600000*%
%TD*%
%TA.AperFunction,ComponentDrill*%
%ADD17C,2.010000*%
%TD*%
G04 APERTURE END LIST*
D10*
%TO.C,U3*%
X72115000Y-118945000D03*
X72690000Y-117995000D03*
X72690000Y-119895000D03*
X73265000Y-118945000D03*
%TO.C,U2*%
X86645000Y-134710000D03*
X86645000Y-136110000D03*
X87345000Y-134010000D03*
X87345000Y-135410000D03*
X87345000Y-136810000D03*
X88045000Y-134710000D03*
X88045000Y-136110000D03*
X88745000Y-134010000D03*
X88745000Y-135410000D03*
X88745000Y-136810000D03*
X89445000Y-134710000D03*
X89445000Y-136110000D03*
%TD*%
D11*
X46541205Y-98000000D03*
X46800000Y-89200000D03*
X47453566Y-100680761D03*
X47900000Y-105300000D03*
X49730761Y-98130761D03*
X50400000Y-84100000D03*
X55094239Y-133944239D03*
X55850000Y-117650000D03*
X55950000Y-85750000D03*
X57750000Y-134300000D03*
X58150000Y-103864696D03*
X58200000Y-106500000D03*
X59850000Y-89150000D03*
X60850000Y-104350000D03*
X61000000Y-143100000D03*
X61200000Y-127950000D03*
X62200000Y-97100000D03*
X62200000Y-134500000D03*
X63100000Y-116900000D03*
X63800000Y-137050000D03*
X64402081Y-101797918D03*
X65000000Y-130400000D03*
X65950000Y-110700000D03*
X66300000Y-135400000D03*
X66800000Y-137950000D03*
X67150000Y-129550000D03*
X68200000Y-125450000D03*
X68300000Y-117850000D03*
X68750000Y-136200000D03*
X69650000Y-138650000D03*
X72400000Y-133569517D03*
X72919239Y-103980761D03*
X73200000Y-114050000D03*
X73300001Y-129452574D03*
X73600000Y-81625000D03*
X73650000Y-85425000D03*
X74400000Y-73800000D03*
X76080761Y-121319239D03*
X76250000Y-81625000D03*
X76300000Y-85425000D03*
X77750000Y-119250000D03*
X77850000Y-114850000D03*
X79150000Y-121450000D03*
X80100000Y-119350000D03*
X80650000Y-75850000D03*
X80900000Y-115400000D03*
X81800000Y-104450000D03*
X83000000Y-73900000D03*
X83500000Y-121000000D03*
X83900000Y-110600000D03*
X84100000Y-79350000D03*
X84800000Y-104350000D03*
X85100000Y-85025000D03*
X85500000Y-107350000D03*
X88000000Y-104350000D03*
X89650000Y-85500000D03*
X90700000Y-73600000D03*
X91600000Y-105850000D03*
X95500000Y-67150000D03*
X96227082Y-105822918D03*
X100050000Y-58450000D03*
X100800000Y-142100000D03*
X101000001Y-115288477D03*
X101950000Y-124350000D03*
X101950000Y-126650000D03*
X102050000Y-64500000D03*
X102150000Y-129000000D03*
X102206451Y-131379355D03*
X102250000Y-133650000D03*
X102250000Y-135900000D03*
X102250000Y-138100000D03*
X102300000Y-84898332D03*
X103950000Y-82150000D03*
X104050000Y-79850000D03*
X105417070Y-78126303D03*
X106150000Y-54010000D03*
X107300000Y-74500000D03*
X107300000Y-86400000D03*
X107400000Y-76900000D03*
X107500000Y-109900000D03*
X107856147Y-117093853D03*
X109144239Y-104944239D03*
X110000000Y-116600000D03*
X110500000Y-109800000D03*
X110900000Y-107000000D03*
X111050000Y-56050000D03*
X111100000Y-59650000D03*
X113750006Y-110100000D03*
X114500000Y-105150000D03*
X114550000Y-56100000D03*
X115250000Y-74150000D03*
X115700000Y-115700000D03*
X116344239Y-107005761D03*
X116950000Y-86200000D03*
X117950000Y-66550000D03*
X117975610Y-112175610D03*
X118250000Y-69200000D03*
X118500000Y-64200000D03*
X119400000Y-108600000D03*
X119654163Y-142000000D03*
X120410000Y-54400000D03*
X120800000Y-119850000D03*
X121000000Y-122750000D03*
X123157232Y-98657232D03*
X123250000Y-81750000D03*
X123300000Y-110000000D03*
X123700000Y-116400000D03*
X124400000Y-124300000D03*
X124450000Y-134000000D03*
D12*
%TO.C,J8*%
X54670000Y-55830000D03*
X57210000Y-55830000D03*
D13*
%TO.C,J3*%
X54927500Y-109457500D03*
X54927500Y-111957500D03*
X54927500Y-114457500D03*
D14*
%TO.C,J2*%
X49150000Y-63630000D03*
X49150000Y-66170000D03*
X49150000Y-68710000D03*
X49150000Y-71250000D03*
X49150000Y-73790000D03*
X49150000Y-76330000D03*
X49150000Y-78870000D03*
X49150000Y-81410000D03*
%TO.C,J5*%
X54000000Y-63510000D03*
X54000000Y-66050000D03*
X54000000Y-68590000D03*
X54000000Y-71130000D03*
X54000000Y-73670000D03*
X54000000Y-76210000D03*
X54000000Y-78750000D03*
X54000000Y-81290000D03*
%TO.C,J7*%
X64400000Y-63510000D03*
X64400000Y-66050000D03*
X64400000Y-68590000D03*
X64400000Y-71130000D03*
X64400000Y-73670000D03*
X64400000Y-76210000D03*
X64400000Y-78750000D03*
X64400000Y-81290000D03*
%TO.C,J6*%
X69332250Y-63509970D03*
X69332250Y-66049970D03*
X69332250Y-68589970D03*
X69332250Y-71129970D03*
X69332250Y-73669970D03*
X69332250Y-76209970D03*
X69332250Y-78749970D03*
X69332250Y-81289970D03*
D15*
%TO.C,J9*%
X85190000Y-63065000D03*
%TO.C,Card1*%
X109295000Y-137130000D03*
X117295000Y-137130000D03*
D16*
%TO.C,J9*%
X81380000Y-59250000D03*
X89000000Y-58615000D03*
D17*
%TO.C,J8*%
X49590000Y-50750000D03*
X59750000Y-50750000D03*
M02*
