%TF.GenerationSoftware,KiCad,Pcbnew,10.0.2*%
%TF.CreationDate,2026-05-26T19:34:44+07:00*%
%TF.ProjectId,caligula,63616c69-6775-46c6-912e-6b696361645f,0.01*%
%TF.SameCoordinates,Original*%
%TF.FileFunction,Soldermask,Bot*%
%TF.FilePolarity,Negative*%
%FSLAX46Y46*%
G04 Gerber Fmt 4.6, Leading zero omitted, Abs format (unit mm)*
G04 Created by KiCad (PCBNEW 10.0.2) date 2026-05-26 19:34:44*
%MOMM*%
%LPD*%
G01*
G04 APERTURE LIST*
G04 Aperture macros list*
%AMRoundRect*
0 Rectangle with rounded corners*
0 $1 Rounding radius*
0 $2 $3 $4 $5 $6 $7 $8 $9 X,Y pos of 4 corners*
0 Add a 4 corners polygon primitive as box body*
4,1,4,$2,$3,$4,$5,$6,$7,$8,$9,$2,$3,0*
0 Add four circle primitives for the rounded corners*
1,1,$1+$1,$2,$3*
1,1,$1+$1,$4,$5*
1,1,$1+$1,$6,$7*
1,1,$1+$1,$8,$9*
0 Add four rect primitives between the rounded corners*
20,1,$1+$1,$2,$3,$4,$5,0*
20,1,$1+$1,$4,$5,$6,$7,0*
20,1,$1+$1,$6,$7,$8,$9,0*
20,1,$1+$1,$8,$9,$2,$3,0*%
G04 Aperture macros list end*
%ADD10C,2.000000*%
%ADD11C,3.200000*%
%ADD12C,0.650000*%
%ADD13C,3.000000*%
%ADD14C,3.987800*%
%ADD15R,2.550000X2.500000*%
%ADD16RoundRect,0.250000X-0.350000X-0.450000X0.350000X-0.450000X0.350000X0.450000X-0.350000X0.450000X0*%
%ADD17R,1.700000X1.700000*%
%ADD18C,1.700000*%
%ADD19C,1.600000*%
%ADD20C,3.400000*%
%ADD21C,2.900000*%
%ADD22RoundRect,0.250000X0.337500X0.475000X-0.337500X0.475000X-0.337500X-0.475000X0.337500X-0.475000X0*%
%ADD23RoundRect,0.250000X-0.337500X-0.475000X0.337500X-0.475000X0.337500X0.475000X-0.337500X0.475000X0*%
%ADD24RoundRect,0.250000X-0.450000X0.350000X-0.450000X-0.350000X0.450000X-0.350000X0.450000X0.350000X0*%
%ADD25RoundRect,0.250000X0.350000X0.450000X-0.350000X0.450000X-0.350000X-0.450000X0.350000X-0.450000X0*%
%ADD26O,1.600000X2.500000*%
%ADD27O,3.500000X7.000000*%
%ADD28RoundRect,0.250000X0.725000X-0.600000X0.725000X0.600000X-0.725000X0.600000X-0.725000X-0.600000X0*%
%ADD29O,1.950000X1.700000*%
%ADD30C,1.200000*%
%ADD31R,0.700000X1.600000*%
%ADD32R,1.200000X1.500000*%
%ADD33R,1.200000X2.200000*%
%ADD34R,1.600000X1.500000*%
G04 APERTURE END LIST*
D10*
%TO.C,H2*%
X67400000Y-46700000D03*
%TD*%
D11*
%TO.C,H6*%
X47000000Y-129800000D03*
%TD*%
D10*
%TO.C,H3*%
X46800000Y-148200000D03*
%TD*%
%TO.C,H1*%
X124800000Y-57000000D03*
%TD*%
D12*
%TO.C,J1*%
X104500000Y-49105000D03*
X98720000Y-49105000D03*
%TD*%
D11*
%TO.C,H8*%
X67400000Y-54200000D03*
%TD*%
D12*
%TO.C,J4*%
X120750000Y-49105000D03*
X114970000Y-49105000D03*
%TD*%
D11*
%TO.C,H5*%
X116707276Y-147603987D03*
%TD*%
%TO.C,H7*%
X59000000Y-148200000D03*
%TD*%
D10*
%TO.C,H4*%
X123400000Y-147600000D03*
%TD*%
D13*
%TO.C,SW2*%
X88890000Y-93210000D03*
X88890000Y-98290000D03*
D14*
X92700000Y-95750000D03*
D13*
X95240000Y-90670000D03*
X95240000Y-100830000D03*
D15*
X98990000Y-90670000D03*
X85140000Y-93210000D03*
%TD*%
D16*
%TO.C,R9*%
X59550000Y-95010000D03*
X61550000Y-95010000D03*
%TD*%
D17*
%TO.C,J2*%
X49150000Y-63630000D03*
D18*
X49150000Y-66170000D03*
X49150000Y-68710000D03*
X49150000Y-71250000D03*
X49150000Y-73790000D03*
X49150000Y-76330000D03*
X49150000Y-78870000D03*
X49150000Y-81410000D03*
%TD*%
D17*
%TO.C,J5*%
X54000000Y-63510000D03*
D18*
X54000000Y-66050000D03*
X54000000Y-68590000D03*
X54000000Y-71130000D03*
X54000000Y-73670000D03*
X54000000Y-76210000D03*
X54000000Y-78750000D03*
X54000000Y-81290000D03*
%TD*%
D17*
%TO.C,J7*%
X64400000Y-63510000D03*
D18*
X64400000Y-66050000D03*
X64400000Y-68590000D03*
X64400000Y-71130000D03*
X64400000Y-73670000D03*
X64400000Y-76210000D03*
X64400000Y-78750000D03*
X64400000Y-81290000D03*
%TD*%
D19*
%TO.C,J9*%
X81380000Y-54805000D03*
X89000000Y-49725000D03*
D20*
X89000000Y-58615000D03*
X81380000Y-59250000D03*
D21*
X85190000Y-63065000D03*
%TD*%
D22*
%TO.C,C6*%
X61580650Y-92948303D03*
X59505650Y-92948303D03*
%TD*%
D23*
%TO.C,C3*%
X121012500Y-94040000D03*
X123087500Y-94040000D03*
%TD*%
D17*
%TO.C,J6*%
X69332250Y-63509970D03*
D18*
X69332250Y-66049970D03*
X69332250Y-68589970D03*
X69332250Y-71129970D03*
X69332250Y-73669970D03*
X69332250Y-76209970D03*
X69332250Y-78749970D03*
X69332250Y-81289970D03*
%TD*%
D24*
%TO.C,R27*%
X118300000Y-118750000D03*
X118300000Y-120750000D03*
%TD*%
D25*
%TO.C,R3*%
X123050000Y-96040000D03*
X121050000Y-96040000D03*
%TD*%
D24*
%TO.C,R26*%
X116050000Y-118750000D03*
X116050000Y-120750000D03*
%TD*%
D23*
%TO.C,C5*%
X102466886Y-109892188D03*
X104541886Y-109892188D03*
%TD*%
D16*
%TO.C,R7*%
X102500000Y-112020000D03*
X104500000Y-112020000D03*
%TD*%
D26*
%TO.C,J8*%
X54670000Y-55830000D03*
D27*
X59750000Y-50750000D03*
D26*
X57210000Y-55830000D03*
D27*
X49590000Y-50750000D03*
%TD*%
D16*
%TO.C,R1*%
X101750000Y-104250000D03*
X103750000Y-104250000D03*
%TD*%
D24*
%TO.C,R10*%
X113800000Y-118750000D03*
X113800000Y-120750000D03*
%TD*%
D13*
%TO.C,SW4*%
X108700000Y-93170000D03*
X108700000Y-98250000D03*
D14*
X112510000Y-95710000D03*
D13*
X115050000Y-90630000D03*
X115050000Y-100790000D03*
D15*
X118800000Y-90630000D03*
X104950000Y-93170000D03*
%TD*%
D13*
%TO.C,SW6*%
X68990000Y-93070000D03*
X68990000Y-98150000D03*
D14*
X72800000Y-95610000D03*
D13*
X75340000Y-90530000D03*
X75340000Y-100690000D03*
D15*
X79090000Y-90530000D03*
X65240000Y-93070000D03*
%TD*%
D28*
%TO.C,J3*%
X54927500Y-114457500D03*
D29*
X54927500Y-111957500D03*
X54927500Y-109457500D03*
%TD*%
D30*
%TO.C,Card1*%
X117295000Y-137130000D03*
X109295000Y-137130000D03*
D31*
X110095000Y-126130000D03*
X111195000Y-126130000D03*
X112295000Y-126130000D03*
X113395000Y-126130000D03*
X114495000Y-126130000D03*
X115595000Y-126130000D03*
X116695000Y-126130000D03*
X117795000Y-126130000D03*
D32*
X120095000Y-127130000D03*
D33*
X120095000Y-136730000D03*
X104595000Y-136730000D03*
D34*
X105495000Y-127130000D03*
D31*
X118895000Y-126130000D03*
%TD*%
D22*
%TO.C,C1*%
X103787500Y-102250000D03*
X101712500Y-102250000D03*
%TD*%
D24*
%TO.C,R28*%
X111550000Y-118750000D03*
X111550000Y-120750000D03*
%TD*%
D13*
%TO.C,SW5*%
X89150000Y-113400000D03*
X89150000Y-118480000D03*
D14*
X92960000Y-115940000D03*
D13*
X95500000Y-110860000D03*
X95500000Y-121020000D03*
D15*
X99250000Y-110860000D03*
X85400000Y-113400000D03*
%TD*%
M02*
